<svg width="31" height="26" viewBox="0 0 31 26" fill="none" xmlns="http://www.w3.org/2000/svg">
<path fill-rule="evenodd" clip-rule="evenodd" d="M13.8697 17.7305H17.7629C17.7629 18.0916 17.8058 18.4435 17.886 18.7807C17.8008 18.8216 17.7234 18.882 17.658 18.9583C17.5927 19.0346 17.5408 19.1254 17.5052 19.2254C17.4696 19.3254 17.4511 19.4327 17.4507 19.5412C17.4503 19.6497 17.468 19.7572 17.5029 19.8576L17.5332 19.9439C17.6114 20.1695 17.7623 20.3491 17.9527 20.4434C18.1431 20.5376 18.3575 20.5388 18.5486 20.4466L18.6358 20.4043C18.9052 20.7737 19.2284 21.1026 19.5951 21.3783C19.3919 21.8257 19.5312 22.389 19.9097 22.6297C20.0916 22.745 20.3049 22.7702 20.5026 22.6999C20.7003 22.6296 20.8663 22.4695 20.964 22.2548L21.0294 22.1133C21.5432 22.2716 22.0738 22.3419 22.6046 22.3219L22.6248 22.4459C22.6641 22.6852 22.7823 22.8964 22.9534 23.0328C23.1245 23.1693 23.3346 23.22 23.5374 23.1737C23.7402 23.1274 23.9191 22.9879 24.0348 22.7859C24.1504 22.584 24.1933 22.3361 24.1541 22.0968L24.1393 22.0095C24.8174 21.7545 25.4387 21.3238 25.9575 20.7488L26.1988 24.1752C26.0064 24.2136 25.8332 24.3359 25.7135 24.5179C25.5939 24.6998 25.5365 24.9282 25.5527 25.1577C25.569 25.3872 25.6577 25.6012 25.8013 25.7572C25.9449 25.9132 26.1329 25.9998 26.3281 26H28.664V9.46094C28.6677 8.21357 28.3199 7.00015 27.6752 6.01163C28.1618 6.16599 28.5021 6.39111 28.7419 6.664C29.1756 7.15558 29.4427 7.98345 29.4427 9.46094L29.744 14.441C29.5611 14.7764 29.4427 15.302 29.4427 15.8928C29.4427 16.9081 29.7915 17.7305 30.2213 17.7305C30.6512 17.7305 31 16.9081 31 15.8928C31 15.302 30.8816 14.7764 30.6987 14.441L31 9.46094C31 7.77579 30.7018 6.3369 29.8211 5.33812C28.9514 4.35221 27.6752 3.981 26.1046 3.94976C26.0454 3.94792 24.4251 3.94792 24.3815 3.94792V3.95435C24.3094 3.95013 24.2372 3.94798 24.165 3.94792H12.7017C11.1958 3.94792 10.0582 3.6833 9.10433 3.33414L8.9852 3.14486C9.50689 2.98866 10.0325 2.73873 10.4101 2.40979C11.399 1.55159 11.9729 -0.174899 10.7076 0.0143809C10.3393 0.0695111 10.0738 0.080537 9.85651 0.0897253C9.32858 0.110859 9.09343 0.120966 8.39264 0.730155C8.12513 0.9608 7.87714 1.22143 7.65215 1.50841C6.56281 0.55282 5.11297 0.12556 2.57923 0.272574C2.47598 0.272574 2.37695 0.320977 2.30394 0.407134C2.23093 0.493292 2.18991 0.610147 2.18991 0.731992C2.18991 0.853838 2.23093 0.970693 2.30394 1.05685C2.37695 1.14301 2.47598 1.19141 2.57923 1.19141H3.93175C4.15445 1.36048 4.34444 1.51852 4.5134 1.66921L1.72272 5.78559H1.55764C1.31482 5.78553 1.07535 5.85247 0.858362 5.98108C0.641371 6.10968 0.452871 6.29638 0.307918 6.52626C0.162965 6.75614 0.0655746 7.02284 0.0235265 7.30505C-0.0185216 7.58725 -0.00406266 7.87716 0.0657485 8.1516L0.299344 9.07044C0.395636 9.44898 0.592784 9.7808 0.861533 10.0167C1.13028 10.2525 1.45631 10.3799 1.79124 10.3798H4.40906C4.73814 10.38 5.0587 10.5032 5.32476 10.7317L7.03 12.1945C7.08139 12.2386 7.13434 12.279 7.18807 12.3139C8.40822 16.026 9.69533 18.9167 11.1358 20.3712L11.4045 24.1752C11.212 24.2136 11.0388 24.3359 10.9191 24.5179C10.7995 24.6998 10.7421 24.9282 10.7584 25.1577C10.7746 25.3872 10.8633 25.6012 11.0069 25.7572C11.1505 25.9132 11.3385 25.9998 11.5337 26H13.8697V17.7305ZM21.5082 17.7305H19.3202C19.3202 18.9525 20.4368 20.487 22.4348 20.487C23.1753 20.487 23.7951 20.2756 24.2818 19.9485C23.1683 19.4248 22.3056 18.6456 21.509 17.7305" fill="white"/>
</svg>
