<svg width="28" height="28" viewBox="0 0 28 28" fill="none" xmlns="http://www.w3.org/2000/svg">
<path d="M10.8631 1.81997C8.75569 0.612659 5.8101 0.0212528 1.86651 0.000256102C1.49459 -0.00580697 1.12997 0.124325 0.821268 0.373297C0.567882 0.578805 0.360464 0.855876 0.217258 1.18014C0.0740527 1.5044 -0.000553165 1.86592 3.08783e-06 2.2329V22.2567C3.08783e-06 23.6103 0.802603 24.6315 1.86651 24.6315C6.01192 24.6315 10.1702 25.0962 12.6608 27.9209C12.6948 27.9598 12.7377 27.9857 12.7839 27.9956C12.8302 28.0054 12.8778 27.9988 12.921 27.9764C12.9641 27.954 13.0008 27.9169 13.0265 27.8697C13.0522 27.8226 13.0658 27.7674 13.0656 27.711V4.11701C13.0657 3.95782 13.0373 3.80046 12.9824 3.65557C12.9274 3.51068 12.8472 3.38163 12.7471 3.27714C12.1766 2.69191 11.5429 2.20177 10.8631 1.81997ZM27.1764 0.371197C26.8675 0.122844 26.5029 -0.00656051 26.1312 0.000256102C22.1876 0.0212528 19.242 0.60986 17.1346 1.81997C16.4548 2.20108 15.8209 2.69026 15.25 3.27434C15.1501 3.37901 15.0701 3.50811 15.0153 3.65297C14.9604 3.79784 14.9321 3.9551 14.9321 4.11421V27.7096C14.9321 27.7638 14.9454 27.8167 14.9703 27.8619C14.9953 27.907 15.0308 27.9423 15.0724 27.9633C15.1141 27.9843 15.1599 27.9901 15.2043 27.9799C15.2486 27.9698 15.2895 27.9442 15.3217 27.9062C16.819 26.1215 19.4467 24.6294 26.1335 24.6301C26.6285 24.6301 27.1033 24.3941 27.4533 23.9741C27.8033 23.5541 28 22.9844 28 22.3904V2.2336C28.0007 1.8659 27.9259 1.50365 27.7823 1.17884C27.6386 0.85403 27.4305 0.576652 27.1764 0.371197Z" fill="white"/>
</svg>
