<svg width="33" height="28" viewBox="0 0 33 28" fill="none" xmlns="http://www.w3.org/2000/svg">
<path d="M22.6875 0C20.5837 0 18.7688 1.22347 17.655 3.07615C19.5113 4.9638 20.625 7.55056 20.625 10.5218C20.625 11.5356 20.5012 12.4444 20.2537 13.3533C21.0375 13.7378 21.8213 14.0175 22.6875 14.0175C26.1112 14.0175 28.875 10.8714 28.875 7.02622C28.875 3.18102 26.1112 0.0349563 22.6875 0.0349563V0ZM10.3125 3.49563C6.88875 3.49563 4.125 6.6417 4.125 10.4869C4.125 14.3321 6.88875 17.4782 10.3125 17.4782C13.7362 17.4782 16.5 14.3321 16.5 10.4869C16.5 6.6417 13.7362 3.49563 10.3125 3.49563ZM29.9062 14.5418C28.1325 16.3246 25.6987 17.4082 22.935 17.4782C24.0487 18.8065 24.75 20.4145 24.75 22.1623V24.4694H33V18.6667C33 16.8489 31.7213 15.2759 29.9062 14.5069V14.5418ZM3.09375 18.0375C1.27875 18.8065 0 20.3795 0 22.1973V28H20.625V22.1973C20.625 20.3795 19.3463 18.8065 17.5312 18.0375C15.675 19.8901 13.1587 20.9738 10.3125 20.9738C7.46625 20.9738 4.95 19.8552 3.09375 18.0375Z" fill="white"/>
</svg>
