<svg width="31" height="31" viewBox="0 0 31 31" fill="none" xmlns="http://www.w3.org/2000/svg">
<path d="M28.1655 12.9703H27.125V12.9167H15.5V18.0833H22.7999C21.7349 21.091 18.8732 23.25 15.5 23.25C11.2201 23.25 7.75004 19.7799 7.75004 15.5C7.75004 11.2201 11.2201 7.75001 15.5 7.75001C17.4756 7.75001 19.273 8.4953 20.6415 9.7127L24.295 6.05922C21.9881 3.90924 18.9023 2.58334 15.5 2.58334C8.36681 2.58334 2.58337 8.36678 2.58337 15.5C2.58337 22.6332 8.36681 28.4167 15.5 28.4167C22.6333 28.4167 28.4167 22.6332 28.4167 15.5C28.4167 14.6339 28.3276 13.7886 28.1655 12.9703Z" fill="#FFC107"/>
<path d="M4.07263 9.48795L8.3164 12.6002C9.46469 9.75726 12.2457 7.75001 15.5 7.75001C17.4756 7.75001 19.273 8.4953 20.6415 9.7127L24.295 6.05922C21.9881 3.90924 18.9023 2.58334 15.5 2.58334C10.5387 2.58334 6.23617 5.38432 4.07263 9.48795Z" fill="#FF3D00"/>
<path d="M15.5 28.4167C18.8364 28.4167 21.868 27.1399 24.16 25.0635L20.1623 21.6806C18.8219 22.7 17.184 23.2514 15.5 23.25C12.1404 23.25 9.28777 21.1078 8.2131 18.1182L4.00098 21.3635C6.13868 25.5466 10.48 28.4167 15.5 28.4167Z" fill="#4CAF50"/>
<path d="M28.1654 12.9703H27.125V12.9167H15.5V18.0833H22.7999C22.2904 19.5148 21.3728 20.7656 20.1603 21.6813L20.1623 21.68L24.16 25.0628C23.8771 25.3199 28.4167 21.9583 28.4167 15.5C28.4167 14.6339 28.3275 13.7885 28.1654 12.9703Z" fill="#1976D2"/>
</svg>
