<svg width="119" height="143" viewBox="0 0 119 143" fill="none" xmlns="http://www.w3.org/2000/svg">
<g opacity="0.3">
<path d="M59.5001 142.473C89.2355 142.473 113.341 138.854 113.341 134.389C113.341 129.924 89.2355 126.304 59.5001 126.304C29.7646 126.304 5.65922 129.924 5.65922 134.389C5.65922 138.854 29.7646 142.473 59.5001 142.473Z" fill="#000072"/>
</g>
<path d="M104.383 132.895C104.383 132.895 101.453 132.639 97.4047 132.29C92.452 131.855 85.8208 131.278 80.8301 130.844C79.738 130.749 78.6435 130.972 77.6795 131.494C77.5419 131.568 77.3946 131.646 77.2332 131.727C77.0931 131.798 76.9411 131.87 76.782 131.946C74.0707 133.213 68.6479 134.982 59.5 134.982C52.1162 134.982 47.1587 133.831 44.096 132.72C43.3647 132.454 42.7403 132.19 42.218 131.946C41.8761 131.784 41.577 131.632 41.3205 131.494C40.3566 130.972 39.2621 130.749 38.1699 130.844C33.1698 131.281 26.522 131.858 21.5646 132.292C17.5308 132.641 14.6176 132.895 14.6176 132.895C11.1085 136.87 2.7702 135.383 1.22694 126.592C0.991897 125.253 0.913546 123.745 1.03463 122.059C1.94633 109.395 12.4262 113.536 12.5568 113.586C12.5592 113.588 12.5592 113.588 12.5592 113.588L16.0873 112.384L19.0456 111.375C19.15 109.21 19.4065 107.182 19.784 105.288C21.51 96.6408 25.7551 90.7503 29.3688 87.1201C29.6275 86.8613 29.8911 86.6096 30.1641 86.3674C30.3374 86.2107 30.5155 86.0564 30.696 85.9068C31.2468 85.4486 31.8238 85.0236 32.4197 84.6319C35.0788 82.8821 38.1511 81.8065 41.3587 81.4979C45.0506 81.1417 50.7891 80.8236 59.5002 80.8236C68.2112 80.8236 73.9497 81.1417 77.6417 81.4979C80.835 81.8041 83.8954 82.8749 86.5474 84.6082C87.3333 85.1233 88.0835 85.6955 88.7887 86.3247C89.076 86.5811 89.3585 86.8447 89.6315 87.1201C90.3058 87.7967 91.0015 88.5541 91.6995 89.3922C94.9332 93.2717 98.1954 98.9105 99.4585 106.624C99.7054 108.127 99.8764 109.711 99.9547 111.375L106.441 113.588C106.441 113.588 117.049 109.314 117.966 122.059C118.882 134.804 108.426 137.475 104.383 132.895Z" fill="white"/>
<path d="M76.7821 131.946C74.0707 133.213 68.648 134.982 59.5001 134.982C52.1162 134.982 47.1588 133.831 44.0961 132.72C43.3648 132.454 42.7404 132.19 42.218 131.946C44.0296 124.073 51.0787 118.201 59.5001 118.201C67.9214 118.201 74.9706 124.073 76.7821 131.946Z" fill="#FFAEBF"/>
<path d="M30.7007 98.7884C30.1808 102.881 28.1015 110.423 19.7839 105.288C21.51 96.6407 25.7551 90.7503 29.3687 87.12C29.7937 86.6927 30.2353 86.289 30.6959 85.9068C32.39 88.3121 33.7816 91.679 31.9055 95.0032C31.2489 96.1664 30.869 97.4633 30.7007 98.7884Z" fill="#5D5C70"/>
<path d="M14.6176 132.895C10.5743 137.475 0.118142 134.804 1.0346 122.059C1.95107 109.314 12.5591 113.588 12.5591 113.588C12.5591 113.588 19.7839 121.83 14.6176 132.895Z" fill="#5D5C70"/>
<path d="M104.383 132.895C108.426 137.475 118.882 134.804 117.965 122.059C117.049 109.314 106.441 113.588 106.441 113.588C106.441 113.588 99.2162 121.83 104.383 132.895Z" fill="#5D5C70"/>
<path d="M44.0961 132.72C42.8876 132.28 41.9735 131.846 41.3206 131.494C40.3567 130.972 39.2622 130.749 38.17 130.844C33.1698 131.281 26.522 131.858 21.5646 132.292C22.4051 126.841 27.1156 122.669 32.8019 122.669C38.6353 122.669 43.4431 127.062 44.0961 132.72Z" fill="#5D5C70"/>
<path d="M99.4584 106.624C93.9027 106.19 89.5293 101.546 89.5293 95.8786C89.5293 93.445 90.3366 91.1966 91.6994 89.3922C94.9331 93.2717 98.1953 98.9105 99.4584 106.624Z" fill="#5D5C70"/>
<g opacity="0.3">
<path d="M102.751 127.019C102.751 127.019 101.882 127.085 100.1 126.958C96.51 126.703 93.6336 123.888 93.2806 120.307C93.0253 117.716 92.4426 114.531 91.1794 111.375C91.1794 111.375 89.7169 124.854 81.5947 124.934C73.4701 125.015 74.5931 109.542 74.5931 109.542C74.5931 109.542 71.8793 130.077 59.5001 130.077C47.1209 130.077 44.4071 109.542 44.4071 109.542C44.4071 109.542 45.5301 125.015 37.4055 124.934C29.2832 124.854 27.8207 111.375 27.8207 111.375C26.5576 114.531 25.9749 117.716 25.7196 120.307C25.3665 123.888 22.4902 126.703 18.9001 126.958C17.1179 127.085 16.2488 127.019 16.2488 127.019C6.71146 134.142 1.22698 126.592 1.22698 126.592C2.77024 135.383 11.1085 136.87 14.6176 132.895C14.6176 132.895 17.5308 132.641 21.5646 132.292C26.522 131.858 33.1698 131.281 38.17 130.844C39.2621 130.749 40.3566 130.972 41.3206 131.494C41.577 131.632 41.8762 131.784 42.218 131.945C42.7403 132.19 43.3648 132.454 44.0961 132.719C47.1588 133.831 52.1162 134.982 59.5001 134.982C66.8839 134.982 71.8413 133.831 74.9041 132.719C75.6353 132.454 76.2598 132.19 76.7821 131.945C77.124 131.784 77.4231 131.632 77.6795 131.494C78.6435 130.972 79.738 130.749 80.8301 130.844C85.8303 131.281 92.4781 131.858 97.4355 132.292C101.469 132.641 104.382 132.895 104.382 132.895C107.892 136.87 116.23 135.383 117.773 126.592C117.773 126.592 112.289 134.142 102.751 127.019Z" fill="#000072"/>
</g>
<g opacity="0.3">
<path d="M16.2487 123.51H16.0184C16.9325 115.827 12.5591 113.588 12.5591 113.588L16.0872 112.384C19.9525 118.514 16.2487 123.51 16.2487 123.51Z" fill="#000072"/>
</g>
<g opacity="0.3">
<path d="M102.751 123.51H102.982C102.068 115.827 106.441 113.588 106.441 113.588L102.913 112.384C99.0476 118.514 102.751 123.51 102.751 123.51Z" fill="#000072"/>
</g>
<g opacity="0.3">
<path d="M88.7886 86.3247C86.7016 91.2678 80.0847 98.0534 59.4669 98.0534C38.9084 98.0534 32.2677 91.3082 30.1641 86.3674C30.3374 86.2107 30.5155 86.0564 30.6959 85.9068C31.2467 85.4486 31.8237 85.0236 32.4196 84.6318C36.0664 87.1485 43.7209 90.1543 59.4669 90.1543C75.2602 90.1543 82.9124 87.1295 86.5474 84.6081C87.3332 85.1233 88.0834 85.6955 88.7886 86.3247Z" fill="#000072"/>
</g>
<path d="M13.0976 112.77L13.2927 112.897C13.3528 112.936 13.4076 112.975 13.4607 113.014C13.568 113.093 13.6744 113.173 13.7728 113.257C13.9776 113.421 14.1606 113.602 14.3486 113.779C14.524 113.967 14.702 114.153 14.8663 114.351C15.0217 114.555 15.1912 114.749 15.3302 114.965C15.9115 115.808 16.3686 116.744 16.6301 117.73C16.7132 117.971 16.7445 118.226 16.8 118.472C16.8511 118.721 16.9045 118.967 16.9153 119.22L16.9769 119.971C16.9799 120.221 16.9645 120.471 16.9578 120.718L16.9441 121.089C16.9374 121.212 16.9121 121.334 16.8955 121.456L16.7817 122.183C16.7653 122.303 16.7334 122.421 16.6996 122.539L16.6007 122.89C16.5341 123.123 16.4627 123.354 16.3895 123.581C16.3253 123.781 16.1113 123.891 15.9115 123.827C15.7567 123.777 15.6559 123.638 15.6482 123.484L15.6459 123.436C15.6239 122.977 15.6493 122.53 15.6255 122.087L15.5747 121.428C15.5646 121.32 15.5627 121.211 15.5487 121.103L15.4963 120.781L15.395 120.145L15.2401 119.525C15.1967 119.318 15.1251 119.119 15.0573 118.92C14.9846 118.723 14.9378 118.519 14.8421 118.331C14.754 118.142 14.6784 117.949 14.5952 117.759L14.3028 117.211C14.0994 116.852 13.8761 116.506 13.6337 116.173C13.3917 115.84 13.1275 115.524 12.8522 115.22C12.7113 115.073 12.5725 114.921 12.4257 114.784C12.3546 114.711 12.2817 114.645 12.2088 114.58C12.1728 114.545 12.1374 114.512 12.1039 114.483L12.0185 114.406L11.9128 114.31C11.5138 113.949 11.4832 113.332 11.8444 112.933C12.1702 112.574 12.7034 112.514 13.0976 112.77Z" fill="#000072"/>
<path d="M106.981 114.406L106.896 114.483C106.863 114.512 106.827 114.545 106.791 114.58C106.718 114.645 106.645 114.711 106.574 114.785C106.427 114.921 106.289 115.073 106.148 115.22C105.872 115.524 105.608 115.84 105.366 116.173C105.124 116.506 104.901 116.852 104.697 117.211L104.405 117.759C104.322 117.949 104.246 118.142 104.158 118.331C104.062 118.519 104.015 118.723 103.943 118.92C103.875 119.119 103.803 119.318 103.76 119.525L103.605 120.145L103.504 120.781L103.451 121.103C103.437 121.211 103.435 121.32 103.425 121.429L103.375 122.088C103.351 122.53 103.376 122.977 103.354 123.436L103.352 123.484C103.342 123.693 103.164 123.855 102.954 123.845C102.792 123.837 102.658 123.728 102.61 123.582C102.537 123.354 102.466 123.123 102.399 122.89L102.3 122.539C102.267 122.421 102.235 122.303 102.218 122.183L102.105 121.456C102.088 121.334 102.063 121.212 102.056 121.089L102.042 120.718C102.035 120.471 102.02 120.221 102.023 119.971L102.085 119.221C102.095 118.967 102.149 118.721 102.2 118.473C102.255 118.226 102.287 117.971 102.37 117.73C102.631 116.744 103.088 115.808 103.67 114.965C103.809 114.749 103.978 114.555 104.134 114.351C104.298 114.153 104.476 113.967 104.651 113.779C104.839 113.602 105.022 113.421 105.227 113.257C105.326 113.173 105.432 113.093 105.539 113.014C105.592 112.975 105.647 112.936 105.707 112.897L105.902 112.77C106.354 112.477 106.957 112.606 107.251 113.057C107.515 113.464 107.436 113.995 107.087 114.31L106.981 114.406Z" fill="#000072"/>
<path d="M20.0196 111.475L19.8783 112.014C19.8313 112.205 19.7741 112.398 19.7194 112.593C19.666 112.789 19.606 112.987 19.5446 113.187C19.478 113.387 19.4165 113.59 19.3333 113.797L19.3309 113.803C19.2652 113.966 19.0797 114.045 18.9165 113.979C18.8457 113.951 18.7906 113.899 18.7564 113.837C18.6465 113.637 18.5611 113.433 18.4804 113.226C18.4021 113.02 18.3367 112.81 18.2801 112.598C18.2245 112.386 18.1731 112.172 18.1397 111.955C18.103 111.732 18.0718 111.531 18.0701 111.275L18.0698 111.231C18.0662 110.683 18.5068 110.237 19.0542 110.233C19.6015 110.229 20.0481 110.67 20.0518 111.217C20.0524 111.305 20.0402 111.394 20.0196 111.475Z" fill="#000072"/>
<path d="M100.93 111.275C100.928 111.531 100.897 111.732 100.86 111.955C100.827 112.172 100.776 112.386 100.72 112.598C100.663 112.81 100.598 113.02 100.52 113.226C100.439 113.433 100.354 113.637 100.244 113.837C100.159 113.991 99.9652 114.047 99.8111 113.963C99.7442 113.926 99.6958 113.869 99.6693 113.803L99.6668 113.797C99.5836 113.59 99.5221 113.387 99.4555 113.187C99.394 112.987 99.3341 112.789 99.2807 112.593C99.226 112.398 99.1689 112.205 99.1218 112.014L98.9806 111.475C98.8421 110.945 99.159 110.404 99.6885 110.265C100.218 110.127 100.76 110.444 100.898 110.973C100.92 111.058 100.931 111.142 100.931 111.226L100.93 111.275Z" fill="#000072"/>
<path d="M109.236 135.966C107.22 135.966 105.305 135.229 103.924 133.839C101.601 133.637 88.955 132.535 80.7458 131.821C79.8392 131.741 78.94 131.926 78.1467 132.356C75.6561 133.703 69.9218 135.963 59.5001 135.963C49.0783 135.963 43.344 133.703 40.8534 132.356C40.0602 131.926 39.1619 131.741 38.2543 131.821C30.0452 132.535 17.3988 133.637 15.0765 133.839C12.9333 135.995 9.50669 136.58 6.41206 135.281C1.96899 133.414 -0.40661 128.445 0.0572639 121.989C0.368653 117.655 1.79644 114.666 4.30085 113.102C7.50302 111.103 11.378 112.151 12.5667 112.55L18.1029 110.661C18.8542 98.6735 24.2414 90.88 28.6735 86.429C32.0091 83.0795 36.4807 80.9813 41.2647 80.5214C45.9416 80.0717 52.0768 79.8437 59.5 79.8437C66.9232 79.8437 73.0585 80.0717 77.7353 80.5214C82.5193 80.9813 86.9909 83.0795 90.3265 86.429C94.7586 90.8799 100.146 98.6735 100.897 110.661L106.433 112.55C107.622 112.151 111.496 111.103 114.699 113.102C117.204 114.666 118.631 117.655 118.943 121.989C119.407 128.445 117.031 133.414 112.588 135.281C111.489 135.742 110.347 135.966 109.236 135.966ZM80.3364 129.843C80.529 129.843 80.7221 129.851 80.9157 129.868C89.984 130.657 104.467 131.919 104.467 131.919C104.717 131.941 104.949 132.058 105.116 132.247C106.675 134.012 109.373 134.505 111.829 133.474C115.46 131.948 117.389 127.708 116.988 122.129C116.725 118.462 115.609 115.986 113.671 114.771C110.773 112.954 106.845 114.482 106.806 114.498C106.589 114.584 106.347 114.591 106.126 114.515L99.6389 112.302C99.2584 112.172 98.9957 111.823 98.9766 111.421C98.4173 99.6782 93.2089 92.1007 88.938 87.8119C85.9237 84.785 81.8786 82.8886 77.5478 82.472C72.933 82.0284 66.861 81.8036 59.5001 81.8036C52.1392 81.8036 46.0672 82.0284 41.4524 82.472C37.1216 82.8886 33.0765 84.785 30.0623 87.8119C25.7913 92.1007 20.5828 99.6782 20.0236 111.421C20.0044 111.823 19.7418 112.172 19.3613 112.302L12.8746 114.515C12.652 114.591 12.4099 114.585 12.1921 114.497C12.1547 114.482 8.22708 112.953 5.32932 114.771C3.39166 115.986 2.27556 118.462 2.01203 122.129C1.6111 127.708 3.53968 131.949 7.17102 133.474C9.62707 134.506 12.3252 134.013 13.8843 132.247C14.0508 132.058 14.2832 131.941 14.5336 131.919C14.5336 131.919 29.0161 130.657 38.0845 129.868C39.3738 129.756 40.6543 130.02 41.7859 130.632C44.1135 131.891 49.5099 134.003 59.5001 134.003C69.4903 134.003 74.8867 131.891 77.2143 130.632C78.176 130.112 79.245 129.843 80.3364 129.843Z" fill="#000072"/>
<path d="M40.3376 138.161C35.7411 138.786 32.8326 135.21 30.9926 130.481C27.8967 122.522 27.8207 111.299 27.8207 111.299L44.407 109.542C45.0575 116.755 46.0571 122.28 46.6008 126.466C46.6554 126.888 46.7076 127.297 46.7527 127.693C46.7978 128.109 46.8406 128.508 46.8738 128.895C47.3938 134.747 46.3183 137.347 40.3376 138.161Z" fill="white"/>
<path d="M40.3376 138.161C35.7411 138.786 32.8326 135.21 30.9926 130.481C34.3213 127.67 39.5731 124.939 46.6009 126.466C47.5909 134.047 47.09 137.242 40.3376 138.161Z" fill="#5D5C70"/>
<g opacity="0.3">
<path d="M40.3376 138.161C35.7411 138.786 32.8326 135.21 30.9926 130.481C27.8967 122.522 27.8207 111.299 27.8207 111.299C27.8207 111.299 31.7385 136.177 40.6415 134.982C46.1394 134.244 46.8834 130.754 46.8739 128.895C47.3938 134.747 46.3183 137.347 40.3376 138.161Z" fill="#000072"/>
</g>
<path d="M28.1148 111.297C28.589 112.635 28.7817 113.973 28.9295 115.313C29.0941 116.652 29.193 117.994 29.33 119.334C29.4635 120.674 29.6791 122.003 29.9302 123.321C30.1838 124.638 30.4812 125.945 30.8432 127.227C31.2064 128.509 31.6277 129.77 32.1494 130.975C32.6673 132.181 33.2832 133.336 34.0437 134.351C34.8007 135.364 35.7146 136.233 36.7781 136.759C37.8381 137.292 39.0355 137.452 40.2445 137.284C41.5352 137.103 42.8058 136.81 43.845 136.255C44.879 135.694 45.5457 134.818 45.8425 133.661C46.1327 132.504 46.1467 131.192 46.0635 129.876C45.9814 128.556 45.8157 127.219 45.6345 125.878C45.2645 123.196 44.8319 120.496 44.467 117.785L44.1984 115.75C44.1102 115.072 43.992 114.396 43.8931 113.718C43.7268 112.359 43.6091 110.987 44.1142 109.57C44.1742 109.401 44.3592 109.314 44.5275 109.374C44.6002 109.399 44.6577 109.449 44.695 109.51L44.6994 109.517C45.0942 110.164 45.3009 110.825 45.4565 111.49C45.6045 112.156 45.7 112.827 45.7621 113.502C45.8232 114.177 45.8603 114.856 45.9491 115.528C46.0309 116.202 46.1223 116.874 46.2136 117.547C46.5759 120.239 47.0062 122.922 47.3811 125.64C47.5647 127 47.7358 128.369 47.8231 129.771C47.9057 131.168 47.9175 132.619 47.5465 134.113C47.3554 134.856 47.0166 135.608 46.5198 136.255C46.0235 136.902 45.3787 137.429 44.6965 137.799C44.5272 137.895 44.3518 137.968 44.1792 138.053C44.0924 138.093 44.006 138.136 43.9188 138.174L43.6555 138.271C43.4798 138.334 43.304 138.404 43.1279 138.461L42.5984 138.611L42.3334 138.685L42.0689 138.742L41.5397 138.856C41.1874 138.923 40.8364 138.972 40.4845 139.03C39.7403 139.13 38.9641 139.142 38.1994 139.029C37.4344 138.918 36.683 138.681 35.9936 138.337C34.6056 137.648 33.5032 136.57 32.6336 135.408C31.7591 134.24 31.0888 132.969 30.5307 131.673C29.9696 130.376 29.5268 129.046 29.1468 127.706C28.7685 126.365 28.4607 125.011 28.1991 123.653C27.9384 122.293 27.7338 120.928 27.5235 119.564C27.314 118.2 27.1451 116.829 27.104 115.45C27.0499 114.073 27.0958 112.687 27.5274 111.3C27.578 111.138 27.7508 111.047 27.9133 111.098C28.0091 111.128 28.0801 111.2 28.1117 111.288L28.1148 111.297Z" fill="#000072"/>
<path d="M78.6625 138.161C83.259 138.786 86.1674 135.21 88.0075 130.481C91.1035 122.522 91.1795 111.299 91.1795 111.299L74.593 109.542C73.9425 116.755 72.943 122.28 72.3993 126.466C72.3447 126.888 72.2924 127.297 72.2473 127.693C72.2022 128.109 72.1595 128.508 72.1262 128.895C71.6062 134.747 72.6818 137.347 78.6625 138.161Z" fill="white"/>
<path d="M78.6625 138.161C83.259 138.786 86.1674 135.21 88.0075 130.481C84.6788 127.67 79.427 124.939 72.3993 126.466C71.4092 134.047 71.9102 137.242 78.6625 138.161Z" fill="#5D5C70"/>
<g opacity="0.3">
<path d="M78.6625 138.161C83.259 138.786 86.1675 135.21 88.0075 130.481C91.1035 122.522 91.1795 111.299 91.1795 111.299C91.1795 111.299 87.2617 136.177 78.3586 134.982C72.8607 134.244 72.1168 130.754 72.1263 128.895C71.6062 134.747 72.6818 137.347 78.6625 138.161Z" fill="#000072"/>
</g>
<path d="M91.4729 111.301C91.9044 112.687 91.9503 114.073 91.8962 115.45C91.8551 116.829 91.6862 118.2 91.4768 119.564C91.2664 120.928 91.0618 122.293 90.8011 123.653C90.5395 125.012 90.2318 126.365 89.8534 127.706C89.4734 129.046 89.0306 130.376 88.4696 131.673C87.9114 132.969 87.2412 134.24 86.3666 135.408C85.497 136.57 84.3947 137.648 83.0066 138.337C82.3172 138.681 81.5659 138.918 80.8009 139.029C80.0362 139.142 79.26 139.131 78.5157 139.03C78.1639 138.972 77.8129 138.923 77.4606 138.856L76.9313 138.742L76.6668 138.685L76.4019 138.611L75.8723 138.461C75.6962 138.404 75.5205 138.335 75.3447 138.271L75.0814 138.174C74.9943 138.136 74.9078 138.093 74.8211 138.053C74.6485 137.968 74.4731 137.896 74.3038 137.799C73.6215 137.429 72.9767 136.902 72.4805 136.255C71.9836 135.608 71.6448 134.856 71.4538 134.113C71.0828 132.619 71.0946 131.168 71.1771 129.771C71.2645 128.369 71.4355 127 71.6192 125.64C71.9941 122.922 72.4243 120.239 72.7866 117.547C72.878 116.874 72.9694 116.202 73.0511 115.528C73.14 114.856 73.177 114.177 73.2381 113.502C73.3003 112.827 73.3957 112.156 73.5437 111.49C73.6993 110.825 73.906 110.164 74.3008 109.517L74.3051 109.51C74.3981 109.357 74.5971 109.309 74.7497 109.402C74.8155 109.442 74.862 109.503 74.886 109.57C75.3911 110.987 75.2733 112.359 75.1071 113.718C75.0082 114.396 74.8899 115.072 74.8018 115.75L74.5332 117.785C74.1683 120.496 73.7357 123.196 73.3657 125.878C73.1844 127.219 73.0187 128.557 72.9367 129.876C72.8535 131.192 72.8674 132.504 73.1577 133.661C73.4545 134.818 74.1211 135.694 75.1552 136.255C76.1944 136.81 77.4649 137.103 78.7557 137.284C79.9647 137.452 81.1621 137.292 82.2221 136.759C83.2856 136.233 84.1995 135.364 84.9565 134.351C85.717 133.336 86.3329 132.181 86.8508 130.976C87.3725 129.77 87.7938 128.509 88.157 127.227C88.519 125.945 88.8164 124.638 89.07 123.321C89.3211 122.003 89.5367 120.674 89.6701 119.334C89.8072 117.994 89.906 116.652 90.0707 115.313C90.2185 113.973 90.4111 112.636 90.8854 111.297L90.888 111.289C90.9448 111.129 91.121 111.045 91.2814 111.102C91.3761 111.135 91.4446 111.212 91.4729 111.301Z" fill="#000072"/>
<path d="M59.4664 87.5422C86.5433 87.5422 89.6899 78.6503 89.6899 78.6503C89.6899 78.6503 91.8999 95.4425 59.4664 95.4425C27.0329 95.4425 29.2429 78.6503 29.2429 78.6503C29.2429 78.6503 32.3895 87.5422 59.4664 87.5422Z" fill="#FF1552"/>
<g opacity="0.3">
<path d="M89.4565 79.1096C88.387 83.9319 83.2111 92.9314 59.4664 92.9314C35.7217 92.9314 30.5458 83.9319 29.4763 79.1096C29.303 78.8194 29.2428 78.6503 29.2428 78.6503C29.2428 78.6503 27.0329 95.4425 59.4663 95.4425C91.8998 95.4425 89.6899 78.6503 89.6899 78.6503C89.6899 78.6503 89.6298 78.8194 89.4565 79.1096Z" fill="#000072"/>
</g>
<path d="M59.4664 96.2415C46.0104 96.2415 36.7107 93.417 31.8255 87.8469C27.8723 83.3392 28.4253 78.7396 28.4507 78.5458L28.8852 75.2444L29.9962 78.3837C30.0247 78.4575 33.5103 86.7433 59.4664 86.7433C85.4225 86.7433 88.9082 78.4575 88.9404 78.3737L90.0682 75.4401L90.4822 78.5459C90.5076 78.7396 91.0606 83.3392 87.1074 87.8469C82.2221 93.4171 72.9224 96.2415 59.4664 96.2415ZM30.2248 81.2676C30.5382 82.7949 31.2926 84.8305 33.0606 86.8315C36.2092 90.3953 43.3464 94.6436 59.4664 94.6436C75.5864 94.6436 82.7236 90.3953 85.8723 86.8315C87.64 84.8307 88.3945 82.7954 88.708 81.2679C85.795 84.0632 78.2657 88.3412 59.4663 88.3412C40.667 88.3412 33.1376 84.0631 30.2248 81.2676Z" fill="#000072"/>
<path d="M62.5957 101.321C64.3249 99.5916 64.3248 96.7881 62.5957 95.059C60.8666 93.3299 58.0631 93.3299 56.334 95.059C54.6048 96.7881 54.6048 99.5916 56.334 101.321C58.0631 103.05 60.8666 103.05 62.5957 101.321Z" fill="#FFD400"/>
<g opacity="0.3">
<path d="M59.4664 100.792C57.3342 100.792 55.555 99.284 55.134 97.277C55.0721 97.5717 55.0387 97.8769 55.0387 98.1901C55.0387 100.635 57.021 102.618 59.4664 102.618C61.9119 102.618 63.8942 100.635 63.8942 98.1901C63.8942 97.877 63.8607 97.5717 63.7989 97.277C63.3779 99.284 61.5987 100.792 59.4664 100.792Z" fill="#000072"/>
</g>
<path d="M59.4664 103.417C56.5844 103.417 54.2396 101.072 54.2396 98.1901C54.2396 95.3081 56.5844 92.9635 59.4664 92.9635C62.3485 92.9635 64.6932 95.3081 64.6932 98.1901C64.6932 101.072 62.3485 103.417 59.4664 103.417ZM59.4664 94.5613C57.4656 94.5613 55.8377 96.1893 55.8377 98.1901C55.8377 100.191 57.4656 101.819 59.4664 101.819C61.4673 101.819 63.0952 100.191 63.0952 98.1901C63.0951 96.1893 61.4673 94.5613 59.4664 94.5613Z" fill="#000072"/>
<path d="M63.331 98.0476C62.4087 98.1298 61.16 98.1892 59.4661 98.1892C57.7722 98.1892 56.5235 98.1298 55.6035 98.0476C53.4234 97.849 51.9213 95.7168 52.5514 93.6212C52.9372 92.3382 53.7042 91.1009 54.3982 90.1604C55.1515 89.1308 55.8227 88.4551 55.8227 88.4551H63.1095C63.1095 88.4551 63.7898 89.14 64.55 90.1809C65.2394 91.1191 65.9974 92.3473 66.3809 93.6212C67.0132 95.7168 65.5088 97.849 63.331 98.0476Z" fill="#FFD400"/>
<g opacity="0.3">
<path d="M66.3806 93.6217C66.1814 92.9614 65.882 92.3135 65.5441 91.7115C65.7971 93.3833 64.5561 94.9723 62.8124 95.1311C62.0153 95.2038 60.933 95.2552 59.4664 95.2552C57.9998 95.2552 56.9175 95.2038 56.1204 95.1311C54.3767 94.9723 53.1358 93.3833 53.3887 91.7115C53.0508 92.3135 52.7515 92.9614 52.5523 93.6217C51.9203 95.7164 53.424 97.8483 55.6029 98.0468C56.5233 98.1307 57.7729 98.1901 59.4664 98.1901C61.1599 98.1901 62.4096 98.1307 63.33 98.0468C65.5088 97.8483 67.0125 95.7164 66.3806 93.6217Z" fill="#000072"/>
</g>
<path d="M59.4664 98.989C57.9201 98.989 56.5958 98.9398 55.5303 98.8425C54.2294 98.724 53.0645 98.0353 52.3341 96.9527C51.6221 95.8974 51.4228 94.5991 51.7872 93.3911C52.6445 90.5493 55.1489 88 55.2551 87.8927L55.4896 87.6563H63.4431L63.6776 87.8927C63.7838 88 66.2882 90.5493 67.1455 93.3911C67.51 94.5991 67.3106 95.8974 66.5986 96.9527C65.8683 98.0353 64.7033 98.724 63.4024 98.8425C62.337 98.9397 61.0126 98.989 59.4664 98.989ZM56.1686 89.2542C55.5693 89.9128 53.9214 91.8494 53.3172 93.8526C53.0919 94.5991 53.2165 95.4034 53.6589 96.059C54.1195 96.7419 54.8545 97.1763 55.6755 97.2511C56.6931 97.3439 57.9685 97.3912 59.4665 97.3912C60.9644 97.3912 62.2398 97.3439 63.2575 97.2511C64.0784 97.1764 64.8135 96.7419 65.274 96.059C65.7165 95.4034 65.841 94.5991 65.6157 93.8526C65.0115 91.8496 63.3639 89.9131 62.7643 89.2542H56.1686Z" fill="#000072"/>
<path d="M59.4763 96.4494C53.8254 96.4494 52.204 95.2077 52.0378 95.0661L52.7779 94.1972C52.7827 94.2003 54.2633 95.3081 59.4763 95.3081C64.6894 95.3081 66.1701 94.2003 66.1844 94.1893L66.9149 95.0661C66.7487 95.2077 65.1274 96.4494 59.4763 96.4494Z" fill="#000072"/>
<path d="M49.2962 14.5081C49.2962 14.5081 43.5656 18.9202 36.4437 16.6834C36.4437 16.6834 36.4465 16.605 36.4521 16.4566C36.5026 15.1492 36.8273 8.40244 38.3978 2.29393C38.6021 1.49609 39.2992 1.00338 40.0327 0.98096C40.4134 0.966965 40.8025 1.07897 41.1413 1.3421C43.3193 3.03584 46.7543 6.76198 49.2962 14.5081Z" fill="#FFD578"/>
<path d="M40.528 17.4354C39.232 17.4354 37.8458 17.2551 36.4062 16.8028L36.3151 16.7744L36.327 16.4521C36.3769 15.1545 36.7056 8.37245 38.2764 2.26294C38.4854 1.44664 39.1897 0.881096 40.0289 0.855615C40.4589 0.843125 40.8716 0.973889 41.2183 1.24309C43.5808 3.08023 46.9206 6.86616 49.4154 14.469L49.4431 14.5534L49.3729 14.6076C49.3266 14.6431 45.6259 17.4354 40.528 17.4354ZM36.5727 16.5919C43.0841 18.5883 48.4725 14.9458 49.1487 14.4609C46.6767 6.97617 43.3901 3.24972 41.0643 1.44103C40.7649 1.20834 40.4085 1.09277 40.0373 1.10646C39.31 1.12853 38.7004 1.61834 38.5193 2.32518C36.9549 8.41022 36.6273 15.1685 36.5775 16.4617L36.5727 16.5919Z" fill="white"/>
<g opacity="0.3">
<path d="M49.2962 14.5081C49.2962 14.5081 43.5657 18.9202 36.4437 16.6834C36.4437 16.6834 36.4466 16.605 36.4522 16.4566C37.0465 14.9505 38.768 12.406 42.2479 10.4494C43.838 9.55545 44.3852 7.52952 43.4785 5.94669C42.6249 4.45665 41.4589 2.64856 40.0327 0.98096C40.4134 0.966965 40.8025 1.07897 41.1413 1.3421C43.3193 3.03584 46.7543 6.76198 49.2962 14.5081Z" fill="#000072"/>
</g>
<g opacity="0.7">
<path d="M38.6918 17.0165C38.7422 15.7092 39.0669 8.96237 40.6374 2.85386C40.776 2.31299 41.1429 1.91718 41.5922 1.70822C41.4369 1.57705 41.2861 1.45476 41.1413 1.34215C40.8026 1.07902 40.4135 0.967011 40.0327 0.981005C39.2992 1.00338 38.6022 1.49609 38.3978 2.29398C36.8273 8.40249 36.5025 15.1492 36.4522 16.4566C36.4466 16.605 36.4437 16.6834 36.4437 16.6834C37.2093 16.9239 37.9575 17.0835 38.6855 17.184C38.6869 17.1459 38.689 17.0899 38.6918 17.0165Z" fill="white"/>
</g>
<path d="M40.5813 18.3014C39.1948 18.3014 37.7054 18.1067 36.1493 17.6181C35.7314 17.4869 35.4513 17.0943 35.4634 16.6566C35.472 16.3421 35.6942 8.8772 37.4477 2.05061C37.6774 1.15641 38.3352 0.444654 39.2074 0.146356C40.0733 -0.149284 41.0215 0.00846845 41.744 0.569802C44.1983 2.47696 47.6624 6.39005 50.2281 14.2017C50.3578 14.5965 50.2242 15.0303 49.8947 15.2838C49.696 15.4368 45.8975 18.3014 40.5813 18.3014ZM37.4546 15.9512C42.4388 17.2 46.6455 15.0303 48.1295 14.1111C45.7502 7.2394 42.7077 3.80047 40.5415 2.11717C40.2549 1.89406 39.9563 1.96117 39.8413 2.0006C39.7235 2.04103 39.4393 2.174 39.3458 2.53795C37.9645 7.91564 37.5587 13.8774 37.4546 15.9512Z" fill="#000072"/>
<path d="M32.3649 23.2062C32.3649 23.2062 32.1942 22.4335 31.7462 21.2326C30.5928 18.1335 27.6002 12.1846 20.9822 9.3627C20.9822 9.3627 25.6966 8.02454 30.926 11.2888C30.926 11.2888 30.926 11.2888 30.926 11.2916C32.7625 12.4338 34.6605 14.1471 36.4438 16.6834C36.4438 16.6834 39.0893 21.9464 32.3649 23.2062Z" fill="#5D5C70"/>
<g opacity="0.3">
<path d="M32.3649 23.2062C32.3649 23.2062 32.1942 22.4335 31.7462 21.2326C32.9164 17.2741 32.0989 13.8195 30.926 11.2916C32.7625 12.4338 34.6605 14.1471 36.4438 16.6834C36.4438 16.6834 39.0893 21.9464 32.3649 23.2062Z" fill="#000072"/>
</g>
<path d="M32.3644 24.1856C31.9138 24.1856 31.51 23.8736 31.4089 23.418C31.3879 23.3247 29.1852 13.9257 20.5979 10.2639C20.2158 10.101 19.978 9.71507 20.0044 9.30065C20.0305 8.88624 20.3153 8.53331 20.7148 8.4199C21.0935 8.31261 30.0719 5.90652 37.2447 16.1202C37.2721 16.1591 37.2966 16.2003 37.3182 16.2429C37.3703 16.3467 38.5846 18.8121 37.4564 21.0906C36.6749 22.6691 35.0228 23.7048 32.5458 24.1687C32.4849 24.1802 32.4242 24.1856 32.3644 24.1856ZM24.4344 10.1152C30.0859 13.8691 32.3576 19.7408 33.0617 22.0391C34.3988 21.6605 35.2829 21.0543 35.6951 20.2314C36.3221 18.9799 35.7258 17.4814 35.5911 17.1755C31.7402 11.7344 27.3348 10.3518 24.4344 10.1152Z" fill="#000072"/>
<path d="M28.2833 27.2459C27.5694 26.5908 26.9227 25.9329 26.3348 25.275C19.1037 17.1901 20.9822 9.3627 20.9822 9.3627C29.7418 12.4954 32.1606 21.0869 32.1606 21.0869C33.4427 26.5292 28.2833 27.2459 28.2833 27.2459Z" fill="#FFAEBF"/>
<g opacity="0.3">
<path d="M28.2833 27.2459C27.5694 26.5908 26.9227 25.9329 26.3348 25.275C26.7925 24.4746 27.3984 23.4726 28.0341 22.5753C28.6701 21.6774 28.8382 20.535 28.4954 19.4894C27.7225 17.132 25.763 12.968 20.9822 9.3627C29.7418 12.4954 32.1606 21.0869 32.1606 21.0869C33.4427 26.5292 28.2833 27.2459 28.2833 27.2459Z" fill="#000072"/>
</g>
<path d="M28.2838 28.227C28.0397 28.227 27.8025 28.1357 27.6206 27.9684C17.8123 18.949 19.9343 9.53064 20.0294 9.13413C20.0943 8.86347 20.2712 8.63329 20.516 8.50076C20.7608 8.36874 21.0503 8.34672 21.3123 8.44002C30.4417 11.7068 32.9997 20.4513 33.104 20.8219C33.1079 20.8356 33.1115 20.8494 33.1147 20.863C33.5738 22.8136 33.3499 24.4693 32.4493 25.7839C31.0481 27.8297 28.5257 28.2028 28.4191 28.2175C28.3739 28.2238 28.3288 28.227 28.2838 28.227ZM21.7734 10.7335C21.5582 13.2985 21.83 19.7553 28.5739 26.1768C29.1594 26.0086 30.2123 25.592 30.8406 24.6649C31.4064 23.8302 31.5317 22.711 31.2132 21.3377C31.0918 20.9363 28.8579 13.8752 21.7734 10.7335Z" fill="#000072"/>
<path d="M69.6542 14.5082C69.6542 14.5082 75.3847 18.9202 82.5067 16.6834C82.5067 16.6834 82.5038 16.605 82.4983 16.4566C82.4479 15.1492 82.1231 8.40246 80.5526 2.29395C80.3482 1.49611 79.6512 1.0034 78.9177 0.980975C78.537 0.96698 78.1479 1.07898 77.8091 1.34212C75.6311 3.03585 72.1961 6.76199 69.6542 14.5082Z" fill="#FFD578"/>
<path d="M78.4224 17.4354C73.3239 17.4354 69.6238 14.6431 69.5776 14.6076L69.5073 14.5534L69.535 14.469C72.03 6.86647 75.3697 3.08049 77.7321 1.2431C78.0789 0.973942 78.4896 0.841171 78.9224 0.855617C79.7608 0.881098 80.4651 1.4466 80.674 2.26294C82.2448 8.37245 82.5735 15.1545 82.6235 16.4518L82.6354 16.7744L82.5443 16.8028C81.1051 17.2549 79.7181 17.4354 78.4224 17.4354ZM69.8017 14.4608C70.478 14.9458 75.8657 18.5877 82.3776 16.5919L82.3729 16.4613C82.323 15.1684 81.9955 8.41007 80.4311 2.32509C80.2501 1.61824 79.6404 1.12844 78.9139 1.10637C78.5398 1.09438 78.1856 1.20849 77.886 1.44093C75.5602 3.24993 72.2738 6.97637 69.8017 14.4608Z" fill="white"/>
<g opacity="0.3">
<path d="M69.6542 14.5081C69.6542 14.5081 75.3847 18.9202 82.5067 16.6834C82.5067 16.6834 82.5038 16.605 82.4983 16.4566C81.9039 14.9505 80.1825 12.406 76.7025 10.4494C75.1124 9.55545 74.5653 7.52952 75.472 5.94669C76.3255 4.45665 77.4915 2.64856 78.9177 0.98096C78.537 0.966965 78.1479 1.07897 77.8091 1.3421C75.6311 3.03584 72.1961 6.76198 69.6542 14.5081Z" fill="#000072"/>
</g>
<g opacity="0.7">
<path d="M80.2587 17.0165C80.2083 15.7092 79.8835 8.96238 78.313 2.85387C78.1745 2.313 77.8075 1.91719 77.3582 1.70823C77.5135 1.57706 77.6643 1.45478 77.8091 1.34217C78.1478 1.07903 78.5369 0.967026 78.9177 0.981021C79.6512 1.00344 80.3482 1.49611 80.5526 2.29399C82.1231 8.4025 82.4479 15.1492 82.4983 16.4566C82.5039 16.605 82.5066 16.6834 82.5066 16.6834C81.7411 16.9239 80.9929 17.0835 80.2649 17.1841C80.2635 17.1459 80.2614 17.0899 80.2587 17.0165Z" fill="white"/>
</g>
<path d="M78.3691 18.3015C73.0523 18.3015 69.2546 15.4369 69.0558 15.2838C68.7264 15.0303 68.5928 14.5966 68.7225 14.2018C71.288 6.3901 74.7522 2.47702 77.2066 0.569855C77.929 0.0082708 78.8775 -0.149227 79.7429 0.146412C80.6152 0.44471 81.273 1.15647 81.5027 2.05066C83.2561 8.87731 83.4785 16.3422 83.487 16.6566C83.499 17.0943 83.219 17.4869 82.8011 17.6182C81.2456 18.1065 79.7552 18.3015 78.3691 18.3015ZM70.8211 14.1111C72.3033 15.0294 76.5095 17.2015 81.4959 15.9512C81.3916 13.8775 80.9859 7.9157 79.6046 2.53801C79.5111 2.17405 79.2269 2.04108 79.1091 2.00065C78.9944 1.96173 78.6963 1.89411 78.4089 2.11722C76.2429 3.80027 73.2002 7.23945 70.8211 14.1111Z" fill="#000072"/>
<path d="M86.5855 23.2062C86.5855 23.2062 86.7563 22.4335 87.2042 21.2326C88.3575 18.1335 91.3502 12.1846 97.9682 9.3627C97.9682 9.3627 93.2539 8.02454 88.0244 11.2888C88.0244 11.2888 88.0244 11.2888 88.0244 11.2916C86.188 12.4338 84.2899 14.1471 82.5066 16.6834C82.5066 16.6834 79.8611 21.9464 86.5855 23.2062Z" fill="white"/>
<g opacity="0.3">
<path d="M86.5855 23.2062C86.5855 23.2062 86.7563 22.4335 87.2042 21.2326C86.034 17.2741 86.8515 13.8195 88.0244 11.2916C86.188 12.4338 84.2899 14.1471 82.5066 16.6834C82.5066 16.6834 79.8611 21.9464 86.5855 23.2062Z" fill="#000072"/>
</g>
<path d="M86.5856 24.1856C86.526 24.1856 86.4655 24.1802 86.4047 24.1687C83.9278 23.7048 82.2755 22.6691 81.494 21.0906C80.3659 18.8121 81.5801 16.3467 81.6322 16.2429C81.6538 16.2002 81.6783 16.1591 81.7057 16.1202C88.8787 5.90632 97.8568 8.31292 98.2356 8.41991C98.6351 8.53332 98.9198 8.88624 98.9461 9.30066C98.9724 9.71507 98.7346 10.101 98.3525 10.2639C89.7652 13.9257 87.5626 23.3247 87.5414 23.4192C87.4393 23.8736 87.0356 24.1856 86.5856 24.1856ZM83.3588 17.1763C83.2276 17.4741 82.6267 18.9767 83.2553 20.2314C83.6675 21.0543 84.5517 21.6605 85.8888 22.0391C86.5945 19.7357 88.8752 13.8419 94.5554 10.0891C91.6643 10.3029 87.2564 11.6683 83.3588 17.1763Z" fill="#000072"/>
<path d="M90.6671 27.2459C91.381 26.5908 92.0277 25.9329 92.6156 25.275C99.8467 17.1901 97.9682 9.3627 97.9682 9.3627C89.2086 12.4954 86.7898 21.0869 86.7898 21.0869C85.5077 26.5292 90.6671 27.2459 90.6671 27.2459Z" fill="#FFAEBF"/>
<g opacity="0.3">
<path d="M90.6671 27.2459C91.381 26.5908 92.0277 25.9329 92.6156 25.275C92.1579 24.4746 91.552 23.4726 90.9163 22.5753C90.2803 21.6774 90.1122 20.535 90.455 19.4894C91.2279 17.132 93.1874 12.968 97.9682 9.3627C89.2086 12.4954 86.7898 21.0869 86.7898 21.0869C85.5077 26.5292 90.6671 27.2459 90.6671 27.2459Z" fill="#000072"/>
</g>
<path d="M90.6666 28.227C90.6217 28.227 90.5765 28.2238 90.5313 28.2175C90.4246 28.2028 87.9023 27.8298 86.5011 25.7842C85.6004 24.4692 85.3766 22.8135 85.8356 20.863C85.8388 20.8494 85.8424 20.8356 85.8463 20.8219C85.9506 20.4513 88.5087 11.7068 97.638 8.44002C97.9001 8.34622 98.1894 8.36849 98.4343 8.50076C98.6791 8.63328 98.856 8.86347 98.9209 9.13413C99.016 9.53064 101.138 18.949 91.3297 27.9684C91.1479 28.1357 90.9107 28.227 90.6666 28.227ZM87.7372 21.3377C87.4173 22.7173 87.5452 23.8408 88.1178 24.6767C88.7469 25.5951 89.7935 26.009 90.3765 26.1768C97.1194 19.7562 97.3922 13.3009 97.1768 10.7337C90.0923 13.8752 87.8586 20.9363 87.7372 21.3377Z" fill="#000072"/>
<path d="M95.5719 57.1584H23.3813C23.3813 57.1584 21.4273 39.7596 28.9663 25.9385C28.9691 25.9329 28.9691 25.9301 28.9691 25.9301C33.9298 16.8317 43.0114 9.28706 59.4752 9.28706C60.4187 9.28706 61.3369 9.31229 62.2327 9.36265C79.4888 10.2921 87.9713 20.0035 92.0781 30.4317C97.134 43.2533 95.5719 57.1584 95.5719 57.1584Z" fill="white"/>
<path d="M92.0781 30.4317C89.3402 31.7475 86.272 32.4837 83.0302 32.4837C71.4795 32.4837 62.1152 23.1194 62.1152 11.5687C62.1152 10.824 62.1543 10.0878 62.2327 9.3627C79.4888 10.2921 87.9713 20.0036 92.0781 30.4317Z" fill="#5D5C70"/>
<g opacity="0.3">
<path d="M89.9617 25.9385C90.0293 26.2463 92.9713 33.6136 93.2782 46.2123C93.3277 48.2456 91.3299 49.7028 89.4173 49.011C85.0233 47.4215 76.1705 45.4174 59.464 45.4174C42.7575 45.4174 33.9047 47.4215 29.5107 49.011C27.5981 49.7028 25.6003 48.2456 25.6498 46.2123C25.9567 33.6136 28.8987 26.2463 28.9663 25.9385C21.4272 39.7596 23.3813 57.1584 23.3813 57.1584H59.4639H95.5466C95.5467 57.1584 97.5007 39.7596 89.9617 25.9385Z" fill="#000072"/>
</g>
<path d="M96.4474 58.1394H22.5058L22.4081 57.2688C22.3808 57.0255 21.749 51.2191 22.6687 43.5846C23.5217 36.5028 25.9392 26.4942 32.6112 19.031C38.9717 11.9161 48.0105 8.30844 59.4765 8.30844C70.9425 8.30844 79.9814 11.9161 86.3419 19.031C93.014 26.4942 95.4315 36.5028 96.2845 43.5846C97.2042 51.219 96.5724 57.0255 96.5451 57.2688L96.4474 58.1394ZM24.2823 56.1796H94.6709C94.9769 51.8512 95.6756 32.4044 84.8748 20.3301C78.9023 13.6536 70.3571 10.2683 59.4765 10.2683C48.5959 10.2683 40.0507 13.6536 34.0783 20.3301C23.2775 32.4041 23.9763 51.8512 24.2823 56.1796Z" fill="#000072"/>
<path d="M42.5479 49.4958C45.9755 49.4958 48.7542 46.0673 48.7542 41.8381C48.7542 37.6088 45.9755 34.1803 42.5479 34.1803C39.1202 34.1803 36.3416 37.6088 36.3416 41.8381C36.3416 46.0673 39.1202 49.4958 42.5479 49.4958Z" fill="#000072"/>
<path d="M44.088 42.9229C45.2504 42.9229 46.1927 41.9806 46.1927 40.8182C46.1927 39.6558 45.2504 38.7135 44.088 38.7135C42.9256 38.7135 41.9833 39.6558 41.9833 40.8182C41.9833 41.9806 42.9256 42.9229 44.088 42.9229Z" fill="white"/>
<path d="M76.4055 49.4958C79.8331 49.4958 82.6118 46.0673 82.6118 41.8381C82.6118 37.6088 79.8331 34.1803 76.4055 34.1803C72.9778 34.1803 70.1991 37.6088 70.1991 41.8381C70.1991 46.0673 72.9778 49.4958 76.4055 49.4958Z" fill="#000072"/>
<path d="M74.8653 42.9229C76.0277 42.9229 76.97 41.9806 76.97 40.8182C76.97 39.6558 76.0277 38.7135 74.8653 38.7135C73.7029 38.7135 72.7606 39.6558 72.7606 40.8182C72.7606 41.9806 73.7029 42.9229 74.8653 42.9229Z" fill="white"/>
<path d="M59.5001 88.5568C94.3989 88.5568 100.983 76.5942 100.257 66.3987C99.6536 57.928 93.6577 50.822 85.4802 48.5316C85.3501 48.4952 85.2202 48.4591 85.0903 48.4232C68.6865 43.8972 51.371 43.8081 34.9179 48.1515C34.4517 48.2746 33.9855 48.4012 33.5199 48.5316C25.3425 50.822 19.3466 57.928 18.7433 66.3987C18.0172 76.5942 24.6013 88.5568 59.5001 88.5568Z" fill="#FFAEBF"/>
<g opacity="0.3">
<path d="M100.201 65.7881C99.1819 75.0554 90.543 84.5206 59.5001 84.5206C28.4571 84.5206 19.8183 75.0554 18.7992 65.7881C18.7784 65.991 18.7579 66.1941 18.7434 66.3987C18.0173 76.5942 24.6013 88.5567 59.5001 88.5567C94.399 88.5567 100.983 76.5942 100.257 66.3987C100.242 66.1941 100.222 65.991 100.201 65.7881Z" fill="#000072"/>
</g>
<g opacity="0.3">
<path d="M43.0988 55.4702C44.1279 55.4702 44.9621 54.6359 44.9621 53.6068C44.9621 52.5778 44.1279 51.7435 43.0988 51.7435C42.0697 51.7435 41.2355 52.5778 41.2355 53.6068C41.2355 54.6359 42.0697 55.4702 43.0988 55.4702Z" fill="#000072"/>
</g>
<g opacity="0.3">
<path d="M75.9013 55.4702C76.9304 55.4702 77.7647 54.6359 77.7647 53.6068C77.7647 52.5778 76.9304 51.7435 75.9013 51.7435C74.8722 51.7435 74.038 52.5778 74.038 53.6068C74.038 54.6359 74.8722 55.4702 75.9013 55.4702Z" fill="#000072"/>
</g>
<g opacity="0.3">
<path d="M45.119 79.5008C45.119 79.5008 49.5189 81.0817 52.4066 74.9747C52.4066 74.9747 49.8996 74.1278 47.7319 73.1767C47.7319 73.1767 48.0317 76.8552 45.119 79.5008Z" fill="#000072"/>
</g>
<g opacity="0.3">
<path d="M73.8811 79.5008C73.8811 79.5008 69.4812 81.0817 66.5935 74.9747C66.5935 74.9747 69.1005 74.1278 71.2682 73.1767C71.2682 73.1767 70.9685 76.8552 73.8811 79.5008Z" fill="#000072"/>
</g>
<g opacity="0.7">
<path d="M100.257 66.3987C99.6535 57.928 93.6576 50.822 85.4801 48.5316C85.3501 48.4952 85.2202 48.4591 85.0903 48.4233C68.6864 43.8973 51.3709 43.8081 34.9178 48.1515C34.4517 48.2746 33.9854 48.4012 33.5199 48.5317C25.3424 50.822 19.3465 57.928 18.7432 66.3988C18.6821 67.2573 18.6744 68.1285 18.7295 69.0039C18.7341 68.927 18.7378 68.8498 18.7432 68.773C19.3465 60.3023 25.3424 53.1963 33.5199 50.9059C33.9854 50.7755 34.4517 50.6488 34.9178 50.5258C37.4972 49.8448 40.0979 49.2731 42.7128 48.8101C43.1026 49.9153 46.7359 50.4811 51.0767 50.0789C55.3633 49.6817 58.7983 48.4835 59.0569 47.3384C67.815 47.2974 76.5755 48.4483 85.0903 50.7976C85.2202 50.8334 85.3501 50.8695 85.4801 50.9059C93.6576 53.1963 99.6535 60.3023 100.257 68.773C100.262 68.8498 100.266 68.927 100.271 69.0039C100.326 68.1284 100.318 67.2573 100.257 66.3987Z" fill="white"/>
</g>
<path d="M43.0839 54.7876C43.9901 54.7876 44.7247 54.053 44.7247 53.1468C44.7247 52.2407 43.9901 51.5061 43.0839 51.5061C42.1778 51.5061 41.4432 52.2407 41.4432 53.1468C41.4432 54.053 42.1778 54.7876 43.0839 54.7876Z" fill="#000072"/>
<path d="M75.9162 54.7876C76.8224 54.7876 77.5569 54.053 77.5569 53.1468C77.5569 52.2407 76.8224 51.5061 75.9162 51.5061C75.01 51.5061 74.2754 52.2407 74.2754 53.1468C74.2754 54.053 75.01 54.7876 75.9162 54.7876Z" fill="#000072"/>
<path d="M46.6378 67.4192C47.1968 67.769 47.574 68.2338 47.8818 68.7313C48.1824 69.2321 48.3905 69.7767 48.5287 70.3393C48.6675 70.9025 48.709 71.4873 48.7214 72.0699C48.7352 72.6531 48.7158 73.2371 48.6848 73.8241C48.611 74.9896 48.4396 76.2077 47.9019 77.2939C47.6318 77.8307 47.3082 78.3454 46.8786 78.766C46.4507 79.1866 45.9072 79.5042 45.2362 79.6144C45.1256 79.6326 45.0212 79.5577 45.0029 79.447C45.0002 79.4305 44.9996 79.4142 45.0008 79.3982L45.0018 79.387C45.0584 78.7097 45.228 78.2204 45.3934 77.745C45.4875 77.5158 45.5799 77.2931 45.6791 77.0759C45.7299 76.9681 45.7672 76.8539 45.8151 76.7457C45.863 76.6375 45.9085 76.5285 45.9488 76.4173C46.2929 75.5463 46.6342 74.6466 46.7186 73.6728C46.7719 73.1901 46.7562 72.6978 46.6906 72.2107C46.6272 71.7228 46.5226 71.2424 46.452 70.7533C46.3144 69.7669 46.1843 68.7886 46.3476 67.5686L46.3494 67.5548C46.3633 67.4509 46.4587 67.3781 46.5626 67.392C46.5898 67.3957 46.6158 67.4056 46.6378 67.4192Z" fill="#000072"/>
<path d="M72.6527 67.5687C72.816 68.7887 72.6858 69.767 72.5483 70.7534C72.4776 71.2425 72.373 71.7229 72.3096 72.2108C72.2441 72.6978 72.2284 73.1902 72.2816 73.6729C72.366 74.6466 72.7073 75.5464 73.0514 76.4174C73.0917 76.5286 73.1372 76.6375 73.1851 76.7458C73.2331 76.854 73.2704 76.9682 73.3211 77.076C73.4203 77.2932 73.5127 77.5159 73.6068 77.7451C73.7722 78.2204 73.9418 78.7098 73.9984 79.3871L73.9993 79.3973C74.0086 79.509 73.9256 79.6072 73.8138 79.6165C73.7971 79.6179 73.7797 79.617 73.7639 79.6145C73.093 79.5043 72.5494 79.1867 72.1216 78.7661C71.6921 78.3455 71.3684 77.8308 71.0983 77.294C70.5606 76.2078 70.3892 74.9897 70.3154 73.8242C70.2843 73.2372 70.265 72.6532 70.2788 72.07C70.2912 71.4874 70.3326 70.9026 70.4715 70.3394C70.6097 69.7768 70.8178 69.2322 71.1184 68.7313C71.4262 68.2339 71.8034 67.769 72.3623 67.4193C72.4511 67.3638 72.5681 67.3907 72.6237 67.4795C72.6383 67.5029 72.6472 67.5283 72.6508 67.554L72.6527 67.5687Z" fill="#000072"/>
<path d="M59.5 76.8177C51.9686 76.8177 47.4124 74.0944 47.2221 73.9784C46.76 73.697 46.6136 73.094 46.8951 72.6318C47.1765 72.1699 47.7794 72.0227 48.2417 72.3051C48.2822 72.3293 52.5536 74.8579 59.5 74.8579C66.4465 74.8579 70.7178 72.3293 70.7602 72.3039C71.2231 72.0247 71.8251 72.1726 72.1051 72.6342C72.3852 73.0964 72.2394 73.6974 71.778 73.9784C71.5877 74.0944 67.0315 76.8177 59.5 76.8177Z" fill="#000072"/>
<path d="M59.5001 89.5368C40.9645 89.5368 28.4141 86.1523 22.1974 79.4772C18.8887 75.9245 17.3978 71.5008 17.766 66.329C18.392 57.5391 24.6168 50.0076 33.2557 47.5881C33.726 47.4563 34.1967 47.3284 34.6676 47.204C51.2797 42.8185 68.8057 42.9138 85.3509 47.4789L85.7432 47.5876C94.3833 50.0077 100.608 57.5391 101.234 66.3291C101.602 71.5008 100.111 75.9245 96.8026 79.4773C90.586 86.1523 78.0357 89.5368 59.5001 89.5368ZM59.5061 45.9432C51.3238 45.9432 43.1389 46.9947 35.168 49.0988C34.7067 49.2208 34.245 49.3462 33.7839 49.4752C25.9398 51.6721 20.2881 58.5012 19.7207 66.4682C19.3926 71.0754 20.7083 75.0028 23.6316 78.1417C29.4625 84.4025 41.5304 87.5769 59.5001 87.5769C77.4698 87.5769 89.5377 84.4025 95.3685 78.1417C98.2918 75.0028 99.6075 71.0753 99.2794 66.4682C98.7121 58.5012 93.0603 51.6721 85.2159 49.475L84.8303 49.3679C76.5571 47.0853 68.033 45.9432 59.5061 45.9432Z" fill="#000072"/>
<path d="M59.5 75.8377C64.8336 75.8377 68.1378 74.4896 68.1378 74.4896C68.1378 74.4896 71.7782 92.6015 59.5 92.6015C47.2219 92.6015 50.8623 74.4896 50.8623 74.4896C50.8623 74.4896 54.1665 75.8377 59.5 75.8377Z" fill="#FF5C9E"/>
<g opacity="0.3">
<path d="M59.5 89.5149C52.5018 89.5149 50.6759 83.6313 50.3989 78.5707C50.1285 83.912 50.995 92.6014 59.5 92.6014C68.0051 92.6014 68.8716 83.912 68.6012 78.5707C68.3242 83.6313 66.4983 89.5149 59.5 89.5149Z" fill="#000072"/>
</g>
<g opacity="0.3">
<path d="M50.8623 76.6265C50.8623 76.6265 54.1665 77.9745 59.5001 77.9745C64.8336 77.9745 68.1378 76.6265 68.1378 76.6265C68.1378 76.6265 68.5293 78.5746 68.6225 81.193C68.7564 77.5719 68.1378 74.4896 68.1378 74.4896C68.1378 74.4896 64.8336 75.8377 59.5001 75.8377C54.1665 75.8377 50.8623 74.4896 50.8623 74.4896C50.8623 74.4896 50.2437 77.5719 50.3776 81.193C50.4708 78.5746 50.8623 76.6265 50.8623 76.6265Z" fill="#000072"/>
</g>
<path d="M59.5001 93.5814C56.3974 93.5814 53.9487 92.5124 52.2222 90.4041C47.8101 85.0171 49.8141 74.732 49.9017 74.2967L50.1352 73.1348L51.2324 73.5826C51.2624 73.5946 54.4505 74.8579 59.5001 74.8579C64.5497 74.8579 67.7378 73.5946 67.7694 73.5819L68.8642 73.14L69.0984 74.2968C69.186 74.732 71.19 85.0172 66.778 90.4041C65.0514 92.5124 62.6027 93.5814 59.5001 93.5814ZM51.647 75.7824C51.276 78.4729 50.6815 85.4339 53.7403 89.165C55.0955 90.818 56.9795 91.6216 59.5001 91.6216C62.0219 91.6216 63.9067 90.8173 65.2619 89.1624C68.3244 85.4232 67.7268 78.4699 67.354 75.7822C65.9068 76.2034 63.1679 76.8177 59.5001 76.8177C55.8332 76.8177 53.0944 76.2037 51.647 75.7824Z" fill="#000072"/>
<path d="M60.4799 75.8377C60.5735 76.6942 60.5948 77.5506 60.5976 78.407C60.603 79.2634 60.5705 80.1198 60.5202 80.9763C60.4708 81.8327 60.393 82.6891 60.2737 83.5455C60.148 84.4019 59.9987 85.2584 59.7459 86.1148C59.7058 86.2506 59.5632 86.3282 59.4274 86.2881C59.3415 86.2627 59.2784 86.1946 59.2541 86.1148C59.0013 85.2584 58.852 84.4019 58.7263 83.5455C58.6071 82.6891 58.5293 81.8327 58.4798 80.9763C58.4296 80.1198 58.3971 79.2634 58.4025 78.407C58.4053 77.5506 58.4266 76.6942 58.5202 75.8377C58.5793 75.2966 59.0659 74.9058 59.6071 74.965C60.0754 75.0161 60.4309 75.388 60.4799 75.8377Z" fill="#000072"/>
</svg>
