<svg width="200" height="200" viewBox="0 0 200 200" fill="none" xmlns="http://www.w3.org/2000/svg">
<path d="M103.18 197.661C156.652 197.661 200 153.413 200 98.8304C200 44.2479 156.652 0 103.18 0C49.7085 0 6.36095 44.2479 6.36095 98.8304C6.36095 153.413 49.7085 197.661 103.18 197.661Z" fill="#0BCBFF"/>
<mask id="mask0_11_1172" style="mask-type:luminance" maskUnits="userSpaceOnUse" x="6" y="0" width="194" height="198">
<path d="M103.18 197.661C156.652 197.661 200 153.413 200 98.8304C200 44.2479 156.652 0 103.18 0C49.7085 0 6.36095 44.2479 6.36095 98.8304C6.36095 153.413 49.7085 197.661 103.18 197.661Z" fill="white"/>
</mask>
<g mask="url(#mask0_11_1172)">
<path d="M38.5724 75.6092H-5.38657C-6.84658 75.6092 -7.61918 73.7797 -6.60999 72.68C-5.73908 71.731 -4.3758 71.3225 -2.75543 71.7339C-2.28668 67.9956 0.549463 65.1233 3.97964 65.1233C5.46141 65.1233 6.83523 65.6615 7.95414 66.5766C8.86785 61.3802 12.9158 57.4633 17.7716 57.4633C22.6339 57.4633 26.6841 61.3875 27.5935 66.5913C29.058 65.4781 30.8228 64.8297 32.7193 64.8297C36.8137 64.8297 40.2823 66.9104 41.4836 71.6583C41.9884 73.6533 40.552 75.6092 38.5724 75.6092Z" fill="white"/>
</g>
<mask id="mask1_11_1172" style="mask-type:luminance" maskUnits="userSpaceOnUse" x="6" y="0" width="194" height="198">
<path d="M103.18 197.661C156.652 197.661 200 153.413 200 98.8304C200 44.2479 156.652 0 103.18 0C49.7085 0 6.36095 44.2479 6.36095 98.8304C6.36095 153.413 49.7085 197.661 103.18 197.661Z" fill="white"/>
</mask>
<g mask="url(#mask1_11_1172)">
<path d="M163.966 90.7535H233.608C235.921 90.7535 237.145 87.8551 235.546 86.113C234.167 84.6095 232.007 83.9623 229.44 84.6141C228.697 78.6917 224.204 74.1415 218.77 74.1415C216.422 74.1415 214.246 74.9941 212.473 76.4437C211.026 68.2114 204.613 62.006 196.92 62.006C189.217 62.006 182.8 68.223 181.36 76.467C179.039 74.7035 176.244 73.6764 173.239 73.6764C166.752 73.6764 161.257 76.9726 159.354 84.4944C158.555 87.655 160.83 90.7535 163.966 90.7535Z" fill="white"/>
</g>
<path d="M17.1234 146.823C17.1234 146.823 25.0303 142.525 34.5765 151.974C44.1226 161.424 80.6498 225.796 139.864 186.031C139.864 186.031 174.716 167.132 177.544 151.778C177.544 151.778 155.904 108.37 89.3585 115.605C22.8126 122.84 17.1234 146.823 17.1234 146.823Z" fill="#FF004F"/>
<g opacity="0.3">
<path d="M34.5769 147.381C44.1231 156.83 80.6502 221.203 139.865 181.437C139.865 181.437 170.409 164.874 176.628 150.161C171.898 142.358 148.159 109.213 89.3589 115.605C42.963 120.649 26.1497 133.834 20.221 141.357C23.3873 140.951 28.6676 141.532 34.5769 147.381Z" fill="#000072"/>
</g>
<path d="M102.347 200C93.2284 200 84.2675 197.672 75.5073 193.011C58.5106 183.968 46.2731 168.35 38.9614 159.019C36.7636 156.214 35.0275 153.998 33.8042 152.788C24.9408 144.014 17.7171 147.784 17.6451 147.823C17.2596 148.033 16.7892 147.992 16.4437 147.718C16.0984 147.445 15.9425 146.99 16.0452 146.557C16.1073 146.295 17.6813 140.061 27.6537 132.997C40.735 123.73 61.456 117.499 89.2411 114.479C104.554 112.814 118.77 113.699 131.493 117.11C141.697 119.845 150.968 124.2 159.048 130.055C172.841 140.049 178.307 150.811 178.533 151.264C178.644 151.487 178.68 151.741 178.635 151.987C175.766 167.556 142.429 185.918 140.431 187.006C127.524 195.664 114.788 200 102.347 200ZM21.8575 144.696C25.2892 144.696 30.0947 145.96 35.349 151.161C36.6729 152.472 38.4476 154.737 40.6944 157.604C55.0848 175.969 88.785 218.977 139.255 185.084C139.284 185.065 139.314 185.047 139.344 185.031C139.685 184.846 173.16 166.538 176.376 151.955C175.335 150.061 169.715 140.531 157.66 131.827C145.3 122.903 123.437 113.038 89.4761 116.731C55.6096 120.413 38.011 128.509 29.2112 134.652C23.2202 138.834 20.4061 142.691 19.1446 144.97C19.9058 144.812 20.819 144.696 21.8575 144.696Z" fill="#000072"/>
<path d="M72.0286 117.557C72.0286 117.557 69.2987 118.151 64.8378 119.608C51.1852 124.064 21.309 136.582 3.72047 164.77C3.72047 164.77 -0.683419 155.357 2.01049 140.138C2.72751 136.071 3.95442 131.591 5.90739 126.765C5.90739 126.765 18.552 115.637 37.4756 112.617C45.0893 111.399 53.7171 111.493 62.9479 114.155C65.9178 115.009 68.9477 116.13 72.0286 117.557Z" fill="#FF004F"/>
<g opacity="0.3">
<path d="M64.8378 119.608C51.1852 124.064 21.309 136.582 3.72047 164.77C3.72047 164.77 -0.683418 155.357 2.01049 140.138L3.9591 145.379C4.67506 147.305 7.08788 147.855 8.53496 146.42C13.6144 141.381 24.8048 131.404 39.7439 124.646C42.8679 123.233 44.0304 119.316 42.1944 116.375C42.1944 116.375 39.3505 115.738 37.4756 112.617C45.0893 111.399 53.7171 111.493 62.9479 114.155L64.8378 119.608Z" fill="#000072"/>
</g>
<g opacity="0.7">
<path d="M62.9479 114.155C53.7171 111.493 45.0893 111.399 37.4756 112.617C18.552 115.637 5.90739 126.765 5.90739 126.765C3.95442 131.591 2.72751 136.071 2.01049 140.138C-0.683419 155.357 3.72047 164.77 3.72047 164.77C3.94941 164.403 4.18164 164.041 4.41467 163.679C3.32227 159.701 2.04893 152.233 3.81048 142.281C4.42667 138.786 5.41957 134.986 6.92626 130.923C7.42542 129.577 8.28439 128.399 9.41715 127.542C10.6349 126.62 12.481 125.311 14.8659 123.868C15.2358 123.644 15.6839 123.562 16.0959 123.688C17.3147 124.06 19.889 123.542 22.6305 122.279C25.4174 120.995 27.529 119.333 28.0196 118.149C28.1838 117.753 28.5261 117.461 28.9261 117.327C32.1036 116.257 35.5678 115.353 39.2756 114.761C46.8893 113.542 55.5171 113.637 64.7479 116.298C66.4739 116.795 68.2207 117.384 69.9855 118.069C71.2988 117.716 72.0286 117.557 72.0286 117.557C68.9477 116.13 65.9178 115.009 62.9479 114.155Z" fill="white"/>
</g>
<path d="M3.72047 165.903C3.69812 165.903 3.67557 165.902 3.65288 165.901C3.2504 165.876 2.89288 165.63 2.719 165.258C2.42168 164.622 -4.4574 149.42 4.88033 126.332C4.94666 126.168 5.04985 126.022 5.18153 125.906C5.49078 125.634 12.8919 119.193 24.9197 114.759C36.038 110.661 53.3157 107.64 72.4861 116.525C72.9222 116.727 73.1819 117.192 73.1305 117.678C73.079 118.164 72.7279 118.561 72.2596 118.664C72.1481 118.688 60.9414 121.184 47.058 128.182C34.2845 134.62 16.5594 146.299 4.65607 165.378C4.4516 165.706 4.09797 165.903 3.72047 165.903ZM6.82775 127.454C-0.0798206 144.725 2.53497 157.523 3.99867 162.27C16.1549 143.847 33.5143 132.474 46.1339 126.121C55.7925 121.259 64.1913 118.535 68.5709 117.29C51.2825 110.337 35.8216 113.148 25.6737 116.889C15.0855 120.793 8.07003 126.416 6.82775 127.454Z" fill="#000072"/>
<path d="M183.331 166.28C183.331 166.28 171.814 144.397 144.458 128.918C138.086 125.307 130.85 122.049 122.7 119.492C122.7 119.492 137.675 120.524 152.942 123.905C156.398 124.67 159.869 125.555 163.186 126.578C171.346 129.092 178.567 132.427 182.302 136.815C182.302 136.815 183.79 141.95 184.306 149.37C184.645 154.279 184.558 160.192 183.331 166.28Z" fill="#FF004F"/>
<g opacity="0.3">
<path d="M183.331 166.28C183.331 166.28 171.814 144.397 144.458 128.918C144.176 127.974 144.047 127.279 144.068 126.875C144.146 125.28 148.301 124.395 152.942 123.905C156.398 124.67 159.868 125.555 163.186 126.578C162.759 128.123 161.994 130.214 160.732 131.675C159.824 132.726 159.926 134.324 160.997 135.201C164.628 138.172 171.557 144.139 177.084 150.667C178.799 152.693 181.921 152.63 183.515 150.503C183.779 150.15 184.044 149.773 184.306 149.37C184.645 154.279 184.558 160.192 183.331 166.28Z" fill="#000072"/>
</g>
<g opacity="0.7">
<path d="M184.306 149.37C183.79 141.95 182.302 136.815 182.302 136.815C178.567 132.427 171.346 129.092 163.186 126.578C159.869 125.555 156.398 124.67 152.942 123.905C137.675 120.524 122.7 119.492 122.7 119.492C126.434 120.663 129.973 121.983 133.328 123.416C138.439 123.99 144.564 124.838 150.746 126.067C154.217 126.757 157.705 127.566 161.044 128.517C168.61 130.669 175.393 133.536 179.405 137.342C180.038 137.943 180.49 138.713 180.713 139.566C181.22 141.505 182.159 145.596 182.634 150.844C183.003 154.938 183.086 159.74 182.464 164.773C183.047 165.741 183.331 166.28 183.331 166.28C184.558 160.192 184.645 154.279 184.306 149.37Z" fill="white"/>
</g>
<path d="M183.33 167.412C182.926 167.412 182.548 167.186 182.353 166.816C182.309 166.733 177.903 158.474 168.338 148.69C159.523 139.675 144.394 127.478 122.374 120.576C121.835 120.407 121.506 119.853 121.609 119.287C121.711 118.722 122.215 118.319 122.774 118.363C124.739 118.498 171.019 121.839 183.139 136.073C183.243 136.195 183.32 136.339 183.365 136.495C183.536 137.085 187.523 151.118 184.417 166.508C184.322 166.974 183.952 167.331 183.49 167.4C183.437 167.408 183.383 167.412 183.33 167.412ZM131.748 121.54C149.572 128.768 162.186 139.179 169.972 147.156C176.559 153.905 180.698 159.846 182.751 163.107C184.574 150.477 181.768 139.127 181.301 137.372C172.752 127.675 145.989 123.251 131.748 121.54Z" fill="#000072"/>
<path d="M103.134 116.263C140.734 116.263 145.103 103.658 145.103 103.658C145.103 103.658 148.172 127.461 103.134 127.461C58.096 127.461 61.1648 103.658 61.1648 103.658C61.1648 103.658 65.5343 116.263 103.134 116.263Z" fill="#FF004F"/>
<g opacity="0.3">
<path d="M144.779 104.31C143.294 111.145 136.106 123.902 103.134 123.902C70.1616 123.902 62.9741 111.145 61.489 104.31C61.2485 103.898 61.1648 103.658 61.1648 103.658C61.1648 103.658 58.0961 127.461 103.134 127.461C148.172 127.461 145.103 103.658 145.103 103.658C145.103 103.658 145.02 103.898 144.779 104.31Z" fill="#000072"/>
</g>
<path d="M103.134 128.593C84.4485 128.593 71.5345 124.59 64.7507 116.694C59.2612 110.305 60.0292 103.785 60.0646 103.511L60.6679 98.8311L62.2105 103.281C62.2503 103.385 67.0903 115.13 103.134 115.13C139.177 115.13 144.017 103.385 144.062 103.267L145.628 99.1081L146.203 103.511C146.238 103.785 147.006 110.305 141.517 116.694C134.733 124.59 121.819 128.593 103.134 128.593ZM62.5281 107.369C62.9633 109.534 64.0108 112.418 66.4658 115.255C70.8382 120.307 80.7491 126.328 103.134 126.328C125.518 126.328 135.429 120.307 139.802 115.255C142.256 112.419 143.304 109.534 143.739 107.369C139.695 111.331 129.239 117.395 103.134 117.395C77.0284 117.395 66.573 111.331 62.5281 107.369Z" fill="#000072"/>
<path d="M107.48 135.793C109.881 133.342 109.881 129.368 107.48 126.917C105.078 124.466 101.185 124.466 98.7844 126.917C96.3833 129.368 96.3833 133.342 98.7844 135.793C101.185 138.244 105.078 138.244 107.48 135.793Z" fill="#FFD400"/>
<g opacity="0.3">
<path d="M103.134 135.043C100.174 135.043 97.7029 132.906 97.1183 130.061C97.0324 130.479 96.986 130.912 96.986 131.356C96.986 134.822 99.7388 137.632 103.134 137.632C106.53 137.632 109.283 134.822 109.283 131.356C109.283 130.912 109.236 130.479 109.151 130.061C108.566 132.906 106.095 135.043 103.134 135.043Z" fill="#000072"/>
</g>
<path d="M103.134 138.764C99.1321 138.764 95.8762 135.441 95.8762 131.356C95.8762 127.271 99.1321 123.947 103.134 123.947C107.136 123.947 110.392 127.271 110.392 131.356C110.392 135.441 107.136 138.764 103.134 138.764ZM103.134 126.212C100.356 126.212 98.0952 128.519 98.0952 131.356C98.0952 134.192 100.356 136.499 103.134 136.499C105.913 136.499 108.173 134.192 108.173 131.356C108.173 128.519 105.913 126.212 103.134 126.212Z" fill="#000072"/>
<path d="M108.5 131.154C107.219 131.27 105.485 131.354 103.133 131.354C100.781 131.354 99.047 131.27 97.7695 131.154C94.7421 130.872 92.6562 127.85 93.5312 124.879C94.0669 123.061 95.132 121.307 96.0957 119.974C97.1418 118.514 98.0738 117.557 98.0738 117.557H108.193C108.193 117.557 109.137 118.527 110.193 120.003C111.15 121.333 112.203 123.074 112.735 124.879C113.613 127.85 111.524 130.872 108.5 131.154Z" fill="#FFD400"/>
<g opacity="0.3">
<path d="M112.735 124.88C112.458 123.944 112.043 123.026 111.574 122.172C111.925 124.542 110.202 126.794 107.78 127.02C106.673 127.123 105.171 127.195 103.134 127.195C101.097 127.195 99.5945 127.123 98.4877 127.02C96.0663 126.794 94.3431 124.542 94.6943 122.172C94.2252 123.026 93.8094 123.944 93.5328 124.88C92.6553 127.849 94.7434 130.871 97.769 131.153C99.0471 131.271 100.782 131.356 103.134 131.356C105.486 131.356 107.221 131.271 108.499 131.153C111.524 130.871 113.613 127.849 112.735 124.88Z" fill="#000072"/>
</g>
<path d="M103.134 132.488C100.992 132.488 99.1535 132.418 97.6685 132.281C95.8616 132.112 94.2439 131.136 93.2297 129.601C92.2413 128.105 91.9644 126.265 92.4705 124.553C93.6609 120.525 97.1386 116.911 97.2861 116.76L97.6116 116.424H108.656L108.982 116.76C109.129 116.911 112.607 120.525 113.797 124.553C114.303 126.265 114.027 128.105 113.038 129.601C112.024 131.136 110.406 132.112 108.6 132.281C107.114 132.418 105.275 132.488 103.134 132.488ZM98.5545 118.69C97.7223 119.623 95.4341 122.368 94.5948 125.207C94.2822 126.265 94.4551 127.405 95.0694 128.334C95.709 129.303 96.7297 129.919 97.8696 130.025C99.2879 130.156 101.059 130.223 103.134 130.223C105.209 130.223 106.98 130.156 108.398 130.025C109.538 129.919 110.559 129.303 111.198 128.334C111.813 127.405 111.986 126.265 111.673 125.207C110.831 122.358 108.546 119.621 107.714 118.69H98.5545Z" fill="#000072"/>
<path d="M103.148 128.888C95.3009 128.888 93.0493 127.128 92.8185 126.928L93.8462 125.696C93.8528 125.7 95.909 127.271 103.148 127.271C110.434 127.271 112.432 125.711 112.45 125.696L113.477 126.928C113.247 127.128 110.995 128.888 103.148 128.888Z" fill="#000072"/>
<path d="M91.6199 37.0771C91.6199 37.0771 85.1308 42.1768 77.0663 39.5913C77.0663 39.5913 77.0695 39.5008 77.0758 39.3293C77.1328 37.8181 77.5006 30.0196 79.279 22.9589C79.5104 22.0368 80.2997 21.4672 81.1303 21.4414C81.5614 21.4252 82.0021 21.5546 82.3856 21.8588C84.8519 23.8165 88.7415 28.1234 91.6199 37.0771Z" fill="#FFD578"/>
<path d="M81.691 40.4841C80.2213 40.4841 78.6496 40.2753 77.0172 39.7519L76.8972 39.7134L76.9114 39.323C76.9681 37.8219 77.3414 29.9774 79.1196 22.917C79.359 21.9636 80.165 21.303 81.1256 21.2731C81.6179 21.2577 82.0899 21.4111 82.487 21.7258C85.1647 23.8515 88.9498 28.231 91.7768 37.0247L91.8132 37.1378L91.7208 37.2104C91.6685 37.2514 87.4718 40.4841 81.691 40.4841ZM77.236 39.4687C84.5516 41.7486 90.6075 37.6095 91.4261 37.0135C88.6293 28.3782 84.9144 24.0789 82.2847 21.9915C81.9497 21.7259 81.5534 21.5945 81.1367 21.6094C80.3233 21.6347 79.6415 22.1938 79.439 23.0006C77.6691 30.028 77.2974 37.8409 77.2408 39.3358L77.236 39.4687Z" fill="white"/>
<g opacity="0.3">
<path d="M91.62 37.0771C91.62 37.0771 85.131 42.1768 77.0664 39.5913C77.0664 39.5913 77.0696 39.5008 77.0759 39.3293C77.7489 37.5885 79.6982 34.6472 83.6388 32.3857C85.4394 31.3524 86.0589 29.0107 85.0322 27.1811C84.0657 25.4588 82.7453 23.3689 81.1303 21.4414C81.5614 21.4252 82.0021 21.5546 82.3857 21.8588C84.852 23.8165 88.7416 28.1234 91.62 37.0771Z" fill="#000072"/>
</g>
<g opacity="0.7">
<path d="M79.6119 39.9764C79.669 38.4653 80.0367 30.6668 81.8151 23.6061C81.972 22.9809 82.3876 22.5234 82.8962 22.2819C82.7204 22.1303 82.5497 21.9889 82.3857 21.8587C82.0022 21.5546 81.5615 21.4251 81.1304 21.4413C80.2999 21.4672 79.5105 22.0367 79.2791 22.9589C77.5007 30.0195 77.133 37.818 77.0759 39.3292C77.0696 39.5007 77.0664 39.5913 77.0664 39.5913C77.9333 39.8692 78.7805 40.0537 79.6049 40.17C79.6064 40.126 79.6088 40.0612 79.6119 39.9764Z" fill="white"/>
</g>
<path d="M81.7511 41.4617C80.1811 41.4617 78.4946 41.2366 76.7328 40.672C76.2595 40.5203 75.9424 40.0664 75.9559 39.5603C75.9657 39.197 76.2175 30.5684 78.2031 22.6776C78.4632 21.6438 79.2082 20.821 80.1961 20.4764C81.1763 20.1348 82.2502 20.3172 83.068 20.9661C85.8472 23.1705 89.7698 27.6935 92.675 36.7227C92.8218 37.1792 92.6706 37.6805 92.2976 37.9737C92.0725 38.1505 87.771 41.4617 81.7511 41.4617ZM78.2108 38.745C83.8546 40.1898 88.618 37.6805 90.2986 36.618C87.6044 28.6751 84.1592 24.7002 81.7063 22.7546C81.381 22.4966 81.0434 22.5741 80.9137 22.6197C80.7802 22.6664 80.4582 22.8202 80.3521 23.2412C78.7882 29.457 78.3287 36.3482 78.2108 38.745Z" fill="#000072"/>
<path d="M72.4476 47.1309C72.4476 47.1309 72.2542 46.2378 71.747 44.8497C70.441 41.2675 67.0522 34.3914 59.5583 31.1295C59.5583 31.1295 64.8966 29.5828 70.8182 33.3558C70.8182 33.3558 70.8182 33.3558 70.8182 33.359C72.8978 34.6793 75.0471 36.6596 77.0664 39.5914C77.0664 39.5914 80.0621 45.6748 72.4476 47.1309Z" fill="#5D5C70"/>
<g opacity="0.3">
<path d="M72.4479 47.1309C72.4479 47.1309 72.2545 46.2378 71.7473 44.8497C73.0724 40.2741 72.1467 36.281 70.8185 33.359C72.8981 34.6793 75.0473 36.6596 77.0666 39.5914C77.0666 39.5914 80.0623 45.6748 72.4479 47.1309Z" fill="#000072"/>
</g>
<path d="M72.4468 48.2632C71.9365 48.2632 71.4793 47.9023 71.3648 47.376C71.341 47.2682 68.8471 36.4038 59.1231 32.1714C58.6906 31.9831 58.4212 31.5369 58.451 31.0579C58.4808 30.5789 58.8031 30.1711 59.2555 30.0399C59.6843 29.9158 69.851 27.1346 77.9731 38.9404C78.0041 38.9856 78.032 39.033 78.0563 39.0822C78.1154 39.2024 79.4903 42.0518 78.2131 44.6854C77.328 46.5101 75.4572 47.7072 72.6523 48.2436C72.5834 48.2567 72.5146 48.2632 72.4468 48.2632ZM63.423 31.9693C69.8549 36.3071 72.4373 43.1194 73.2364 45.782C74.7507 45.3444 75.7518 44.6437 76.2185 43.6924C76.9285 42.2457 76.2533 40.514 76.1007 40.1606C71.6878 33.7944 66.6967 32.2166 63.423 31.9693Z" fill="#000072"/>
<path d="M67.8255 51.8003C67.0172 51.0431 66.2849 50.2827 65.6191 49.5222C57.431 40.1771 59.558 31.1295 59.558 31.1295C69.4771 34.7505 72.2159 44.6814 72.2159 44.6814C73.6678 50.9719 67.8255 51.8003 67.8255 51.8003Z" fill="#FF8DC1"/>
<g opacity="0.3">
<path d="M67.8256 51.8003C67.0173 51.0431 66.285 50.2827 65.6193 49.5222C66.1375 48.597 66.8236 47.4389 67.5435 46.4016C68.2637 45.3638 68.454 44.0433 68.0659 42.8348C67.1907 40.1099 64.9718 35.2968 59.5582 31.1295C69.4772 34.7505 72.2161 44.6814 72.2161 44.6814C73.668 50.9719 67.8256 51.8003 67.8256 51.8003Z" fill="#000072"/>
</g>
<path d="M67.8262 52.9343C67.5498 52.9343 67.2812 52.8289 67.0752 52.6354C55.9687 42.2102 58.3717 31.3236 58.4794 30.8653C58.553 30.5526 58.7532 30.2864 59.0304 30.1334C59.3075 29.9804 59.6352 29.9546 59.9321 30.0632C70.2697 33.8389 73.1663 43.9466 73.2846 44.375C73.289 44.3907 73.293 44.4067 73.2967 44.4227C73.8165 46.6771 73.5629 48.5908 72.5431 50.1106C70.9565 52.4751 68.1002 52.9061 67.9795 52.9234C67.9282 52.9306 67.877 52.9343 67.8262 52.9343ZM60.4541 32.7141C60.2104 35.6789 60.518 43.1423 68.1545 50.5645C68.8176 50.3701 70.0098 49.8885 70.7216 48.8169C71.3621 47.8523 71.5039 46.5584 71.1433 44.9712C71.0058 44.5071 68.4764 36.3454 60.4541 32.7141Z" fill="#000072"/>
<path d="M114.672 37.0771C114.672 37.0771 121.161 42.1768 129.226 39.5914C129.226 39.5914 129.223 39.5008 129.216 39.3293C129.159 37.8181 128.792 30.0196 127.013 22.959C126.782 22.0368 125.992 21.4672 125.162 21.4414C124.731 21.4252 124.29 21.5546 123.906 21.8588C121.44 23.8165 117.551 28.1234 114.672 37.0771Z" fill="#FFD578"/>
<path d="M124.602 40.4841C118.82 40.4841 114.624 37.2515 114.572 37.2104L114.479 37.1378L114.516 37.0247C117.343 28.231 121.128 23.8515 123.805 21.7259C124.203 21.4109 124.674 21.2557 125.168 21.2732C126.128 21.303 126.934 21.9637 127.173 22.9172C128.951 29.9774 129.325 37.8218 129.381 39.3227L129.395 39.7135L129.275 39.7519C127.643 40.2751 126.071 40.4841 124.602 40.4841ZM114.866 37.0135C115.685 37.6095 121.742 41.7474 129.057 39.4687L129.052 39.3355C128.995 37.8409 128.624 30.028 126.854 23.0008C126.651 22.1937 125.969 21.6347 125.157 21.6096C124.744 21.591 124.343 21.7257 124.008 21.9916C121.378 24.079 117.663 28.3782 114.866 37.0135Z" fill="white"/>
<g opacity="0.3">
<path d="M114.673 37.0771C114.673 37.0771 121.162 42.1768 129.226 39.5913C129.226 39.5913 129.223 39.5008 129.217 39.3293C128.544 37.5885 126.594 34.6472 122.654 32.3857C120.853 31.3524 120.234 29.0107 121.261 27.1811C122.227 25.4588 123.547 23.3689 125.162 21.4414C124.731 21.4252 124.291 21.5546 123.907 21.8588C121.441 23.8165 117.551 28.1234 114.673 37.0771Z" fill="#000072"/>
</g>
<g opacity="0.7">
<path d="M126.68 39.9764C126.623 38.4653 126.255 30.6668 124.477 23.6061C124.32 22.9809 123.904 22.5234 123.396 22.2819C123.572 22.1303 123.742 21.9889 123.906 21.8587C124.29 21.5546 124.73 21.4251 125.162 21.4413C125.992 21.4672 126.781 22.0367 127.013 22.9589C128.791 30.0195 129.159 37.818 129.216 39.3292C129.222 39.5007 129.226 39.5913 129.226 39.5913C128.359 39.8692 127.512 40.0537 126.687 40.17C126.686 40.126 126.683 40.0612 126.68 39.9764Z" fill="white"/>
</g>
<path d="M124.541 41.4617C118.52 41.4617 114.219 38.1506 113.994 37.9737C113.621 37.6806 113.47 37.1792 113.617 36.7227C116.522 27.6934 120.445 23.1704 123.224 20.9662C124.042 20.3174 125.115 20.1348 126.096 20.4765C127.084 20.8212 127.829 21.644 128.089 22.6778C130.074 30.5684 130.326 39.197 130.336 39.5603C130.349 40.0665 130.032 40.5203 129.559 40.672C127.798 41.2364 126.11 41.4617 124.541 41.4617ZM115.993 36.6182C117.671 37.6794 122.435 40.1908 128.081 38.745C127.963 36.3482 127.504 29.457 125.939 23.2412C125.834 22.8202 125.512 22.6664 125.378 22.6197C125.248 22.5742 124.91 22.4968 124.585 22.7546C122.133 24.7001 118.687 28.6751 115.993 36.6182Z" fill="#000072"/>
<path d="M133.844 47.1309C133.844 47.1309 134.038 46.2378 134.545 44.8497C135.851 41.2675 139.24 34.3914 146.734 31.1295C146.734 31.1295 141.396 29.5828 135.474 33.3558C135.474 33.3558 135.474 33.3558 135.474 33.359C133.394 34.6793 131.245 36.6596 129.226 39.5914C129.226 39.5914 126.23 45.6748 133.844 47.1309Z" fill="white"/>
<g opacity="0.3">
<path d="M133.844 47.1309C133.844 47.1309 134.038 46.2378 134.545 44.8497C133.22 40.2741 134.146 36.281 135.474 33.359C133.394 34.6793 131.245 36.6596 129.226 39.5913C129.226 39.5913 126.23 45.6748 133.844 47.1309Z" fill="#000072"/>
</g>
<path d="M133.844 48.2632C133.777 48.2632 133.708 48.2568 133.64 48.2436C130.835 47.7072 128.964 46.5101 128.079 44.6856C126.802 42.0518 128.177 39.2024 128.236 39.0822C128.26 39.033 128.288 38.9856 128.319 38.9404C136.441 27.1349 146.608 29.9161 147.037 30.0399C147.489 30.171 147.811 30.5789 147.841 31.0579C147.871 31.5369 147.602 31.9831 147.169 32.1714C137.445 36.4038 134.951 47.2682 134.927 47.3775C134.811 47.9025 134.354 48.2632 133.844 48.2632ZM130.191 40.1612C130.042 40.5053 129.362 42.2421 130.073 43.6924C130.54 44.6436 131.541 45.3443 133.055 45.7819C133.855 43.1194 136.437 36.3069 142.869 31.9692C139.595 32.2166 134.604 33.7952 130.191 40.1612Z" fill="#000072"/>
<path d="M138.467 51.8003C139.275 51.0431 140.008 50.2827 140.673 49.5222C148.861 40.1771 146.734 31.1295 146.734 31.1295C136.815 34.7505 134.076 44.6814 134.076 44.6814C132.625 50.9719 138.467 51.8003 138.467 51.8003Z" fill="#FF8DC1"/>
<g opacity="0.3">
<path d="M138.467 51.8003C139.275 51.0431 140.007 50.2827 140.673 49.5222C140.155 48.597 139.469 47.4389 138.749 46.4016C138.029 45.3638 137.838 44.0433 138.227 42.8348C139.102 40.1099 141.321 35.2968 146.734 31.1295C136.815 34.7505 134.076 44.6814 134.076 44.6814C132.625 50.9719 138.467 51.8003 138.467 51.8003Z" fill="#000072"/>
</g>
<path d="M138.466 52.9343C138.415 52.9343 138.364 52.9306 138.313 52.9234C138.192 52.9062 135.336 52.4752 133.749 50.1106C132.729 48.5908 132.476 46.6771 132.996 44.4226C132.999 44.4067 133.003 44.3907 133.008 44.375C133.126 43.9466 136.023 33.8389 146.36 30.0632C146.657 29.9547 146.985 29.9804 147.262 30.1334C147.539 30.2864 147.739 30.5526 147.813 30.8653C147.921 31.3236 150.324 42.2102 139.217 52.6354C139.011 52.8288 138.742 52.9343 138.466 52.9343ZM135.149 44.9712C134.786 46.566 134.931 47.8643 135.58 48.8307C136.292 49.8921 137.477 50.3708 138.138 50.5645C145.773 43.1434 146.082 35.6816 145.838 32.7142C137.815 36.3456 135.286 44.5071 135.149 44.9712Z" fill="#000072"/>
<path d="M144.021 86.3756H62.275C62.275 86.3756 60.0623 66.2646 68.5993 50.2891C68.6024 50.2827 68.6024 50.2794 68.6024 50.2794C74.2197 39.7628 84.5033 31.0422 103.146 31.0422C104.215 31.0422 105.254 31.0713 106.269 31.1295C125.809 32.2038 135.414 43.4291 140.064 55.4827C145.789 70.303 144.021 86.3756 144.021 86.3756Z" fill="white"/>
<path d="M140.064 55.4827C136.964 57.0036 133.49 57.8546 129.819 57.8546C116.739 57.8546 106.135 47.0306 106.135 33.6794C106.135 32.8187 106.18 31.9676 106.269 31.1295C125.809 32.2038 135.414 43.4291 140.064 55.4827Z" fill="#5D5C70"/>
<g opacity="0.3">
<path d="M137.668 50.2891C137.744 50.6449 141.076 59.1606 141.423 73.7232C141.479 76.0734 139.217 77.7578 137.051 76.9581C132.076 75.1209 122.051 72.8043 103.134 72.8043C84.2159 72.8043 74.1914 75.1209 69.2157 76.9581C67.05 77.7578 64.7878 76.0733 64.8439 73.7232C65.1914 59.1605 68.5228 50.6449 68.5993 50.2891C60.0623 66.2646 62.275 86.3756 62.275 86.3756H103.134H143.992C143.992 86.3756 146.205 66.2646 137.668 50.2891Z" fill="#000072"/>
</g>
<path d="M145.012 87.5096H61.2838L61.173 86.5036C61.142 86.222 60.4267 79.5106 61.468 70.6859C62.4341 62.5002 65.1716 50.9315 72.7268 42.3047C79.9292 34.0808 90.1643 29.9111 103.148 29.9111C116.131 29.9111 126.367 34.0808 133.569 42.3049C141.124 50.9315 143.862 62.5002 144.828 70.6859C145.869 79.5105 145.154 86.222 145.123 86.5036L145.012 87.5096ZM63.2954 85.2446H143C143.347 80.2412 144.138 57.7627 131.908 43.8065C125.145 36.0892 115.468 32.1762 103.148 32.1762C90.8272 32.1762 81.151 36.0892 74.388 43.8065C62.1576 57.7627 62.9488 80.2412 63.2954 85.2446Z" fill="#000072"/>
<path d="M122.27 77.5186C126.156 77.5186 129.307 73.5503 129.307 68.6552C129.307 63.7601 126.156 59.7918 122.27 59.7918C118.383 59.7918 115.233 63.7601 115.233 68.6552C115.233 73.5503 118.383 77.5186 122.27 77.5186Z" fill="#000072"/>
<path d="M120.726 70.5081C122.237 70.5081 123.462 69.2577 123.462 67.7152C123.462 66.1728 122.237 64.9224 120.726 64.9224C119.215 64.9224 117.99 66.1728 117.99 67.7152C117.99 69.2577 119.215 70.5081 120.726 70.5081Z" fill="white"/>
<path d="M84.0255 77.5186C87.9121 77.5186 91.0627 73.5503 91.0627 68.6552C91.0627 63.7601 87.9121 59.7918 84.0255 59.7918C80.139 59.7918 76.9883 63.7601 76.9883 68.6552C76.9883 73.5503 80.139 77.5186 84.0255 77.5186Z" fill="#000072"/>
<path d="M85.5693 70.5081C87.0804 70.5081 88.3054 69.2577 88.3054 67.7152C88.3054 66.1728 87.0804 64.9224 85.5693 64.9224C84.0582 64.9224 82.8333 66.1728 82.8333 67.7152C82.8333 69.2577 84.0582 70.5081 85.5693 70.5081Z" fill="white"/>
<path d="M103.121 118.967C137.81 118.967 146.913 110.369 146.913 92.2016C146.913 82.8342 135.276 77.8452 124.004 75.2099C110.284 72.0026 96.0068 72.0034 82.2868 75.2072C71.0043 77.8419 59.3538 82.8311 59.3538 92.2016C59.3538 110.369 68.4563 118.967 103.146 118.967" fill="#FFAEBF"/>
<g opacity="0.7">
<path d="M124.004 75.2098C110.284 72.0025 96.0069 72.0034 82.2868 75.2072C71.0043 77.8419 59.3538 82.8311 59.3538 92.2016C59.3538 92.9617 59.3713 93.7036 59.4044 94.4302C59.9627 88.3752 65.5356 84.2474 72.5274 81.4389C72.5327 81.4727 72.5381 81.5064 72.5471 81.5395C72.9212 82.914 76.4187 83.1224 80.3589 82.0049C83.5844 81.0901 86.1062 79.5706 86.7096 78.2955C86.948 77.7918 87.3766 77.4064 87.9173 77.3154C99.8832 75.3007 112.152 75.675 124.004 78.4457C134.865 80.9848 146.059 85.7105 146.862 94.4302C146.895 93.7035 146.913 92.9617 146.913 92.2017C146.913 82.8342 135.276 77.8452 124.004 75.2098Z" fill="white"/>
</g>
<g opacity="0.3">
<path d="M84.572 85.6378C85.484 85.2522 85.9171 84.1848 85.5393 83.2539C85.1615 82.3229 84.1159 81.8808 83.2039 82.2664C82.2919 82.6521 81.8588 83.7194 82.2365 84.6504C82.6143 85.5813 83.6599 86.0234 84.572 85.6378Z" fill="#000072"/>
</g>
<g opacity="0.3">
<path d="M123.67 85.2419C124.368 84.5293 124.368 83.3741 123.669 82.6616C122.971 81.9491 121.84 81.9491 121.142 82.6616C120.444 83.3741 120.444 84.5293 121.142 85.2419C121.84 85.9544 122.971 85.9544 123.67 85.2419Z" fill="#000072"/>
</g>
<g opacity="0.3">
<path d="M103.133 112.819C103.137 112.819 103.141 112.819 103.145 112.819H103.121C103.125 112.819 103.129 112.819 103.133 112.819C71.2357 112.817 60.9791 105.542 59.5388 90.2392C59.4215 90.8718 59.3538 91.5239 59.3538 92.2015C59.3538 110.366 68.4543 118.965 103.133 118.967C137.812 118.965 146.913 110.366 146.913 92.2015C146.913 91.5237 146.845 90.8716 146.728 90.2389C145.288 105.541 135.031 112.817 103.133 112.819Z" fill="#000072"/>
</g>
<path d="M103.146 120.099C103.138 120.099 103.13 120.099 103.122 120.099C85.8012 120.097 74.5238 117.951 67.6339 113.344C61.1405 109.003 58.2449 102.482 58.2449 92.2015C58.2449 87.5218 60.8552 83.4895 66.0035 80.2171C69.9123 77.7322 75.3078 75.6752 82.0399 74.1032C95.8517 70.8778 110.449 70.8792 124.252 74.1059C130.978 75.6781 136.368 77.7355 140.273 80.2201C145.415 83.4921 148.023 87.5231 148.023 92.2015C148.023 102.482 145.127 109.003 138.634 113.344C131.744 117.951 120.466 120.097 103.146 120.099ZM103.143 73.9498C96.2103 73.9498 89.2772 74.7369 82.5347 76.3111C72.466 78.6627 60.4639 83.3282 60.4639 92.2015C60.4639 101.636 63.0502 107.572 68.8496 111.449C75.3634 115.805 86.2577 117.833 103.134 117.834C120.01 117.833 130.904 115.805 137.418 111.449C143.217 107.572 145.804 101.636 145.804 92.2015C145.804 83.3305 133.814 78.6653 123.756 76.3138C117.015 74.7379 110.079 73.9498 103.143 73.9498Z" fill="#000072"/>
<path d="M83.7746 85.1289C84.6468 85.1289 85.3539 84.4071 85.3539 83.5167C85.3539 82.6264 84.6468 81.9046 83.7746 81.9046C82.9023 81.9046 82.1952 82.6264 82.1952 83.5167C82.1952 84.4071 82.9023 85.1289 83.7746 85.1289Z" fill="#000072"/>
<path d="M122.517 85.1289C123.389 85.1289 124.096 84.4071 124.096 83.5167C124.096 82.6264 123.389 81.9046 122.517 81.9046C121.644 81.9046 120.937 82.6264 120.937 83.5167C120.937 84.4071 121.644 85.1289 122.517 85.1289Z" fill="#000072"/>
<path d="M112.529 103.71C112.101 104.445 111.562 105.16 110.906 105.83C106.655 110.156 99.6368 110.156 95.3858 105.83C94.7296 105.16 94.1906 104.445 93.7659 103.71C91.1506 99.2414 92.52 94.0899 94.9863 94.8083C95.0275 94.8213 95.0656 94.831 95.1036 94.8439C100.36 96.3615 105.932 96.3615 111.188 94.8439C111.226 94.8309 111.264 94.8212 111.306 94.8083C113.772 94.0899 115.141 99.2414 112.529 103.71Z" fill="#000072"/>
<path d="M112.529 103.71C112.101 104.445 111.562 105.16 110.906 105.83C106.655 110.156 99.6364 110.156 95.3854 105.83C94.7292 105.16 94.1903 104.445 93.7655 103.71C93.7655 103.71 94.222 103.192 95.0462 102.513C97.6298 100.39 103.846 96.6819 111.026 102.39C111.521 102.781 112.025 103.222 112.529 103.71Z" fill="#FF489B"/>
<path d="M103.146 110.063C100.092 110.063 97.038 108.882 94.713 106.519C91.2107 102.958 90.6679 97.9282 92.1734 95.3099C92.8922 94.06 94.0417 93.5237 95.2477 93.8754L95.3596 93.9079C100.455 95.3789 105.837 95.3789 110.928 93.9089L111.043 93.8757C112.25 93.5227 113.399 94.0597 114.118 95.31C115.624 97.928 115.081 102.958 111.579 106.519C109.254 108.882 106.2 110.063 103.146 110.063ZM96.0553 105.143C99.9648 109.117 106.326 109.117 110.236 105.143C113.215 102.114 113.452 97.9877 112.478 96.2929C112.075 95.5935 111.705 95.7013 111.566 95.742L111.442 95.7778C106.016 97.3448 100.275 97.3445 94.8453 95.7768L94.7233 95.7413C94.5857 95.7016 94.2159 95.5928 93.8136 96.2928C92.839 97.9877 93.0765 102.115 96.0553 105.143Z" fill="#000072"/>
<path d="M161.857 123.298C161.857 123.298 163.657 130.188 154.336 131.37L140.915 143.61C141.352 146.605 141.416 148.629 141.416 148.629C142.51 149.22 143.632 149.955 144.745 150.776C148.219 153.336 151.591 156.717 153.742 159.016C155.182 160.56 156.073 161.619 156.073 161.619C166.102 158.735 170.731 166.935 168.607 177.959C166.486 188.983 156.94 204.634 135.437 188.294C113.933 171.954 85.2001 182.782 65.2386 193.019C45.2801 203.256 34.8644 186.423 37.4683 172.94C39.8413 160.655 49.36 161.959 51.0369 162.287C51.064 162.29 51.0879 162.296 51.1089 162.302C51.1389 162.308 51.1629 162.314 51.1869 162.317C51.2199 162.327 51.2439 162.33 51.2619 162.336C51.2799 162.339 51.2889 162.342 51.2889 162.342C51.7268 161.178 52.3389 160.051 53.0618 158.98C56.6888 153.578 63.0216 149.579 63.0216 149.579C62.5386 145.313 63.3755 139.311 63.3755 139.311L60.6066 135.664L44.4101 114.308C37.9842 112.93 38.0472 106.107 38.0472 106.107C26.1856 101.777 26.5726 87.6021 39.5892 82.0901C52.6088 76.5781 59.3256 91.9321 59.3256 91.9321C68.9674 95.5424 64.7255 103.219 64.7255 103.219L74.5292 122.472C81.504 125.797 93.3297 127.037 93.3297 127.037C93.6506 129.827 96.8035 131.355 96.8035 131.355C97.4335 137.293 102.416 137.614 103.061 137.633H103.133C109.142 137.633 109.28 131.355 109.28 131.355C113.147 129.175 112.844 127.197 112.844 127.197C125.534 125.476 131.363 122.649 131.543 122.564L131.546 122.56C131.548 122.557 131.555 122.551 131.558 122.548C131.6 122.502 131.768 122.315 132.025 122.028C132.034 122.022 132.038 122.019 132.038 122.012C133.123 120.803 135.742 117.826 137.317 115.606C137.317 115.606 134.329 108.37 144.067 105.418C144.067 105.418 151.057 95.4108 161.344 97.3124C171.631 99.2171 181.08 120.738 161.857 123.298Z" fill="white"/>
<path d="M122.699 180.247C122.699 180.761 122.681 181.269 122.642 181.775C110.183 178.033 96.5579 180.378 84.0962 184.757C83.7692 183.309 83.5952 181.799 83.5952 180.247C83.5952 169.223 92.349 160.287 103.149 160.287C113.945 160.287 122.699 169.223 122.699 180.247Z" fill="#FFAEBF"/>
<path d="M69.8674 152.27C69.8674 157.271 65.8955 161.325 60.9966 161.325C58.1198 161.325 55.5608 159.926 53.9409 157.758C57.6248 152.984 63.0216 149.578 63.0216 149.578C62.8026 147.649 62.8536 145.368 62.9766 143.445C66.9215 144.36 69.8674 147.965 69.8674 152.27Z" fill="#5D5C70"/>
<path d="M65.4819 98.8894C65.4729 99.3212 65.4549 99.7407 65.4279 100.148C65.3829 100.8 65.3139 101.425 65.2209 102.022C65.2119 102.074 65.2059 102.126 65.1969 102.175C65.1159 102.662 65.0199 103.131 64.9119 103.581C61.5311 117.398 44.4105 114.308 44.4105 114.308C40.8496 113.545 39.2806 111.108 38.5907 109.087C38.0357 107.464 38.0477 106.107 38.0477 106.107C35.2637 105.09 33.1518 103.532 31.7238 101.667C27.065 95.5976 29.6299 86.3068 39.5896 82.0901C52.6093 76.5781 59.3261 91.9321 59.3261 91.9321C63.376 93.4479 64.975 95.6803 65.4699 97.7626C65.4849 98.1331 65.4879 98.5096 65.4819 98.8894Z" fill="#5D5C70"/>
<path d="M56.7851 195.919C55.0631 196.391 52.9782 196.415 50.4762 195.858C50.4702 195.858 50.4642 195.855 50.4582 195.855C50.2842 195.815 50.1103 195.778 49.9362 195.742C49.9332 195.742 49.9272 195.739 49.9243 195.739C40.1955 193.442 35.6476 182.372 37.4686 172.94C40.0245 159.708 50.8722 162.241 51.2772 162.339C51.2862 162.339 51.2892 162.342 51.2892 162.342C51.2892 162.342 58.105 164.115 61.8339 173.366C64.9208 181.031 65.1038 193.659 56.7851 195.919Z" fill="#5D5C70"/>
<path d="M168.607 177.959C167.14 185.59 162.112 195.438 152.026 195.356H152.023C140.573 189.923 147.781 170.938 147.781 170.938C151.156 161.901 156.073 161.619 156.073 161.619C156.073 161.619 156.085 161.616 156.109 161.607C166.114 158.756 170.728 166.947 168.607 177.959Z" fill="#5D5C70"/>
<path d="M167.592 121.62C166.062 122.41 164.166 122.992 161.857 123.298C161.857 123.298 162.157 124.447 161.878 125.886C161.476 127.971 159.853 130.672 154.336 131.37C140.278 131.37 138.352 119.731 137.323 115.625C137.266 115.701 137.212 115.768 137.203 115.775C137.209 115.762 137.242 115.71 137.317 115.606L137.314 115.603C137.269 115.487 135.904 112.026 138.295 108.946C139.345 107.592 141.127 106.309 144.067 105.418C144.067 105.418 151.057 95.4107 161.344 97.3124C170.394 98.9874 178.797 115.848 167.592 121.62Z" fill="#5D5C70"/>
<g opacity="0.3">
<path d="M103.061 137.632C94.7397 137.606 93.765 133.076 93.765 133.076C90.7921 131.566 90.1831 129.205 90.1831 129.205C75.3336 126.645 74.5296 122.472 74.5296 122.472C81.5044 125.797 93.33 127.037 93.33 127.037C93.651 129.827 96.8039 131.355 96.8039 131.355C97.4344 137.291 102.416 137.615 103.061 137.632Z" fill="#000072"/>
</g>
<g opacity="0.3">
<path d="M112.844 127.197C125.534 125.476 131.363 122.649 131.543 122.563C125.48 128.323 115.331 129.729 115.331 129.729C113.996 132.846 111.668 133.848 111.668 133.848C109.982 139.047 103.133 137.633 103.133 137.633C109.142 137.633 109.28 131.355 109.28 131.355C113.147 129.175 112.844 127.197 112.844 127.197Z" fill="#000072"/>
</g>
<g opacity="0.3">
<path d="M65.4278 100.148C65.3829 100.8 65.3138 101.425 65.2209 102.022C65.2118 102.074 65.2059 102.126 65.1969 102.175L64.7259 103.219C64.7259 103.219 64.3239 107.926 58.393 108.716C54.943 109.174 52.636 108.441 51.3096 107.748C50.3639 107.254 49.2479 107.249 48.2939 107.726C46.3522 108.698 42.8211 109.948 38.5905 109.087C38.0355 107.464 38.0475 106.107 38.0475 106.107C35.2636 105.09 33.1517 103.532 31.7237 101.667L32.0057 101.633C32.0057 101.633 40.7085 105.458 45.8114 101.633C51.4842 97.3797 52.1892 93.3438 50.5843 89.3231C50.5843 89.3231 52.4652 89.96 53.5722 93.8919C53.5722 93.8919 54.5146 95.5452 54.7003 98.0495C54.9226 101.05 57.7389 103.144 60.5692 102.302C61.9303 101.896 63.5411 101.221 65.4278 100.148Z" fill="#000072"/>
</g>
<g opacity="0.7">
<path d="M39.5896 82.09C29.6299 86.3066 27.065 95.5975 31.7238 101.667C31.7762 101.735 31.8361 101.8 31.8902 101.868C30.3681 98.426 30.7547 94.3936 33.0665 90.8873C33.9037 91.1515 35.5132 90.4614 36.9993 89.129C38.4505 87.8279 39.3228 86.3282 39.2246 85.4376C39.8156 85.1187 40.4346 84.8171 41.0895 84.5398C49.9871 80.7729 55.9401 86.7505 58.8184 90.9136C57.0319 87.5788 50.5407 77.4538 39.5896 82.09Z" fill="white"/>
</g>
<g opacity="0.3">
<path d="M161.856 123.298C161.856 123.298 162.156 124.447 161.877 125.886C159.862 125.921 156.416 125.545 153.473 123.077C152.311 122.102 150.716 121.926 149.373 122.619C146.559 124.069 141.543 124.808 137.323 115.625V115.621C137.323 115.615 137.32 115.612 137.317 115.606L137.314 115.603C137.269 115.487 135.904 112.026 138.295 108.946C138.295 108.946 138.067 114.136 143.78 116.183C145.376 116.755 146.991 115.434 146.841 113.715C146.573 110.647 147.213 106.299 152.536 104.925C152.536 104.925 148.513 119.814 167.592 121.62C166.062 122.41 164.166 122.992 161.856 123.298Z" fill="#000072"/>
</g>
<g opacity="0.7">
<path d="M161.344 97.3123C151.057 95.4107 144.067 105.418 144.067 105.418L144.076 105.427C146.788 102.604 152.362 98.1268 159.544 99.4558C161.2 99.7625 162.834 100.578 164.331 101.741C163.835 102.552 164.448 104.46 165.836 106.252C167.202 108.017 168.85 109.062 169.748 108.802C171.433 112.597 171.797 116.836 169.818 120.12C177.51 113.368 169.704 98.8588 161.344 97.3123Z" fill="white"/>
</g>
<g opacity="0.3">
<path d="M70.2546 146.822C70.2546 146.822 66.5886 147.282 63.0218 149.578C62.5388 145.313 63.3757 139.311 63.3757 139.311L60.6069 135.664C62.0007 133.631 64.2082 131.044 67.245 129.369C67.5663 129.192 67.9357 129.5 67.8214 129.854C67.2465 131.635 66.1188 136.155 65.4817 145.576C65.4817 145.576 68.0346 146.054 70.2546 146.822Z" fill="#000072"/>
</g>
<g opacity="0.3">
<path d="M61.8337 173.366C57.2709 163.652 51.289 162.342 51.289 162.342C51.727 161.178 52.339 160.051 53.0619 158.98C61.0657 162.513 61.8337 173.366 61.8337 173.366Z" fill="#000072"/>
</g>
<g opacity="0.3">
<path d="M144.745 150.776C143.251 156.585 139.471 159.684 139.33 159.797C142.636 153.89 141.415 148.629 141.415 148.629C142.51 149.22 143.632 149.955 144.745 150.776Z" fill="#000072"/>
</g>
<g opacity="0.3">
<path d="M154.336 131.37L140.915 143.61C140.915 143.61 140.645 138.833 138.812 135.587C138.812 135.587 139.592 135.991 140.402 136.784C141.403 137.765 142.921 137.94 144.1 137.193C146.33 135.778 149.991 133.568 154.336 131.37Z" fill="#000072"/>
</g>
<g opacity="0.3">
<path d="M168.606 172.753C166.485 183.777 156.94 199.428 135.436 183.088C113.933 166.748 85.1995 177.576 65.238 187.813C48.5607 196.368 38.5487 186.02 37.226 174.52C35.6872 187.687 46.0525 202.86 65.238 193.019C85.1995 182.782 113.933 171.954 135.436 188.294C156.94 204.634 166.485 188.983 168.606 177.959C169.134 175.221 169.244 172.659 168.959 170.396C168.875 171.165 168.761 171.951 168.606 172.753Z" fill="#000072"/>
</g>
<g opacity="0.3">
<path d="M156.073 161.619C156.073 161.619 150.997 162.865 147.781 170.938C147.781 170.938 145.882 163.475 153.742 159.016C155.182 160.56 156.073 161.619 156.073 161.619Z" fill="#000072"/>
</g>
<path d="M53.6941 197.29C49.8837 197.29 46.4277 196.159 43.513 193.897C37.6755 189.369 34.8089 180.858 36.3801 172.721C37.2775 168.072 39.2552 164.73 42.2579 162.789C45.4786 160.707 48.9694 160.846 50.6114 161.07C53.2707 155.15 59.8347 150.371 61.8515 149.003C61.5651 145.416 62.037 141.068 62.2145 139.63L43.7759 115.322C38.8388 114.052 37.2152 109.662 36.9712 106.901C31.6914 104.723 28.4927 100.466 28.3693 95.3892C28.2241 89.4219 32.3606 83.9252 39.1648 81.0442C51.7174 75.7289 58.8448 88.4678 60.128 91.0329C63.3415 92.3242 65.4174 94.2185 66.301 96.6673C67.2981 99.431 66.4465 102.066 65.9649 103.199L75.3366 121.604C82.1021 124.691 93.3286 125.9 93.4433 125.912C93.9604 125.966 94.3712 126.38 94.4316 126.907C94.6747 129.026 97.2555 130.32 97.2816 130.332C97.6264 130.502 97.8644 130.843 97.9057 131.232C98.4655 136.497 102.933 136.498 103.119 136.499C108.002 136.499 108.168 131.541 108.172 131.33C108.181 130.927 108.399 130.559 108.745 130.365C111.466 128.829 111.715 127.555 111.738 127.333C111.662 127.032 111.728 126.772 111.898 126.506C112.075 126.229 112.377 126.116 112.698 126.073C123.998 124.542 129.819 122.104 130.881 121.625C131.549 120.886 134.313 117.801 136.085 115.402C135.793 114.335 135.418 112.091 136.495 109.765C137.613 107.351 139.934 105.562 143.396 104.443C144.745 102.661 151.628 94.3669 161.542 96.1992C168.044 97.4024 174.251 105.806 174.072 113.166C173.93 119.013 169.948 123.009 163.096 124.25C163.149 125.356 162.998 127.036 161.946 128.629C160.596 130.672 158.2 131.956 154.821 132.447L142.098 144.05C142.338 145.812 142.445 147.181 142.492 147.938C148.387 151.337 154.708 158.342 156.454 160.348C161.579 159.083 164.729 160.736 166.488 162.393C169.849 165.556 171.018 171.309 169.696 178.178C169.084 181.361 166.403 192.014 157.618 195.476C151.244 197.988 143.558 195.878 134.775 189.203C118.608 176.919 96.0253 178.498 65.7371 194.031C61.5006 196.204 57.4271 197.29 53.6941 197.29ZM48.8067 163.22C47.3157 163.22 45.2883 163.504 43.4246 164.716C40.9678 166.315 39.3301 169.155 38.5571 173.159C37.1682 180.353 39.7582 188.139 44.8557 192.094C48.4352 194.871 54.7909 197.11 64.7411 192.007C77.9043 185.256 89.3037 181.189 99.5909 179.572C114.01 177.306 126.293 179.935 136.1 187.386C144.232 193.565 151.203 195.575 156.819 193.363C162.957 190.944 166.371 183.707 167.519 177.741C168.672 171.752 167.724 166.637 164.984 164.058C162.948 162.141 159.97 161.675 156.374 162.711C155.958 162.83 155.512 162.692 155.231 162.359C155.154 162.267 147.444 153.159 140.898 149.629C140.545 149.439 140.32 149.071 140.307 148.664C140.306 148.644 140.24 146.662 139.818 143.777C139.763 143.4 139.898 143.02 140.176 142.766L153.598 130.525C153.766 130.372 153.976 130.275 154.2 130.246C157.082 129.881 159.064 128.919 160.09 127.387C161.271 125.624 160.789 123.604 160.784 123.584C160.707 123.27 160.763 122.934 160.941 122.666C161.119 122.399 161.4 122.218 161.715 122.176C168.132 121.322 171.732 118.102 171.853 113.11C172.006 106.847 166.602 99.4375 161.146 98.4283C151.693 96.6795 145.036 105.982 144.97 106.076C144.826 106.281 144.62 106.432 144.383 106.503C141.369 107.417 139.394 108.831 138.514 110.706C137.468 112.932 138.333 115.149 138.342 115.171C138.487 115.533 138.441 115.952 138.216 116.27C136.174 119.148 132.511 123.165 132.356 123.334C132.263 123.436 132.153 123.519 132.03 123.58C131.792 123.699 126.165 126.444 113.827 128.202C113.543 129.171 112.701 130.587 110.346 132.036C110.053 134.679 108.294 138.764 103.133 138.764C103.111 138.765 103.089 138.765 103.067 138.765C100.838 138.765 96.6237 137.357 95.7784 132.07C94.8554 131.504 93.0412 130.163 92.4135 128.072C89.5965 127.727 80.1435 126.398 74.059 123.499C73.8376 123.393 73.6565 123.216 73.544 122.995L63.7407 103.742C63.5676 103.403 63.5745 102.997 63.7587 102.663C63.7708 102.641 65.1606 100.029 64.2119 97.4313C63.5207 95.5383 61.748 94.0465 58.9431 92.9964C58.6619 92.8912 58.4343 92.6744 58.3121 92.395C58.055 91.8106 51.8691 78.1173 40.0152 83.1365C34.0783 85.6504 30.4658 90.3238 30.5877 95.3331C30.693 99.6589 33.6213 103.288 38.4208 105.041C38.8659 105.203 39.1611 105.635 39.1566 106.118C39.156 106.355 39.2027 112.035 44.6392 113.201C44.8971 113.256 45.1273 113.403 45.2886 113.616L64.2524 138.617C64.4361 138.858 64.5157 139.166 64.4737 139.469C64.4655 139.528 63.6641 145.382 64.1237 149.45C64.173 149.885 63.9708 150.311 63.6054 150.542C63.5176 150.598 54.7942 156.172 52.3259 162.748C52.1246 163.283 51.5622 163.582 51.0185 163.441C51.0007 163.436 50.1079 163.22 48.8067 163.22Z" fill="#000072"/>
<path d="M38.3313 105.012L38.6875 105.068C38.8155 105.089 38.9458 105.106 39.0787 105.12C39.3407 105.154 39.6096 105.167 39.8748 105.192C40.4087 105.22 40.9444 105.231 41.475 105.2C42.5375 105.153 43.5814 104.974 44.5716 104.67C45.5599 104.36 46.4969 103.915 47.323 103.306C47.4275 103.231 47.5373 103.164 47.6381 103.085L47.9279 102.829C48.1209 102.651 48.3184 102.509 48.5111 102.303L49.0969 101.71C49.2921 101.513 49.4671 101.301 49.6539 101.097C51.0931 99.447 52.3029 97.5441 52.5469 95.5081C52.657 94.4962 52.5483 93.4867 52.2356 92.4661C51.9312 91.4364 51.3997 90.4336 50.8237 89.3245C51.9335 89.841 52.903 90.6952 53.5967 91.8098C53.758 92.0946 53.9426 92.3739 54.0463 92.6934C54.1647 93.0056 54.3013 93.3174 54.3582 93.6519C54.5187 94.3104 54.5667 94.9987 54.5285 95.6716C54.4604 97.0262 54.066 98.3188 53.5221 99.4904C52.9726 100.665 52.2397 101.702 51.4655 102.679C51.2661 102.918 51.075 103.167 50.8675 103.396L50.2397 104.078C50.035 104.305 49.7666 104.523 49.5313 104.744L49.1655 105.073C49.0387 105.177 48.902 105.268 48.7704 105.366C48.5009 105.551 48.2458 105.763 47.9617 105.924L47.1083 106.408C46.5162 106.678 45.9187 106.938 45.2988 107.116C44.0669 107.499 42.7937 107.668 41.5361 107.683C40.9062 107.7 40.2801 107.644 39.6572 107.579C39.3456 107.537 39.036 107.495 38.7255 107.431C38.5709 107.402 38.4151 107.369 38.2584 107.332C38.0971 107.296 37.9569 107.257 37.7634 107.201C37.1746 107.033 36.8312 106.409 36.9963 105.808C37.1495 105.251 37.6859 104.909 38.2324 104.996L38.3313 105.012Z" fill="#000072"/>
<path d="M54.2396 94.7154L52.7097 93.0747C52.809 92.9775 55.1867 90.6904 59.3537 90.8008L59.2964 93.0652C56.1036 92.987 54.314 94.6447 54.2396 94.7154Z" fill="#000072"/>
<path d="M56.4642 107.905C55.8758 107.905 55.2977 107.849 54.7292 107.735C50.7245 106.935 48.8017 103.583 48.7217 103.441L50.6471 102.314L49.6844 102.877L50.6445 102.31C50.6595 102.336 52.1788 104.932 55.1846 105.518C57.7769 106.023 60.7571 104.95 64.0421 102.328L65.4091 104.111C62.2492 106.634 59.2485 107.905 56.4642 107.905Z" fill="#000072"/>
<path d="M75.5359 121.998C75.6659 122.353 75.7874 122.744 75.8973 123.13C76.0088 123.518 76.1129 123.912 76.2136 124.31C76.3121 124.71 76.4143 125.109 76.5025 125.519C76.5943 125.927 76.6884 126.337 76.7619 126.764C76.4317 126.493 76.125 126.204 75.8303 125.904C75.5293 125.608 75.2521 125.296 74.9784 124.979C74.7062 124.662 74.4463 124.336 74.2012 124C73.9547 123.662 73.7263 123.326 73.5205 122.946L75.5359 121.998Z" fill="#000072"/>
<path d="M62.285 139.097C62.4422 138.488 62.6244 137.923 62.8296 137.348C63.0361 136.778 63.2605 136.214 63.5104 135.659C63.7662 135.107 64.0211 134.555 64.3357 134.029C64.6513 133.505 65.0182 132.999 65.48 132.584L65.1911 134.362C65.0875 134.936 64.9926 135.512 64.9108 136.088C64.8254 136.663 64.7538 137.241 64.6803 137.816L64.4645 139.523L64.4634 139.531C64.3848 140.153 63.8273 140.592 63.2182 140.512C62.6091 140.432 62.179 139.863 62.2576 139.241C62.2634 139.194 62.2738 139.142 62.285 139.097Z" fill="#000072"/>
<path d="M62.4497 148.609C63.0958 148.268 63.6985 148.022 64.3411 147.791C64.9766 147.564 65.6224 147.373 66.2761 147.22C66.9266 147.058 67.5891 146.943 68.2536 146.869C68.9166 146.791 69.5907 146.784 70.2539 146.823C69.6495 147.117 69.0582 147.387 68.4822 147.686C67.9037 147.973 67.3386 148.275 66.782 148.584C66.2269 148.897 65.6797 149.216 65.1448 149.549C64.6168 149.877 64.0655 150.227 63.5942 150.55L63.5787 150.56C63.0685 150.909 62.378 150.769 62.0364 150.249C61.6947 149.728 61.8315 149.023 62.3417 148.674C62.3766 148.65 62.4133 148.628 62.4497 148.609Z" fill="#000072"/>
<path d="M51.5743 161.247C51.7055 161.283 51.7806 161.309 51.8768 161.339C51.972 161.367 52.0517 161.4 52.1398 161.43C52.3152 161.489 52.4778 161.561 52.642 161.631C52.971 161.772 53.2866 161.927 53.5943 162.097C53.9001 162.268 54.2081 162.435 54.4948 162.634C54.7908 162.819 55.0731 163.022 55.3503 163.231C55.6357 163.429 55.8976 163.657 56.1598 163.882L56.554 164.22L56.927 164.579C57.4315 165.051 57.8751 165.58 58.3285 166.093C58.7451 166.639 59.1727 167.174 59.5324 167.755C59.7136 168.044 59.9187 168.316 60.077 168.618L60.557 169.518C60.8759 170.117 61.0969 170.767 61.3392 171.394C61.5461 172.04 61.7073 172.702 61.8329 173.366C61.391 172.845 61.0183 172.303 60.6301 171.778L60.0366 171.004C59.8515 170.741 59.663 170.481 59.4514 170.239L58.8629 169.486C58.6653 169.238 58.4523 169.004 58.2496 168.762C57.8552 168.269 57.3929 167.842 56.9668 167.387C56.0678 166.524 55.1151 165.736 54.1042 165.06C53.8535 164.887 53.5997 164.721 53.3369 164.573C53.0788 164.415 52.8172 164.27 52.5528 164.13C52.4225 164.055 52.287 163.997 52.1544 163.931C52.0219 163.865 51.8895 163.797 51.7558 163.742C51.6225 163.684 51.4887 163.623 51.3591 163.572C51.2951 163.547 51.2256 163.515 51.1662 163.495L51.0065 163.437L50.9221 163.407C50.3458 163.197 50.0451 162.55 50.2504 161.962C50.4444 161.406 51.0252 161.103 51.5743 161.247Z" fill="#000072"/>
<path d="M142.504 148.403C142.572 148.714 142.613 148.953 142.644 149.22C142.679 149.481 142.691 149.739 142.712 149.999C142.732 150.516 142.732 151.031 142.695 151.544C142.669 152.057 142.589 152.565 142.516 153.071C142.417 153.574 142.312 154.073 142.173 154.563C142.107 154.809 142.029 155.051 141.943 155.29C141.856 155.529 141.786 155.772 141.685 156.005C141.479 156.469 141.297 156.937 141.041 157.373C140.583 158.264 139.986 159.075 139.327 159.8C139.58 158.834 139.851 157.92 140.02 156.987C140.209 156.063 140.335 155.139 140.406 154.221C140.494 153.306 140.508 152.391 140.493 151.486C140.482 151.033 140.464 150.582 140.435 150.135L140.385 149.47C140.378 149.359 140.367 149.252 140.355 149.145L140.329 148.853L140.32 148.757C140.263 148.135 140.711 147.584 141.32 147.526C141.881 147.472 142.383 147.856 142.504 148.403Z" fill="#000072"/>
<path d="M156.407 162.701L156.274 162.749C156.224 162.767 156.17 162.79 156.115 162.813C156.008 162.857 155.899 162.902 155.789 162.952C155.568 163.044 155.352 163.16 155.131 163.263C154.698 163.491 154.267 163.734 153.85 164.004C153.016 164.543 152.219 165.16 151.503 165.875C150.792 166.592 150.107 167.364 149.546 168.239C149.232 168.657 148.981 169.115 148.673 169.557C148.377 170.004 148.126 170.48 147.78 170.938C147.786 170.656 147.813 170.377 147.844 170.096C147.884 169.818 147.901 169.527 147.984 169.261C148.123 168.717 148.27 168.163 148.513 167.653C148.949 166.607 149.553 165.629 150.248 164.72C150.94 163.804 151.766 162.992 152.673 162.283C152.895 162.099 153.138 161.943 153.371 161.772C153.609 161.61 153.858 161.462 154.105 161.31C154.358 161.167 154.611 161.026 154.878 160.9C155.008 160.834 155.145 160.773 155.284 160.716C155.352 160.687 155.421 160.657 155.497 160.629C155.571 160.601 155.637 160.574 155.739 160.54C156.321 160.346 156.947 160.67 157.138 161.264C157.325 161.847 157.022 162.474 156.461 162.681L156.407 162.701Z" fill="#000072"/>
<path d="M161.826 124.431L161.573 124.43C161.494 124.43 161.419 124.426 161.344 124.422C161.194 124.415 161.044 124.406 160.899 124.392C160.602 124.372 160.314 124.327 160.022 124.287C159.445 124.192 158.87 124.074 158.308 123.907C157.179 123.586 156.08 123.129 155.046 122.53C154.015 121.925 153.063 121.173 152.202 120.322C151.991 120.106 151.8 119.869 151.6 119.641L151.304 119.297L151.04 118.927L150.517 118.185L150.066 117.415C149.486 116.379 148.993 115.266 148.709 114.072C148.412 112.889 148.283 111.635 148.448 110.4C148.61 109.169 149.063 107.971 149.783 106.997C150.498 106.025 151.471 105.272 152.538 104.925C151.012 106.601 150.384 108.598 150.428 110.537C150.47 112.48 151.135 114.395 152.224 116.092L152.629 116.731L153.078 117.316L153.301 117.609L153.552 117.876L154.051 118.412C154.747 119.098 155.53 119.685 156.365 120.202C157.202 120.717 158.113 121.115 159.048 121.453C159.518 121.617 159.996 121.758 160.479 121.884C160.721 121.938 160.964 121.999 161.205 122.046C161.439 122.097 161.705 122.134 161.892 122.167L162.017 122.189C162.62 122.293 163.025 122.876 162.923 123.491C162.83 124.044 162.358 124.434 161.826 124.431Z" fill="#000072"/>
<path d="M145.927 122.191C142.927 122.191 139.752 120.228 136.477 116.344C136.077 115.87 136.13 115.155 136.594 114.747C137.058 114.339 137.759 114.392 138.159 114.866C141.156 118.421 144.018 120.165 146.428 119.899C149.135 119.605 150.584 116.944 150.599 116.917C150.891 116.368 151.566 116.165 152.104 116.464C152.642 116.763 152.84 117.451 152.547 118C152.466 118.153 150.515 121.733 146.663 122.151C146.419 122.177 146.173 122.191 145.927 122.191Z" fill="#000072"/>
<path d="M148.876 109.359C147.309 107.27 143.882 106.535 143.847 106.528L144.286 104.307C144.459 104.343 148.56 105.21 150.638 107.982L148.876 109.359Z" fill="#000072"/>
<path d="M139.815 143.748C139.779 143.099 139.731 142.403 139.682 141.727C139.622 141.048 139.578 140.362 139.497 139.682C139.413 139.003 139.333 138.32 139.222 137.639C139.116 136.956 138.982 136.278 138.813 135.586C139.259 136.135 139.623 136.754 139.96 137.385C140.285 138.021 140.567 138.679 140.817 139.348C141.066 140.016 141.303 140.691 141.498 141.378C141.7 142.067 141.877 142.743 142.017 143.473C142.135 144.088 141.742 144.685 141.139 144.805C140.536 144.926 139.952 144.524 139.834 143.909C139.824 143.86 139.818 143.81 139.815 143.761L139.815 143.748Z" fill="#000072"/>
</svg>
