<svg width="100" height="100" viewBox="0 0 100 100" fill="none" xmlns="http://www.w3.org/2000/svg">
<path d="M51.5899 98.8304C78.3258 98.8304 99.9995 76.7065 99.9995 49.4152C99.9995 22.1239 78.3258 0 51.5899 0C24.8539 0 3.18017 22.1239 3.18017 49.4152C3.18017 76.7065 24.8539 98.8304 51.5899 98.8304Z" fill="#0BCBFF"/>
<mask id="mask0_11_703" style="mask-type:luminance" maskUnits="userSpaceOnUse" x="3" y="0" width="97" height="99">
<path d="M51.5894 98.8304C78.3253 98.8304 99.999 76.7065 99.999 49.4152C99.999 22.1239 78.3253 0 51.5894 0C24.8534 0 3.17968 22.1239 3.17968 49.4152C3.17968 76.7065 24.8534 98.8304 51.5894 98.8304Z" fill="white"/>
</mask>
<g mask="url(#mask0_11_703)">
<path d="M19.2858 37.8046H-2.69371C-3.42372 37.8046 -3.81002 36.8898 -3.30542 36.34C-2.86997 35.8655 -2.18833 35.6612 -1.37814 35.8669C-1.14377 33.9978 0.274304 32.5617 1.98939 32.5617C2.73028 32.5617 3.41719 32.8308 3.97664 33.2883C4.4335 30.6901 6.45747 28.7316 8.88539 28.7316C11.3165 28.7316 13.3416 30.6937 13.7963 33.2956C14.5286 32.739 15.411 32.4149 16.3592 32.4149C18.4064 32.4149 20.1407 33.4552 20.7414 35.8291C20.9938 36.8267 20.2756 37.8046 19.2858 37.8046Z" fill="white"/>
</g>
<mask id="mask1_11_703" style="mask-type:luminance" maskUnits="userSpaceOnUse" x="3" y="0" width="97" height="99">
<path d="M51.5894 98.8304C78.3253 98.8304 99.999 76.7065 99.999 49.4152C99.999 22.1239 78.3253 0 51.5894 0C24.8534 0 3.17968 22.1239 3.17968 49.4152C3.17968 76.7065 24.8534 98.8304 51.5894 98.8304Z" fill="white"/>
</mask>
<g mask="url(#mask1_11_703)">
<path d="M81.9827 45.3767H116.804C117.96 45.3767 118.572 43.9276 117.773 43.0565C117.083 42.3048 116.003 41.9811 114.719 42.307C114.348 39.3459 112.102 37.0707 109.384 37.0707C108.211 37.0707 107.122 37.4971 106.236 38.2219C105.512 34.1057 102.306 31.003 98.4594 31.003C94.6079 31.003 91.3997 34.1115 90.6793 38.2335C89.5193 37.3517 88.1213 36.8382 86.6191 36.8382C83.3758 36.8382 80.6283 38.4863 79.6767 42.2472C79.2769 43.8275 80.4147 45.3767 81.9827 45.3767Z" fill="white"/>
</g>
<path d="M8.562 73.4117C8.562 73.4117 12.5155 71.2626 17.2885 75.9872C22.0616 80.7118 40.3252 112.898 69.9325 93.0154C69.9325 93.0154 87.358 83.5662 88.7723 75.8888C88.7723 75.8888 77.9525 54.1852 44.6796 57.8025C11.4066 61.4198 8.562 73.4117 8.562 73.4117Z" fill="#FF004F"/>
<g opacity="0.3">
<path d="M17.2888 73.6905C22.0619 78.4151 40.3254 110.601 69.9327 90.7187C69.9327 90.7187 85.2048 82.4369 88.3141 75.0805C85.9492 71.179 74.0797 54.6063 44.6798 57.8025C21.4818 60.3245 13.0751 66.917 10.1108 70.6784C11.694 70.4754 14.3341 70.7659 17.2888 73.6905Z" fill="#000072"/>
</g>
<path d="M51.1739 100C46.6145 100 42.134 98.8359 37.7539 96.5054C29.2556 91.9839 23.1368 84.1751 19.481 79.5094C18.3821 78.107 17.514 76.9991 16.9024 76.3938C12.4707 72.0069 8.85885 73.8922 8.82288 73.9116C8.63011 74.0164 8.3949 73.9963 8.22218 73.8592C8.04952 73.7226 7.97155 73.4952 8.02288 73.2784C8.05394 73.1475 8.84098 70.0305 13.8272 66.4984C20.3678 61.8648 30.7283 58.7497 44.6208 57.2394C52.2774 56.4068 59.3853 56.8494 65.747 58.5548C70.849 59.9224 75.4844 62.1 79.5245 65.0275C86.4206 70.0243 89.1538 75.4053 89.2669 75.6319C89.3224 75.7434 89.3403 75.8705 89.3176 75.9934C87.8835 83.7782 71.215 92.9591 70.216 93.5029C63.7623 97.8319 57.3945 99.9998 51.1739 100ZM10.9291 72.348C12.6449 72.348 15.0477 72.9802 17.6748 75.5807C18.3368 76.2359 19.2241 77.3684 20.3475 78.802C27.5427 87.9847 44.3928 109.489 69.6277 92.5422C69.6422 92.5326 69.6571 92.5235 69.6723 92.5153C69.8427 92.4228 86.5802 83.2692 88.1881 75.9774C87.6677 75.0305 84.858 70.2655 78.8304 65.9134C72.6503 61.4513 61.7186 56.519 44.7383 58.3657C27.8051 60.2065 19.0058 64.2544 14.6059 67.3261C11.6104 69.4172 10.2034 71.3455 9.57263 72.4848C9.95319 72.4059 10.4098 72.348 10.9291 72.348Z" fill="#000072"/>
<path d="M36.0142 58.7783C36.0142 58.7783 34.6492 59.0754 32.4188 59.8042C25.5925 62.032 10.6544 68.2912 1.86011 82.3851C1.86011 82.3851 -0.341831 77.6784 1.00512 70.0688C1.36363 68.0354 1.97709 65.7954 2.95357 63.3824C2.95357 63.3824 9.2759 57.8183 18.7377 56.3086C22.5445 55.6993 26.8584 55.7467 31.4738 57.0773C32.9588 57.5045 34.4737 58.0648 36.0142 58.7783Z" fill="#FF004F"/>
<g opacity="0.3">
<path d="M32.4188 59.8042C25.5925 62.032 10.6544 68.2912 1.86011 82.3851C1.86011 82.3851 -0.341831 77.6784 1.00512 70.0688L1.97943 72.6895C2.33741 73.6524 3.54382 73.9277 4.26736 73.2099C6.80707 70.6904 12.4023 65.7018 19.8718 62.3232C21.4338 61.6167 22.0151 59.6581 21.0971 58.1873C21.0971 58.1873 19.6751 57.8688 18.7377 56.3086C22.5445 55.6993 26.8584 55.7467 31.4738 57.0773L32.4188 59.8042Z" fill="#000072"/>
</g>
<g opacity="0.7">
<path d="M31.4738 57.0773C26.8584 55.7467 22.5445 55.6993 18.7377 56.3086C9.2759 57.8183 2.95357 63.3824 2.95357 63.3824C1.97709 65.7954 1.36363 68.0354 1.00512 70.0688C-0.341831 77.6784 1.86011 82.3851 1.86011 82.3851C1.97458 82.2016 2.0907 82.0203 2.20721 81.8395C1.66101 79.8504 1.02435 76.1166 1.90512 71.1406C2.21321 69.393 2.70966 67.4929 3.46301 65.4614C3.71259 64.7883 4.14207 64.1994 4.70845 63.7708C5.31733 63.3101 6.24037 62.6557 7.43283 61.9341C7.61778 61.8221 7.84184 61.781 8.04783 61.8439C8.6572 62.0299 9.94435 61.771 11.3151 61.1395C12.7086 60.4977 13.7644 59.6665 14.0097 59.0747C14.0918 58.8767 14.2629 58.7306 14.4629 58.6633C16.0517 58.1284 17.7838 57.6762 19.6377 57.3805C23.4445 56.7711 27.7584 56.8185 32.3738 58.1491C33.2368 58.3973 34.1102 58.6921 34.9926 59.0343C35.6493 58.8581 36.0142 58.7784 36.0142 58.7784C34.4737 58.0648 32.9588 57.5045 31.4738 57.0773Z" fill="white"/>
</g>
<path d="M1.86024 82.9513C1.84906 82.9513 1.83778 82.951 1.82644 82.9503C1.6252 82.9379 1.44644 82.8148 1.3595 82.6291C1.21084 82.3111 -2.2287 74.7102 2.44016 63.166C2.47333 63.084 2.52493 63.011 2.59077 62.9532C2.74539 62.8171 6.44595 59.5965 12.4599 57.3796C18.019 55.3303 26.6579 53.82 36.2431 58.2625C36.4611 58.3636 36.5909 58.5961 36.5653 58.839C36.5395 59.082 36.364 59.2807 36.1298 59.3319C36.074 59.3441 30.4707 60.5921 23.529 64.0908C17.1423 67.3098 8.2797 73.1494 2.32804 82.6892C2.2258 82.853 2.04898 82.9513 1.86024 82.9513ZM3.41387 63.7272C-0.0399103 72.3623 1.26748 78.7617 1.99933 81.1349C8.07746 71.9232 16.7572 66.2371 23.0669 63.0606C27.8962 60.6296 32.0956 59.2673 34.2854 58.6452C25.6413 55.1682 17.9108 56.5742 12.8368 58.4447C7.54274 60.3963 4.03501 63.2082 3.41387 63.7272Z" fill="#000072"/>
<path d="M91.6657 83.1399C91.6657 83.1399 85.9073 72.1986 72.2292 64.4588C69.0433 62.6536 65.4254 61.0245 61.35 59.746C61.35 59.746 68.8378 60.262 76.4711 61.9524C78.199 62.3351 79.9345 62.7776 81.5934 63.289C85.6733 64.5461 89.2837 66.2135 91.1512 68.4076C91.1512 68.4076 91.8952 70.9752 92.1531 74.6851C92.3226 77.1395 92.2791 80.0961 91.6657 83.1399Z" fill="#FF004F"/>
<g opacity="0.3">
<path d="M91.6652 83.1399C91.6652 83.1399 85.9068 72.1986 72.2287 64.4588C72.0877 63.9872 72.0232 63.6397 72.0337 63.4376C72.0727 62.6399 74.1502 62.1974 76.4706 61.9524C78.1986 62.3352 79.934 62.7777 81.593 63.2891C81.3791 64.0613 80.997 65.1071 80.3659 65.8373C79.9118 66.3629 79.9628 67.162 80.4985 67.6003C82.314 69.0859 85.7783 72.0695 88.5416 75.3333C89.3994 76.3464 90.9602 76.3151 91.7571 75.2514C91.8893 75.0751 92.0219 74.8863 92.1527 74.6852C92.3222 77.1395 92.2787 80.0961 91.6652 83.1399Z" fill="#000072"/>
</g>
<g opacity="0.7">
<path d="M92.1531 74.6851C91.8952 70.9752 91.1512 68.4076 91.1512 68.4076C89.2837 66.2135 85.6733 64.5461 81.5934 63.289C79.9345 62.7776 78.199 62.3351 76.4711 61.9524C68.8378 60.262 61.35 59.746 61.35 59.746C63.217 60.3317 64.9868 60.9917 66.6642 61.7078C69.2196 61.9951 72.2823 62.419 75.373 63.0334C77.1086 63.3785 78.8529 63.7831 80.5221 64.2583C84.3051 65.3346 87.6967 66.7679 89.7027 68.671C90.0195 68.9716 90.245 69.3567 90.3566 69.7832C90.6101 70.7527 91.0797 72.7981 91.3173 75.4221C91.5017 77.4689 91.5434 79.8699 91.232 82.3867C91.5238 82.8705 91.6656 83.14 91.6656 83.14C92.2791 80.0961 92.3226 77.1395 92.1531 74.6851Z" fill="white"/>
</g>
<path d="M91.665 83.7057C91.4631 83.7057 91.2743 83.593 91.1766 83.4078C91.1549 83.3667 88.9516 79.237 84.1692 74.3452C79.7619 69.8373 72.1972 63.739 61.1873 60.2878C60.918 60.2035 60.7534 59.9264 60.8046 59.6436C60.8558 59.3608 61.1076 59.1595 61.3875 59.1815C62.3695 59.2491 85.5095 60.9196 91.5696 68.0366C91.6216 68.0977 91.6602 68.1695 91.6827 68.2472C91.7684 68.5422 93.7615 75.5588 92.2085 83.2538C92.1614 83.4872 91.9764 83.6653 91.7454 83.6998C91.7185 83.7039 91.6916 83.7057 91.665 83.7057ZM65.8742 60.7698C74.7864 64.3841 81.0935 69.5893 84.9864 73.578C88.28 76.9523 90.3493 79.9229 91.3759 81.5532C92.2871 75.2385 90.8843 69.5637 90.6508 68.6859C86.376 63.8374 72.9948 61.6254 65.8742 60.7698Z" fill="#000072"/>
<path d="M51.5667 58.1313C70.3665 58.1313 72.5513 51.8292 72.5513 51.8292C72.5513 51.8292 74.0857 63.7305 51.5667 63.7305C29.0477 63.7305 30.5821 51.8292 30.5821 51.8292C30.5821 51.8292 32.7668 58.1313 51.5667 58.1313Z" fill="#FF004F"/>
<g opacity="0.3">
<path d="M72.3892 52.1548C71.6466 55.5725 68.0529 61.9508 51.5667 61.9508C35.0805 61.9508 31.4868 55.5725 30.7442 52.1548C30.6239 51.9491 30.5821 51.8292 30.5821 51.8292C30.5821 51.8292 29.0477 63.7305 51.5667 63.7305C74.0857 63.7305 72.5513 51.8292 72.5513 51.8292C72.5513 51.8292 72.5095 51.9491 72.3892 52.1548Z" fill="#000072"/>
</g>
<path d="M51.5668 64.2967C42.2241 64.2967 35.7671 62.2951 32.3752 58.3471C29.6305 55.1525 30.0145 51.8926 30.0322 51.7554L30.3338 49.4156L31.1051 51.6403C31.125 51.6926 33.545 57.5651 51.5668 57.5651C69.5884 57.5651 72.0086 51.6926 72.0309 51.6333L72.814 49.5541L73.1014 51.7554C73.1191 51.8926 73.503 55.1525 70.7583 58.3471C67.3664 62.2951 60.9094 64.2967 51.5668 64.2967ZM31.2639 53.6844C31.4815 54.7668 32.0053 56.2092 33.2328 57.6276C35.419 60.1533 40.3744 63.1642 51.5668 63.1642C62.7591 63.1642 67.7145 60.1533 69.9007 57.6276C71.1281 56.2096 71.6519 54.7671 71.8696 53.6846C69.8471 55.6657 64.6194 58.6977 51.5668 58.6977C38.5141 58.6977 33.2864 55.6657 31.2639 53.6844Z" fill="#000072"/>
<path d="M53.7393 67.8966C54.9399 66.6711 54.9399 64.6842 53.7393 63.4587C52.5388 62.2332 50.5923 62.2332 49.3917 63.4587C48.1912 64.6842 48.1912 66.6711 49.3918 67.8966C50.5923 69.1221 52.5388 69.1221 53.7393 67.8966Z" fill="#FFD400"/>
<g opacity="0.3">
<path d="M51.5666 67.5215C50.0862 67.5215 48.8508 66.4531 48.5585 65.0306C48.5156 65.2395 48.4924 65.4558 48.4924 65.6778C48.4924 67.4109 49.8688 68.8159 51.5666 68.8159C53.2645 68.8159 54.6409 67.4109 54.6409 65.6778C54.6409 65.4558 54.6176 65.2395 54.5747 65.0306C54.2824 66.4531 53.0471 67.5215 51.5666 67.5215Z" fill="#000072"/>
</g>
<path d="M51.5667 69.3821C49.5656 69.3821 47.9377 67.7204 47.9377 65.6779C47.9377 63.6353 49.5656 61.9735 51.5667 61.9735C53.5677 61.9735 55.1956 63.6353 55.1956 65.6779C55.1956 67.7204 53.5677 69.3821 51.5667 69.3821ZM51.5667 63.106C50.1774 63.106 49.0472 64.2597 49.0472 65.6779C49.0472 67.0959 50.1774 68.2496 51.5667 68.2496C52.9559 68.2496 54.0861 67.0959 54.0861 65.6779C54.0861 64.2597 52.9559 63.106 51.5667 63.106Z" fill="#000072"/>
<path d="M54.2499 65.5768C53.6095 65.6351 52.7425 65.6771 51.5665 65.6771C50.3904 65.6771 49.5234 65.6351 48.8846 65.5768C47.3709 65.4361 46.328 63.9249 46.7655 62.4397C47.0333 61.5304 47.5659 60.6534 48.0477 59.9868C48.5708 59.2572 49.0368 58.7783 49.0368 58.7783H54.0961C54.0961 58.7783 54.5685 59.2637 55.0963 60.0014C55.575 60.6664 56.1012 61.5369 56.3675 62.4397C56.8065 63.9249 55.762 65.4361 54.2499 65.5768Z" fill="#FFD400"/>
<g opacity="0.3">
<path d="M56.3675 62.44C56.2292 61.972 56.0214 61.5128 55.7868 61.0862C55.9624 62.2711 55.1008 63.3972 53.8901 63.5098C53.3367 63.5613 52.5853 63.5977 51.567 63.5977C50.5487 63.5977 49.7973 63.5613 49.2438 63.5098C48.0331 63.3972 47.1715 62.271 47.3471 61.0862C47.1126 61.5128 46.9047 61.972 46.7664 62.44C46.3276 63.9246 47.3717 65.4355 48.8845 65.5762C49.5235 65.6357 50.3912 65.6778 51.567 65.6778C52.7428 65.6778 53.6105 65.6357 54.2495 65.5762C55.7622 65.4355 56.8063 63.9246 56.3675 62.44Z" fill="#000072"/>
</g>
<path d="M51.5669 66.2441C50.4961 66.2441 49.5767 66.2091 48.8342 66.1403C47.9307 66.0561 47.1219 65.5679 46.6148 64.8007C46.1206 64.0527 45.9821 63.1326 46.2352 62.2765C46.8304 60.2625 48.5692 58.4557 48.643 58.3798L48.8057 58.2122H54.3281L54.4908 58.3798C54.5646 58.4557 56.3034 60.2625 56.8986 62.2765C57.1517 63.1326 57.0133 64.0527 56.5191 64.8005C56.0121 65.5679 55.2031 66.0561 54.2998 66.1403C53.5571 66.2091 52.6377 66.2441 51.5669 66.2441ZM49.2772 59.3447C48.8611 59.8114 47.717 61.1839 47.2973 62.6035C47.141 63.1326 47.2275 63.7025 47.5346 64.1672C47.8544 64.6513 48.3648 64.9593 48.9347 65.0123C49.6439 65.0782 50.5295 65.1116 51.5669 65.1116C52.6042 65.1116 53.4898 65.0782 54.1991 65.0123C54.769 64.9593 55.2794 64.6513 55.5992 64.1672C55.9062 63.7025 55.9927 63.1326 55.8364 62.6035C55.4153 61.1791 54.273 59.8104 53.8569 59.3447H49.2772Z" fill="#000072"/>
<path d="M51.5738 64.4441C47.6503 64.4441 46.5245 63.5642 46.4091 63.4638L46.923 62.8479C46.9263 62.8501 47.9544 63.6353 51.5738 63.6353C55.2171 63.6353 56.2158 62.8557 56.2248 62.8479L56.7386 63.4638C56.6232 63.5642 55.4974 64.4441 51.5738 64.4441Z" fill="#000072"/>
<path d="M45.8099 18.5385C45.8099 18.5385 42.5654 21.0884 38.5332 19.7957C38.5332 19.7957 38.5347 19.7504 38.5379 19.6646C38.5664 18.909 38.7503 15.0098 39.6395 11.4795C39.7552 11.0184 40.1499 10.7336 40.5651 10.7207C40.7807 10.7126 41.001 10.7773 41.1928 10.9294C42.4259 11.9082 44.3707 14.0617 45.8099 18.5385Z" fill="#FFD578"/>
<path d="M40.8455 20.242C40.1107 20.242 39.3248 20.1376 38.5086 19.8759L38.4487 19.8567L38.4558 19.6615C38.4841 18.9109 38.6708 14.9887 39.5599 11.4585C39.6795 10.9818 40.0826 10.6515 40.5629 10.6365C40.809 10.6288 41.045 10.7056 41.2436 10.8629C42.5824 11.9257 44.475 14.1155 45.8885 18.5123L45.9067 18.5689L45.8605 18.6052C45.8343 18.6257 43.736 20.242 40.8455 20.242ZM38.618 19.7343C42.2759 20.8743 45.3038 18.8048 45.7131 18.5067C44.3147 14.1891 42.4572 12.0395 41.1424 10.9957C40.9749 10.863 40.7768 10.7972 40.5684 10.8047C40.1617 10.8174 39.8208 11.0969 39.7196 11.5003C38.8346 15.014 38.6487 18.9204 38.6205 19.6679L38.618 19.7343Z" fill="white"/>
<g opacity="0.3">
<path d="M45.8099 18.5385C45.8099 18.5385 42.5654 21.0884 38.5332 19.7957C38.5332 19.7957 38.5347 19.7504 38.5379 19.6646C38.8744 18.7942 39.8491 17.3236 41.8194 16.1929C42.7196 15.6762 43.0294 14.5053 42.516 13.5906C42.0328 12.7294 41.3726 11.6844 40.5651 10.7207C40.7807 10.7126 41.001 10.7773 41.1928 10.9294C42.4259 11.9082 44.3707 14.0617 45.8099 18.5385Z" fill="#000072"/>
</g>
<g opacity="0.7">
<path d="M39.8059 19.9882C39.8344 19.2326 40.0183 15.3334 40.9075 11.803C40.9859 11.4905 41.1937 11.2617 41.4481 11.1409C41.3601 11.0651 41.2748 10.9944 41.1928 10.9293C41.001 10.7773 40.7807 10.7125 40.5651 10.7206C40.1499 10.7336 39.7552 11.0183 39.6395 11.4794C38.7503 15.0098 38.5665 18.909 38.5379 19.6646C38.5347 19.7503 38.5332 19.7956 38.5332 19.7956C38.9666 19.9346 39.3902 20.0269 39.8024 20.085C39.8032 20.063 39.8043 20.0306 39.8059 19.9882Z" fill="white"/>
</g>
<path d="M40.8758 20.7308C40.0908 20.7308 39.2475 20.6183 38.3666 20.336C38.13 20.2601 37.9714 20.0332 37.9782 19.7801C37.9831 19.5985 38.109 15.2842 39.1018 11.3388C39.2318 10.8219 39.6044 10.4105 40.0983 10.2382C40.5884 10.0674 41.1253 10.1586 41.5342 10.483C42.9238 11.5852 44.8852 13.8467 46.3377 18.3613C46.4111 18.5896 46.3355 18.8402 46.149 18.9868C46.0365 19.0752 43.8858 20.7308 40.8758 20.7308ZM39.1056 19.3725C41.9276 20.0949 44.3092 18.8402 45.1495 18.309C43.8024 14.3375 42.0798 12.3501 40.8534 11.3773C40.6907 11.2483 40.5219 11.2871 40.4571 11.3098C40.3903 11.3332 40.2294 11.4101 40.1763 11.6206C39.3943 14.7285 39.1646 18.1741 39.1056 19.3725Z" fill="#000072"/>
<path d="M36.2232 23.5654C36.2232 23.5654 36.1265 23.1189 35.8729 22.4248C35.2199 20.6337 33.5255 17.1957 29.7785 15.5648C29.7785 15.5648 32.4477 14.7914 35.4085 16.6779C35.4085 16.6779 35.4085 16.6779 35.4085 16.6795C36.4483 17.3396 37.5229 18.3298 38.5326 19.7957C38.5326 19.7957 40.0304 22.8374 36.2232 23.5654Z" fill="#5D5C70"/>
<g opacity="0.3">
<path d="M36.2236 23.5655C36.2236 23.5655 36.1269 23.1189 35.8733 22.4248C36.5358 20.1371 36.073 18.1405 35.4089 16.6795C36.4487 17.3396 37.5233 18.3298 38.5329 19.7957C38.5329 19.7957 40.0308 22.8374 36.2236 23.5655Z" fill="#000072"/>
</g>
<path d="M36.2229 24.1316C35.9677 24.1316 35.7391 23.9512 35.6819 23.688C35.67 23.6341 34.423 18.2019 29.561 16.0857C29.3447 15.9915 29.2101 15.7685 29.225 15.5289C29.2399 15.2894 29.401 15.0855 29.6272 15.0199C29.8416 14.9579 34.9249 13.5673 38.986 19.4702C39.0015 19.4928 39.0155 19.5165 39.0276 19.5411C39.0571 19.6012 39.7446 21.0259 39.106 22.3427C38.6634 23.255 37.7281 23.8536 36.3256 24.1218C36.2911 24.1283 36.2568 24.1316 36.2229 24.1316ZM31.7109 15.9846C34.9269 18.1536 36.2181 21.5597 36.6177 22.891C37.3748 22.6722 37.8753 22.3218 38.1087 21.8462C38.4637 21.1228 38.1261 20.257 38.0498 20.0803C35.8434 16.8972 33.3478 16.1083 31.7109 15.9846Z" fill="#000072"/>
<path d="M33.9128 25.9001C33.5086 25.5215 33.1425 25.1413 32.8096 24.7611C28.7156 20.0885 29.7791 15.5647 29.7791 15.5647C34.7386 17.3752 36.108 22.3407 36.108 22.3407C36.834 25.4859 33.9128 25.9001 33.9128 25.9001Z" fill="#FF8DC1"/>
<g opacity="0.3">
<path d="M33.9125 25.9001C33.5083 25.5215 33.1422 25.1413 32.8093 24.7611C33.0684 24.2985 33.4115 23.7195 33.7714 23.2008C34.1315 22.6819 34.2267 22.0217 34.0326 21.4174C33.595 20.0549 32.4856 17.6484 29.7788 15.5648C34.7383 17.3753 36.1077 22.3407 36.1077 22.3407C36.8337 25.486 33.9125 25.9001 33.9125 25.9001Z" fill="#000072"/>
</g>
<path d="M33.9131 26.4671C33.7749 26.4671 33.6407 26.4145 33.5377 26.3177C27.9844 21.1051 29.1859 15.6618 29.2398 15.4326C29.2766 15.2763 29.3767 15.1432 29.5153 15.0667C29.6538 14.9902 29.8177 14.9773 29.9661 15.0316C35.1349 16.9194 36.5832 21.9733 36.6424 22.1875C36.6445 22.1954 36.6465 22.2034 36.6484 22.2113C36.9083 23.3385 36.7815 24.2954 36.2716 25.0553C35.4783 26.2376 34.0502 26.4531 33.9898 26.4617C33.9642 26.4653 33.9386 26.4671 33.9131 26.4671ZM30.2271 16.3571C30.1053 17.8394 30.2591 21.5711 34.0773 25.2823C34.4089 25.1851 35.005 24.9442 35.3608 24.4085C35.6811 23.9262 35.752 23.2792 35.5717 22.4856C35.503 22.2536 34.2382 18.1727 30.2271 16.3571Z" fill="#000072"/>
<path d="M57.3361 18.5385C57.3361 18.5385 60.5806 21.0884 64.6129 19.7957C64.6129 19.7957 64.6113 19.7504 64.6081 19.6646C64.5796 18.909 64.3958 15.0098 63.5065 11.4795C63.3909 11.0184 62.9962 10.7336 62.5809 10.7207C62.3654 10.7126 62.145 10.7773 61.9532 10.9294C60.7201 11.9082 58.7753 14.0617 57.3361 18.5385Z" fill="#FFD578"/>
<path d="M62.3008 20.2421C59.41 20.2421 57.312 18.6258 57.2859 18.6052L57.2397 18.5689L57.2579 18.5123C58.6714 14.1155 60.5639 11.9258 61.9027 10.863C62.1013 10.7055 62.3371 10.6278 62.5841 10.6366C63.0639 10.6515 63.4669 10.9819 63.5865 11.4586C64.4756 14.9887 64.6622 18.9109 64.6906 19.6613L64.6977 19.8567L64.6377 19.8759C63.8217 20.1375 63.0354 20.2421 62.3008 20.2421ZM57.4332 18.5068C57.8424 18.8048 60.8709 20.8737 64.5283 19.7344L64.5259 19.6677C64.4976 18.9204 64.3118 15.014 63.4268 11.5004C63.3256 11.0969 62.9846 10.8174 62.5785 10.8048C62.3719 10.7955 62.1715 10.8629 62.0039 10.9958C60.6891 12.0395 58.8316 14.1891 57.4332 18.5068Z" fill="white"/>
<g opacity="0.3">
<path d="M57.3363 18.5385C57.3363 18.5385 60.5809 21.0884 64.6132 19.7957C64.6132 19.7957 64.6116 19.7504 64.6084 19.6646C64.2719 18.7942 63.2972 17.3236 61.3269 16.1929C60.4267 15.6762 60.1169 14.5053 60.6303 13.5906C61.1135 12.7294 61.7737 11.6844 62.5812 10.7207C62.3656 10.7126 62.1453 10.7773 61.9535 10.9294C60.7203 11.9082 58.7755 14.0617 57.3363 18.5385Z" fill="#000072"/>
</g>
<g opacity="0.7">
<path d="M63.3398 19.9882C63.3113 19.2327 63.1274 15.3334 62.2382 11.8031C62.1598 11.4905 61.952 11.2617 61.6977 11.141C61.7856 11.0652 61.8709 10.9945 61.9529 10.9294C62.1447 10.7773 62.365 10.7126 62.5806 10.7207C62.9959 10.7336 63.3905 11.0184 63.5062 11.4795C64.3954 15.0098 64.5793 18.909 64.6078 19.6646C64.611 19.7504 64.6126 19.7957 64.6126 19.7957C64.1792 19.9346 63.7556 20.0269 63.3434 20.085C63.3426 20.063 63.3414 20.0306 63.3398 19.9882Z" fill="white"/>
</g>
<path d="M62.2703 20.7308C59.26 20.7308 57.1096 19.0753 56.9971 18.9869C56.8106 18.8403 56.735 18.5896 56.8084 18.3614C58.261 13.8467 60.2224 11.5852 61.6119 10.4831C62.0209 10.1587 62.5577 10.0674 63.048 10.2382C63.5418 10.4106 63.9143 10.822 64.0443 11.3389C65.0372 15.2842 65.163 19.5985 65.1679 19.7801C65.1747 20.0332 65.0161 20.2602 64.7795 20.336C63.8988 20.6182 63.0551 20.7308 62.2703 20.7308ZM57.9965 18.3091C58.8357 18.8397 61.2173 20.0954 64.0404 19.3725C63.9814 18.1741 63.7518 14.7285 62.9697 11.6206C62.9168 11.4101 62.7558 11.3332 62.6891 11.3099C62.6241 11.2871 62.4551 11.2484 62.2927 11.3773C61.0663 12.35 59.3437 14.3376 57.9965 18.3091Z" fill="#000072"/>
<path d="M66.9227 23.5654C66.9227 23.5654 67.0194 23.1189 67.273 22.4248C67.926 20.6337 69.6204 17.1957 73.3674 15.5648C73.3674 15.5648 70.6982 14.7914 67.7374 16.6779C67.7374 16.6779 67.7374 16.6779 67.7374 16.6795C66.6976 17.3396 65.623 18.3298 64.6134 19.7957C64.6134 19.7957 63.1155 22.8374 66.9227 23.5654Z" fill="white"/>
<g opacity="0.3">
<path d="M66.9227 23.5655C66.9227 23.5655 67.0194 23.1189 67.273 22.4248C66.6105 20.1371 67.0733 18.1405 67.7374 16.6795C66.6976 17.3396 65.623 18.3298 64.6134 19.7957C64.6134 19.7957 63.1155 22.8374 66.9227 23.5655Z" fill="#000072"/>
</g>
<path d="M66.9227 24.1316C66.8889 24.1316 66.8547 24.1284 66.8203 24.1218C65.4179 23.8536 64.4825 23.2551 64.04 22.3428C63.4013 21.0259 64.0888 19.6012 64.1183 19.5411C64.1305 19.5165 64.1444 19.4928 64.1599 19.4702C68.2209 13.5674 73.3045 14.958 73.5188 15.0199C73.745 15.0855 73.9061 15.2894 73.921 15.529C73.9359 15.7685 73.8012 15.9915 73.585 16.0857C68.723 18.2019 67.4759 23.6341 67.4638 23.6887C67.406 23.9512 67.1775 24.1316 66.9227 24.1316ZM65.0959 20.0806C65.0216 20.2526 64.6813 21.121 65.0372 21.8462C65.2706 22.3218 65.7712 22.6721 66.5282 22.891C66.9278 21.5597 68.2191 18.1535 71.4351 15.9846C69.7982 16.1083 67.3023 16.8976 65.0959 20.0806Z" fill="#000072"/>
<path d="M69.2334 25.9001C69.6376 25.5215 70.0038 25.1413 70.3366 24.7611C74.4307 20.0885 73.3671 15.5647 73.3671 15.5647C68.4077 17.3752 67.0382 22.3407 67.0382 22.3407C66.3123 25.4859 69.2334 25.9001 69.2334 25.9001Z" fill="#FF8DC1"/>
<g opacity="0.3">
<path d="M69.2334 25.9001C69.6376 25.5215 70.0037 25.1413 70.3366 24.7611C70.0774 24.2985 69.7344 23.7194 69.3745 23.2008C69.0144 22.6819 68.9192 22.0216 69.1133 21.4174C69.5509 20.0549 70.6603 17.6484 73.3671 15.5647C68.4077 17.3752 67.0382 22.3407 67.0382 22.3407C66.3122 25.4859 69.2334 25.9001 69.2334 25.9001Z" fill="#000072"/>
</g>
<path d="M69.233 26.4671C69.2076 26.4671 69.182 26.4653 69.1564 26.4617C69.096 26.4531 67.6678 26.2376 66.8745 25.0553C66.3646 24.2954 66.2378 23.3385 66.4978 22.2113C66.4996 22.2033 66.5016 22.1954 66.5038 22.1875C66.5629 21.9733 68.0113 16.9194 73.1801 15.0316C73.3284 14.9773 73.4924 14.9902 73.6309 15.0667C73.7695 15.1432 73.8697 15.2763 73.9065 15.4326C73.9603 15.6618 75.1617 21.1051 69.6085 26.3177C69.5055 26.4144 69.3712 26.4671 69.233 26.4671ZM67.5744 22.4856C67.3932 23.283 67.4656 23.9321 67.7899 24.4153C68.146 24.946 68.7386 25.1854 69.0688 25.2822C72.8864 21.5717 73.0409 17.8408 72.9189 16.3571C68.9077 18.1728 67.6431 22.2535 67.5744 22.4856Z" fill="#000072"/>
<path d="M72.01 43.1878H31.1372C31.1372 43.1878 30.0309 33.1323 34.2993 25.1446C34.3009 25.1413 34.3009 25.1397 34.3009 25.1397C37.1095 19.8814 42.2513 15.5211 51.5728 15.5211C52.107 15.5211 52.6268 15.5356 53.134 15.5647C62.904 16.1019 67.7066 21.7145 70.0319 27.7413C72.8944 35.1515 72.01 43.1878 72.01 43.1878Z" fill="white"/>
<path d="M70.0322 27.7413C68.4821 28.5018 66.7449 28.9273 64.9094 28.9273C58.3697 28.9273 53.0678 23.5153 53.0678 16.8397C53.0678 16.4093 53.09 15.9838 53.1344 15.5647C62.9044 16.1019 67.707 21.7145 70.0322 27.7413Z" fill="#5D5C70"/>
<g opacity="0.3">
<path d="M68.8337 25.1446C68.8719 25.3224 70.5376 29.5803 70.7114 36.8616C70.7394 38.0367 69.6083 38.8789 68.5254 38.479C66.0376 37.5604 61.0253 36.4021 51.5665 36.4021C42.1076 36.4021 37.0954 37.5605 34.6075 38.479C33.5247 38.8789 32.3936 38.0367 32.4216 36.8616C32.5954 29.5803 34.2611 25.3224 34.2993 25.1446C30.0309 33.1323 31.1372 43.1878 31.1372 43.1878H51.5665H71.9957C71.9957 43.1878 73.1021 33.1323 68.8337 25.1446Z" fill="#000072"/>
</g>
<path d="M72.5063 43.7548H30.6421L30.5867 43.2518C30.5713 43.111 30.2136 39.7553 30.7343 35.343C31.2173 31.2501 32.586 25.4657 36.3636 21.1523C39.9648 17.0404 45.0824 14.9555 51.5741 14.9555C58.0659 14.9555 63.1835 17.0404 66.7847 21.1524C70.5623 25.4657 71.9311 31.2501 72.4141 35.343C72.9348 39.7553 72.5771 43.111 72.5616 43.2518L72.5063 43.7548ZM31.6479 42.6223H71.5005C71.6738 40.1206 72.0694 28.8813 65.9541 21.9032C62.5726 18.0446 57.7345 16.0881 51.5741 16.0881C45.4138 16.0881 40.5758 18.0446 37.1942 21.9032C31.079 28.8813 31.4747 40.1206 31.6479 42.6223Z" fill="#000072"/>
<path d="M61.1347 38.7593C63.078 38.7593 64.6533 36.7751 64.6533 34.3276C64.6533 31.88 63.078 29.8959 61.1347 29.8959C59.1915 29.8959 57.6161 31.88 57.6161 34.3276C57.6161 36.7751 59.1915 38.7593 61.1347 38.7593Z" fill="#000072"/>
<path d="M60.3626 35.254C61.1181 35.254 61.7306 34.6288 61.7306 33.8576C61.7306 33.0864 61.1181 32.4612 60.3626 32.4612C59.607 32.4612 58.9945 33.0864 58.9945 33.8576C58.9945 34.6288 59.607 35.254 60.3626 35.254Z" fill="white"/>
<path d="M42.0127 38.7593C43.956 38.7593 45.5313 36.7751 45.5313 34.3276C45.5313 31.88 43.956 29.8959 42.0127 29.8959C40.0694 29.8959 38.4941 31.88 38.4941 34.3276C38.4941 36.7751 40.0694 38.7593 42.0127 38.7593Z" fill="#000072"/>
<path d="M42.7845 35.254C43.54 35.254 44.1525 34.6288 44.1525 33.8576C44.1525 33.0864 43.54 32.4612 42.7845 32.4612C42.0289 32.4612 41.4164 33.0864 41.4164 33.8576C41.4164 34.6288 42.0289 35.254 42.7845 35.254Z" fill="white"/>
<path d="M51.5608 59.4834C68.9054 59.4834 73.4566 55.1844 73.4566 46.1008C73.4566 41.4171 67.6385 38.9226 62.0021 37.6049C55.1425 36.0013 48.0037 36.0017 41.1437 37.6036C35.5025 38.9209 29.6772 41.4155 29.6772 46.1008C29.6772 55.1844 34.2285 59.4834 51.5731 59.4834" fill="#FFAEBF"/>
<g opacity="0.7">
<path d="M62.0021 37.6049C55.1425 36.0012 48.0037 36.0017 41.1437 37.6036C35.5025 38.9209 29.6772 41.4155 29.6772 46.1008C29.6772 46.4809 29.6859 46.8518 29.7025 47.2151C29.9816 44.1876 32.7681 42.1237 36.264 40.7195C36.2667 40.7364 36.2694 40.7532 36.2738 40.7697C36.4609 41.457 38.2096 41.5612 40.1797 41.0025C41.7925 40.5451 43.0534 39.7853 43.3551 39.1477C43.4743 38.8959 43.6886 38.7032 43.9589 38.6577C49.9419 37.6504 56.0761 37.8375 62.0021 39.2229C67.4326 40.4924 73.0296 42.8552 73.4314 47.2151C73.4479 46.8518 73.4567 46.4809 73.4567 46.1008C73.4567 41.4171 67.6385 38.9226 62.0021 37.6049Z" fill="white"/>
</g>
<g opacity="0.3">
<path d="M42.2855 42.8189C42.7416 42.6261 42.9581 42.0924 42.7692 41.6269C42.5803 41.1615 42.0575 40.9404 41.6015 41.1332C41.1455 41.326 40.9289 41.8597 41.1178 42.3252C41.3067 42.7907 41.8295 43.0117 42.2855 42.8189Z" fill="#000072"/>
</g>
<g opacity="0.3">
<path d="M61.8347 42.6209C62.1837 42.2647 62.1837 41.6871 61.8347 41.3308C61.4857 40.9746 60.9198 40.9746 60.5708 41.3308C60.2218 41.6871 60.2218 42.2647 60.5708 42.621C60.9198 42.9772 61.4857 42.9772 61.8347 42.6209Z" fill="#000072"/>
</g>
<g opacity="0.3">
<path d="M51.5669 56.4093C51.569 56.4093 51.571 56.4093 51.573 56.4093H51.5608C51.5629 56.4094 51.5649 56.4093 51.5669 56.4093C35.6182 56.4084 30.4898 52.7708 29.7697 45.1196C29.7111 45.4359 29.6772 45.762 29.6772 46.1008C29.6772 55.1832 34.2274 59.4824 51.5669 59.4834C68.9064 59.4823 73.4566 55.1832 73.4566 46.1008C73.4566 45.7619 73.4228 45.4358 73.3641 45.1195C72.6441 52.7707 67.5158 56.4084 51.5669 56.4093Z" fill="#000072"/>
</g>
<path d="M51.5731 60.0497C51.5689 60.0497 51.5651 60.0497 51.5609 60.0497C42.9007 60.0487 37.2619 58.9753 33.817 56.6721C30.5703 54.5016 29.1225 51.2412 29.1225 46.1007C29.1225 43.7609 30.4277 41.7448 33.0018 40.1086C34.9562 38.8661 37.6539 37.8376 41.02 37.0516C47.9259 35.4389 55.2243 35.4396 62.1261 37.0529C65.4889 37.839 68.184 38.8677 70.1366 40.11C72.7078 41.7461 74.0115 43.7615 74.0115 46.1007C74.0115 51.2412 72.5637 54.5016 69.317 56.6721C65.872 58.9754 60.2332 60.0487 51.5731 60.0497ZM51.5717 36.9749C48.1052 36.9749 44.6386 37.3684 41.2674 38.1556C36.2331 39.3313 30.232 41.6641 30.232 46.1007C30.232 50.8179 31.5252 53.7861 34.4249 55.7246C37.6818 57.9023 43.1289 58.9167 51.567 58.9172C60.0049 58.9167 65.4521 57.9023 68.709 55.7246C71.6088 53.7861 72.9019 50.8179 72.9019 46.1007C72.9019 41.6652 66.9072 39.3326 61.8783 38.1569C58.5076 37.3689 55.0397 36.9749 51.5717 36.9749Z" fill="#000072"/>
<path d="M41.8873 42.5645C42.3234 42.5645 42.677 42.2036 42.677 41.7584C42.677 41.3132 42.3234 40.9523 41.8873 40.9523C41.4511 40.9523 41.0976 41.3132 41.0976 41.7584C41.0976 42.2036 41.4511 42.5645 41.8873 42.5645Z" fill="#000072"/>
<path d="M61.2583 42.5645C61.6945 42.5645 62.048 42.2036 62.048 41.7584C62.048 41.3132 61.6945 40.9523 61.2583 40.9523C60.8222 40.9523 60.4687 41.3132 60.4687 41.7584C60.4687 42.2036 60.8222 42.5645 61.2583 42.5645Z" fill="#000072"/>
<path d="M56.2648 51.8551C56.0508 52.2224 55.7813 52.5799 55.4532 52.9148C53.3277 55.078 49.8185 55.078 47.693 52.9148C47.3649 52.5799 47.0954 52.2224 46.8831 51.8551C45.5754 49.6207 46.2601 47.045 47.4933 47.4042C47.5139 47.4107 47.5329 47.4155 47.5519 47.422C50.1799 48.1808 52.9663 48.1808 55.5943 47.422C55.6133 47.4155 55.6323 47.4106 55.653 47.4042C56.8861 47.045 57.5708 49.6207 56.2648 51.8551Z" fill="#000072"/>
<path d="M56.2645 51.8551C56.0505 52.2224 55.781 52.5799 55.4529 52.9148C53.3274 55.078 49.8182 55.078 47.6927 52.9148C47.3646 52.5799 47.0951 52.2224 46.8827 51.8551C46.8827 51.8551 47.111 51.5962 47.5231 51.2565C48.8149 50.1951 51.9231 48.341 55.5132 51.195C55.7604 51.3907 56.0124 51.6108 56.2645 51.8551Z" fill="#FF489B"/>
<path d="M51.5728 55.0317C50.0458 55.0317 48.5189 54.4409 47.3564 53.2593C45.6052 51.479 45.3338 48.9641 46.0866 47.6549C46.446 47.03 47.0207 46.7618 47.6237 46.9377L47.6797 46.9539C50.2273 47.6894 52.9183 47.6894 55.464 46.9544L55.5213 46.9378C56.1248 46.7613 56.6995 47.0298 57.0589 47.655C57.8117 48.964 57.5403 51.479 55.7891 53.2593C54.6267 54.4409 53.0997 55.0317 51.5728 55.0317ZM48.0275 52.5714C49.9823 54.5586 53.1631 54.5584 55.118 52.5714C56.6074 51.0571 56.726 48.9938 56.2387 48.1464C56.0376 47.7967 55.8524 47.8506 55.783 47.871L55.7211 47.8889C53.0077 48.6724 50.1376 48.6722 47.4225 47.8884L47.3615 47.8707C47.2927 47.8508 47.1078 47.7964 46.9067 48.1464C46.4194 48.9939 46.5381 51.0573 48.0275 52.5714Z" fill="#000072"/>
<path d="M80.9291 61.6492C80.9291 61.6492 81.8291 65.0942 77.1687 65.6852L70.4579 71.8051C70.6768 73.3026 70.7084 74.3146 70.7084 74.3146C71.2558 74.6101 71.8168 74.9776 72.3733 75.388C74.1102 76.668 75.7962 78.3583 76.8717 79.5082C77.5917 80.2799 78.0371 80.8096 78.0371 80.8096C83.0515 79.3673 85.3659 83.4676 84.304 88.9796C83.2435 94.4917 78.4707 102.317 67.7189 94.1472C56.9672 85.9771 42.6006 91.3912 32.6199 96.5097C22.6407 101.628 17.4328 93.2116 18.7348 86.4701C19.9212 80.3273 24.6806 80.9796 25.5191 81.1434C25.5326 81.1449 25.5446 81.148 25.5551 81.1511C25.5701 81.1541 25.5821 81.1572 25.5941 81.1587C25.6106 81.1633 25.6226 81.1648 25.6316 81.1679C25.6406 81.1694 25.645 81.171 25.645 81.171C25.864 80.5891 26.17 80.0257 26.5315 79.4898C28.345 76.7889 31.5114 74.7893 31.5114 74.7893C31.2699 72.6564 31.6884 69.6554 31.6884 69.6554L30.3039 67.8319L22.2056 57.1539C18.9927 56.4649 19.0242 53.0536 19.0242 53.0536C13.0934 50.8886 13.2869 43.8011 19.7952 41.0451C26.305 38.2891 29.6634 45.9661 29.6634 45.9661C34.4843 47.7712 32.3633 51.6097 32.3633 51.6097L37.2652 61.2359C40.7526 62.8986 46.6654 63.5187 46.6654 63.5187C46.8259 64.9136 48.4024 65.6776 48.4024 65.6776C48.7174 68.6464 51.2088 68.8072 51.5313 68.8164H51.5673C54.5717 68.8164 54.6407 65.6776 54.6407 65.6776C56.5741 64.5874 56.4227 63.5984 56.4227 63.5984C62.7675 62.7379 65.6819 61.3247 65.7719 61.2818L65.7734 61.2802C65.7748 61.2787 65.7779 61.2757 65.7794 61.2741C65.8004 61.2511 65.8844 61.1577 66.0133 61.0138C66.0178 61.0108 66.0194 61.0093 66.0194 61.0062C66.5623 60.4014 67.8718 58.9132 68.6593 57.8031C68.6593 57.8031 67.1653 54.1851 72.0342 52.7091C72.0342 52.7091 75.5291 47.7054 80.6724 48.6562C85.8159 49.6085 90.5408 60.3692 80.9291 61.6492Z" fill="white"/>
<path d="M61.3495 90.1233C61.3495 90.3805 61.3405 90.6347 61.321 90.8873C55.0917 89.0163 48.2789 90.1892 42.0481 92.3786C41.8846 91.6544 41.7976 90.8996 41.7976 90.1233C41.7976 84.6113 46.1744 80.1435 51.5743 80.1435C56.9726 80.1435 61.3495 84.6113 61.3495 90.1233Z" fill="#FFAEBF"/>
<path d="M34.9337 76.135C34.9337 78.6354 32.9478 80.6625 30.4983 80.6625C29.0599 80.6625 27.7804 79.9628 26.9704 78.8788C28.8124 76.4918 31.5108 74.7892 31.5108 74.7892C31.4013 73.8246 31.4268 72.6839 31.4883 71.7224C33.4607 72.1802 34.9337 73.9823 34.9337 76.135Z" fill="#5D5C70"/>
<path d="M32.7409 49.4447C32.7364 49.6606 32.7275 49.8704 32.7139 50.074C32.6915 50.4001 32.6569 50.7125 32.6104 51.011C32.6059 51.0371 32.603 51.0631 32.5984 51.0876C32.5579 51.3311 32.51 51.5653 32.456 51.7904C30.7655 58.6988 22.2052 57.1539 22.2052 57.1539C20.4248 56.7727 19.6403 55.5539 19.2953 54.5434C19.0178 53.7319 19.0238 53.0536 19.0238 53.0536C17.6319 52.5453 16.5759 51.7659 15.8619 50.8335C13.5325 47.7988 14.8149 43.1534 19.7948 41.0451C26.3046 38.2891 29.663 45.9661 29.663 45.9661C31.688 46.724 32.4875 47.8402 32.7349 48.8813C32.7425 49.0665 32.7439 49.2548 32.7409 49.4447Z" fill="#5D5C70"/>
<path d="M28.3931 97.9596C27.5321 98.1954 26.4896 98.2076 25.2387 97.929C25.2357 97.929 25.2327 97.9275 25.2297 97.9275C25.1426 97.9076 25.0557 97.8892 24.9687 97.8708C24.9672 97.8708 24.9642 97.8693 24.9627 97.8693C20.0983 96.721 17.8244 91.186 18.7348 86.4702C20.0128 79.8542 25.4366 81.1205 25.6391 81.1695C25.6436 81.1695 25.6451 81.171 25.6451 81.171C25.6451 81.171 29.053 82.0575 30.9175 86.683C32.4609 90.5153 32.5525 96.8296 28.3931 97.9596Z" fill="#5D5C70"/>
<path d="M84.3035 88.9796C83.57 92.7951 81.0561 97.7192 76.0132 97.6779H76.0117C70.2864 94.9617 73.8908 85.4688 73.8908 85.4688C75.5782 80.9505 78.0367 80.8096 78.0367 80.8096C78.0367 80.8096 78.0427 80.8081 78.0547 80.8035C83.0571 79.378 85.364 83.4737 84.3035 88.9796Z" fill="#5D5C70"/>
<path d="M83.7963 60.8101C83.0313 61.2052 82.0833 61.4961 80.9284 61.6492C80.9284 61.6492 81.0784 62.2234 80.9389 62.943C80.7379 63.9857 79.9264 65.3361 77.168 65.6852C70.1392 65.6852 69.1762 59.8655 68.6617 57.8122C68.6332 57.8505 68.6062 57.8842 68.6017 57.8873C68.6047 57.8811 68.6212 57.8551 68.6587 57.8031L68.6572 57.8015C68.6347 57.7433 67.9522 56.0132 69.1477 54.4729C69.6727 53.7961 70.5636 53.1546 72.0336 52.709C72.0336 52.709 75.5285 47.7054 80.6719 48.6562C85.1972 49.4937 89.3986 57.924 83.7963 60.8101Z" fill="#5D5C70"/>
<g opacity="0.3">
<path d="M51.5312 68.8158C47.3704 68.8031 46.8831 66.538 46.8831 66.538C45.3966 65.7832 45.0921 64.6027 45.0921 64.6027C37.6673 63.3227 37.2653 61.2358 37.2653 61.2358C40.7527 62.8986 46.6656 63.5187 46.6656 63.5187C46.8261 64.9135 48.4025 65.6775 48.4025 65.6775C48.7177 68.6457 51.2087 68.8076 51.5312 68.8158Z" fill="#000072"/>
</g>
<g opacity="0.3">
<path d="M56.4224 63.5983C62.7673 62.7378 65.6817 61.3246 65.7717 61.2817C62.7402 64.1617 57.6659 64.8645 57.6659 64.8645C56.9984 66.4232 55.8344 66.9238 55.8344 66.9238C54.9915 69.5237 51.5671 68.8163 51.5671 68.8163C54.5715 68.8163 54.6405 65.6775 54.6405 65.6775C56.5739 64.5874 56.4224 63.5983 56.4224 63.5983Z" fill="#000072"/>
</g>
<g opacity="0.3">
<path d="M32.7141 50.074C32.6916 50.4001 32.6571 50.7125 32.6106 51.011C32.6061 51.0371 32.6031 51.0631 32.5986 51.0876L32.3631 51.6097C32.3631 51.6097 32.1621 53.963 29.1967 54.358C27.4717 54.5869 26.3182 54.2205 25.655 53.874C25.1821 53.6268 24.6241 53.6244 24.1471 53.8631C23.1763 54.349 21.4108 54.9741 19.2954 54.5433C19.0179 53.7318 19.0239 53.0536 19.0239 53.0536C17.632 52.5452 16.576 51.7659 15.862 50.8334L16.003 50.8166C16.003 50.8166 20.3544 52.729 22.9059 50.8166C25.7423 48.6899 26.0948 46.6719 25.2923 44.6615C25.2923 44.6615 26.2328 44.98 26.7863 46.946C26.7863 46.946 27.2575 47.7726 27.3503 49.0248C27.4615 50.5252 28.8696 51.572 30.2848 51.1509C30.9653 50.9482 31.7707 50.6104 32.7141 50.074Z" fill="#000072"/>
</g>
<g opacity="0.7">
<path d="M19.7948 41.045C14.8149 43.1533 13.5325 47.7987 15.8619 50.8334C15.8881 50.8676 15.918 50.9 15.9451 50.9338C15.1841 49.213 15.3774 47.1968 16.5333 45.4436C16.9518 45.5757 17.7566 45.2307 18.4996 44.5645C19.2253 43.9139 19.6614 43.1641 19.6123 42.7188C19.9078 42.5593 20.2173 42.4085 20.5448 42.2699C24.9935 40.3864 27.97 43.3752 29.4092 45.4568C28.5159 43.7894 25.2703 38.7269 19.7948 41.045Z" fill="white"/>
</g>
<g opacity="0.3">
<path d="M80.9283 61.6492C80.9283 61.6492 81.0783 62.2234 80.9389 62.943C79.9312 62.9605 78.2079 62.7724 76.7368 61.5385C76.1557 61.0511 75.3579 60.9632 74.6866 61.3093C73.2794 62.0345 70.7717 62.4041 68.6617 57.8122V57.8107C68.6617 57.8077 68.6602 57.8061 68.6587 57.8031L68.6572 57.8015C68.6347 57.7433 67.9522 56.0132 69.1477 54.4729C69.1477 54.4729 69.0336 57.0682 71.8902 58.0915C72.6881 58.3774 73.4957 57.7171 73.4205 56.8574C73.2864 55.3235 73.6065 53.1496 76.268 52.4625C76.268 52.4625 74.2566 59.9068 83.7963 60.8101C83.0313 61.2052 82.0833 61.4961 80.9283 61.6492Z" fill="#000072"/>
</g>
<g opacity="0.7">
<path d="M80.6721 48.6561C75.5287 47.7053 72.0338 52.709 72.0338 52.709L72.0383 52.7136C73.3943 51.3019 76.1812 49.0634 79.7721 49.7279C80.6002 49.8813 81.4174 50.289 82.1656 50.8703C81.9176 51.2762 82.2243 52.2302 82.9181 53.1261C83.6015 54.0085 84.4254 54.5312 84.8744 54.4009C85.7166 56.2985 85.8986 58.4182 84.9095 60.0599C88.7554 56.6838 84.8525 49.4294 80.6721 48.6561Z" fill="white"/>
</g>
<g opacity="0.3">
<path d="M35.1273 73.4112C35.1273 73.4112 33.2943 73.6409 31.5109 74.7892C31.2694 72.6564 31.6879 69.6554 31.6879 69.6554L30.3034 67.8319C31.0004 66.8155 32.1041 65.522 33.6225 64.6844C33.7831 64.5958 33.9678 64.7502 33.9107 64.9272C33.6233 65.8173 33.0594 68.0776 32.7409 72.788C32.7409 72.788 34.0173 73.0269 35.1273 73.4112Z" fill="#000072"/>
</g>
<g opacity="0.3">
<path d="M30.9171 86.6829C28.6357 81.8262 25.6447 81.1709 25.6447 81.1709C25.8637 80.5891 26.1697 80.0256 26.5312 79.4897C30.5331 81.2566 30.9171 86.6829 30.9171 86.6829Z" fill="#000072"/>
</g>
<g opacity="0.3">
<path d="M72.3731 75.3879C71.6261 78.2924 69.7362 79.8419 69.6657 79.8986C71.3186 76.9451 70.7082 74.3146 70.7082 74.3146C71.2556 74.6101 71.8166 74.9776 72.3731 75.3879Z" fill="#000072"/>
</g>
<g opacity="0.3">
<path d="M77.1682 65.6852L70.4574 71.8051C70.4574 71.8051 70.3224 69.4166 69.4059 67.7936C69.4059 67.7936 69.7961 67.9956 70.201 68.3922C70.7016 68.8825 71.4607 68.9701 72.05 68.5964C73.1651 67.8892 74.9957 66.7839 77.1682 65.6852Z" fill="#000072"/>
</g>
<g opacity="0.3">
<path d="M84.3034 86.3767C83.2429 91.8887 78.4701 99.7142 67.7184 91.5442C56.9666 83.3742 42.6 88.7882 32.6193 93.9067C24.2807 98.1838 19.2746 93.01 18.6133 87.2601C17.8439 93.8433 23.0265 101.43 32.6193 96.5096C42.6 91.3911 56.9666 85.977 67.7184 94.1471C78.4701 102.317 83.2429 94.4916 84.3034 88.9796C84.5671 87.6107 84.6221 86.3293 84.4798 85.1979C84.438 85.5827 84.3807 85.9754 84.3034 86.3767Z" fill="#000072"/>
</g>
<g opacity="0.3">
<path d="M78.0368 80.8096C78.0368 80.8096 75.4989 81.4327 73.891 85.4688C73.891 85.4688 72.9415 81.7374 76.8714 79.5081C77.5914 80.2798 78.0368 80.8096 78.0368 80.8096Z" fill="#000072"/>
</g>
<path d="M26.8476 98.645C24.9424 98.645 23.2144 98.0794 21.757 96.9486C18.8383 94.6842 17.405 90.429 18.1906 86.3605C18.6393 84.0361 19.6282 82.3652 21.1295 81.3945C22.7399 80.3535 24.4852 80.423 25.3062 80.5348C26.6359 77.5751 29.9179 75.1853 30.9263 74.5014C30.7831 72.7078 31.019 70.5339 31.1078 69.8148L21.8885 57.6608C19.4199 57.0262 18.6082 54.8309 18.4861 53.4502C15.8463 52.3616 14.2469 50.2332 14.1852 47.6946C14.1126 44.7109 16.1809 41.9626 19.5829 40.5221C25.8592 37.8644 29.423 44.2339 30.0645 45.5164C31.6713 46.1621 32.7092 47.1092 33.1511 48.3336C33.6496 49.7155 33.2238 51.0329 32.983 51.5995L37.6689 60.802C41.0516 62.3454 46.6649 62.9498 46.7222 62.9559C46.9807 62.9831 47.1861 63.1898 47.2163 63.4533C47.3379 64.5128 48.6283 65.1598 48.6414 65.1662C48.8138 65.2511 48.9327 65.4217 48.9534 65.6159C49.2333 68.2486 51.4672 68.2489 51.5602 68.2496C54.0013 68.2496 54.0844 65.7706 54.0867 65.6651C54.0911 65.4636 54.2002 65.2797 54.373 65.1823C55.7337 64.4147 55.8581 63.7773 55.8693 63.6665C55.8314 63.5158 55.8648 63.3858 55.9496 63.2529C56.0379 63.1144 56.189 63.058 56.3494 63.0363C61.9997 62.2709 64.91 61.0517 65.4413 60.8127C65.7752 60.4431 67.1568 58.9006 68.0429 57.701C67.897 57.1674 67.7095 56.0457 68.2481 54.8823C68.8068 53.6755 69.9674 52.7809 71.6987 52.2215C72.3732 51.3307 75.8146 47.1834 80.7713 48.0996C84.0226 48.7012 87.1258 52.9031 87.0364 56.5831C86.9654 59.5064 84.9747 61.5043 81.5487 62.1251C81.5748 62.6778 81.4996 63.5181 80.9735 64.3146C80.2984 65.3362 79.1004 65.9779 77.4112 66.2233L71.0496 72.025C71.1694 72.906 71.2232 73.5905 71.2464 73.9688C74.1941 75.6683 77.3543 79.171 78.2277 80.1738C80.7899 79.5414 82.365 80.3681 83.2447 81.1964C84.9249 82.778 85.5096 85.6547 84.8488 89.0889C84.5425 90.6803 83.202 96.0069 78.8097 97.7379C75.6225 98.9942 71.7797 97.9389 67.3879 94.6016C59.3044 88.4594 48.0132 89.2488 32.8691 97.0156C30.7509 98.102 28.7141 98.645 26.8476 98.645ZM24.4039 81.6099C23.6584 81.6099 22.6447 81.7518 21.7128 82.358C20.4845 83.1572 19.6656 84.5775 19.2791 86.5794C18.5847 90.1765 19.8796 94.0697 22.4284 96.047C24.2181 97.4356 27.396 98.5551 32.3711 96.0036C38.9527 92.6282 44.6524 90.5943 49.796 89.7858C57.0055 88.6528 63.1471 89.9673 68.0504 93.6932C72.1166 96.7827 75.6019 97.7875 78.4101 96.6815C81.4792 95.4719 83.1861 91.8536 83.7601 88.8707C84.3363 85.8761 83.8625 83.3185 82.4926 82.0288C81.4745 81.0706 79.9856 80.8376 78.1874 81.3553C77.9797 81.4149 77.7568 81.3462 77.6161 81.1793C77.5775 81.1334 73.7223 76.5796 70.4493 74.8146C70.2731 74.7196 70.1603 74.5352 70.1539 74.332C70.1537 74.3221 70.1203 73.3312 69.9095 71.8886C69.882 71.7 69.9493 71.5098 70.0886 71.3828L76.7993 65.2627C76.8835 65.1859 76.9886 65.1373 77.1006 65.123C78.5417 64.9404 79.5326 64.4594 80.0457 63.6934C80.6362 62.8118 80.3952 61.8022 80.3927 61.792C80.3538 61.6352 80.3821 61.4669 80.4711 61.3332C80.5602 61.1992 80.7007 61.1088 80.8579 61.088C84.0663 60.6607 85.8667 59.051 85.9273 56.5551C86.0034 53.4237 83.3014 49.7188 80.5735 49.2141C75.8471 48.3398 72.5186 52.991 72.4856 53.0382C72.4138 53.1404 72.3103 53.216 72.1922 53.2516C70.6852 53.7086 69.6978 54.4156 69.2576 55.3529C68.7347 56.4662 69.1673 57.5744 69.1717 57.5854C69.2442 57.7667 69.2212 57.9762 69.1086 58.1347C68.0877 59.5739 66.2559 61.5823 66.1784 61.6671C66.1319 61.7181 66.0768 61.7596 66.0155 61.79C65.8963 61.8493 63.0828 63.222 56.9138 64.1009C56.7718 64.5857 56.3508 65.2933 55.1737 66.0181C55.0271 67.3393 54.1477 69.3822 51.5671 69.3822C51.5563 69.3824 51.5451 69.3824 51.5341 69.3824C50.4195 69.3825 48.3124 68.6786 47.8897 66.0351C47.4283 65.7519 46.5211 65.0815 46.2073 64.036C44.7988 63.8633 40.0723 63.1991 37.03 61.7495C36.9194 61.6967 36.8288 61.6081 36.7726 61.4974L31.8709 51.871C31.7844 51.7013 31.7878 51.4983 31.8799 51.3317C31.8859 51.3205 32.5808 50.0146 32.1065 48.7156C31.7609 47.7691 30.8746 47.0232 29.4721 46.4982C29.3315 46.4456 29.2177 46.3372 29.1566 46.1975C29.028 45.9053 25.9351 39.0587 20.0081 41.5682C17.0397 42.8252 15.2335 45.1619 15.2944 47.6665C15.347 49.8294 16.8112 51.6439 19.2109 52.5203C19.4335 52.6016 19.5811 52.8177 19.5789 53.0589C19.5785 53.1777 19.6019 56.0176 22.3202 56.6003C22.4491 56.6281 22.5642 56.7015 22.6449 56.8078L32.1267 69.3083C32.2186 69.4292 32.2584 69.583 32.2374 69.7345C32.2333 69.7639 31.8326 72.6911 32.0624 74.7248C32.087 74.9427 31.986 75.1557 31.8032 75.2712C31.7594 75.2989 27.3976 78.0859 26.1635 81.3739C26.0628 81.6416 25.7816 81.7911 25.5098 81.7203C25.5009 81.7181 25.0545 81.6099 24.4039 81.6099Z" fill="#000072"/>
<path d="M19.166 52.5059L19.3441 52.5341C19.4081 52.5445 19.4732 52.5531 19.5396 52.5599C19.6706 52.5772 19.8051 52.5837 19.9377 52.5958C20.2046 52.6099 20.4725 52.6154 20.7378 52.6C21.2691 52.5767 21.791 52.487 22.2861 52.3351C22.7802 52.18 23.2487 51.9576 23.6618 51.6529C23.714 51.6157 23.769 51.5821 23.8193 51.5423L23.9643 51.4146C24.0608 51.3254 24.1595 51.2547 24.2558 51.1517L24.5487 50.8552C24.6464 50.7564 24.7339 50.6504 24.8273 50.5484C25.5469 49.7235 26.1517 48.7721 26.2738 47.7541C26.3288 47.2481 26.2745 46.7434 26.1181 46.2331C25.9659 45.7182 25.7001 45.2168 25.4122 44.6623C25.967 44.9205 26.4518 45.3476 26.7987 45.9049C26.8793 46.0473 26.9716 46.187 27.0234 46.3467C27.0827 46.5028 27.151 46.6587 27.1794 46.8259C27.2596 47.1552 27.2837 47.4994 27.2645 47.8358C27.2305 48.5131 27.0333 49.1594 26.7614 49.7452C26.4866 50.3327 26.1202 50.8512 25.7331 51.3397C25.6334 51.4588 25.5378 51.5834 25.4341 51.698L25.1202 52.0391C25.0178 52.1523 24.8836 52.2613 24.7659 52.3717L24.583 52.5365C24.5197 52.5883 24.4513 52.6338 24.3855 52.6827C24.2507 52.7756 24.1232 52.8813 23.9812 52.962L23.5545 53.204C23.2584 53.3388 22.9597 53.469 22.6497 53.558C22.0337 53.7494 21.3972 53.8338 20.7684 53.8414C20.4534 53.8499 20.1404 53.8218 19.8289 53.7895C19.6731 53.7687 19.5183 53.7475 19.363 53.7152C19.2857 53.7011 19.2079 53.6847 19.1295 53.6659C19.0488 53.6479 18.9788 53.6284 18.882 53.6007C18.5876 53.5163 18.4159 53.2044 18.4985 52.9038C18.575 52.6253 18.8432 52.4543 19.1165 52.4979L19.166 52.5059Z" fill="#000072"/>
<path d="M27.1202 47.3577L26.3552 46.5374C26.4048 46.4887 27.5937 45.3452 29.6772 45.4004L29.6486 46.5326C28.0522 46.4935 27.1574 47.3224 27.1202 47.3577Z" fill="#000072"/>
<path d="M28.2323 53.9527C27.9381 53.9527 27.649 53.9245 27.3648 53.8676C25.3624 53.4675 24.401 51.7915 24.3611 51.7204L25.3237 51.1571L24.8424 51.4387L25.3224 51.1549C25.3299 51.1681 26.0896 52.4659 27.5925 52.759C28.8886 53.0116 30.3787 52.4751 32.0212 51.1638L32.7048 52.0557C31.1248 53.3171 29.6244 53.9527 28.2323 53.9527Z" fill="#000072"/>
<path d="M37.7681 60.9992C37.8331 61.1766 37.8939 61.3722 37.9488 61.565C38.0046 61.759 38.0566 61.956 38.107 62.1551C38.1562 62.3548 38.2073 62.5545 38.2514 62.7596C38.2973 62.9637 38.3444 63.1685 38.3811 63.382C38.216 63.2467 38.0627 63.1017 37.9153 62.9521C37.7648 62.8041 37.6263 62.6479 37.4894 62.4897C37.3533 62.3311 37.2233 62.1681 37.1008 62.0002C36.9775 61.8309 36.8633 61.6628 36.7604 61.4732L37.7681 60.9992Z" fill="#000072"/>
<path d="M31.143 69.5485C31.2216 69.2439 31.3128 68.9616 31.4154 68.6742C31.5186 68.389 31.6308 68.1072 31.7558 67.8297C31.8836 67.5533 32.0111 67.2777 32.1684 67.0144C32.3262 66.7526 32.5096 66.4995 32.7405 66.292L32.5961 67.1808C32.5443 67.4681 32.4968 67.7557 32.456 68.0438C32.4133 68.3314 32.3774 68.6204 32.3407 68.908L32.2328 69.7614L32.2323 69.7657C32.193 70.0766 31.9142 70.2962 31.6096 70.256C31.3051 70.2159 31.09 69.9314 31.1293 69.6205C31.1322 69.5969 31.1374 69.5709 31.143 69.5485Z" fill="#000072"/>
<path d="M31.2252 74.3045C31.5483 74.1341 31.8496 74.0108 32.1709 73.8954C32.4886 73.7822 32.8115 73.6866 33.1384 73.6099C33.4637 73.529 33.7949 73.4715 34.1271 73.4347C34.4587 73.3954 34.7957 73.3922 35.1273 73.4116C34.8251 73.5585 34.5295 73.6935 34.2415 73.8429C33.9522 73.9866 33.6697 74.1374 33.3913 74.292C33.1138 74.4484 32.8402 74.6079 32.5728 74.7746C32.3088 74.9385 32.0331 75.1137 31.7974 75.2748L31.7897 75.2801C31.5346 75.4545 31.1894 75.3846 31.0185 75.1243C30.8477 74.8639 30.9161 74.5114 31.1712 74.3371C31.1887 74.3251 31.207 74.3141 31.2252 74.3045Z" fill="#000072"/>
<path d="M25.7877 80.6237C25.8533 80.6412 25.8909 80.6544 25.939 80.6693C25.9866 80.6836 26.0264 80.6998 26.0704 80.7149C26.1581 80.7444 26.2394 80.7803 26.3216 80.8155C26.486 80.8857 26.6439 80.9634 26.7977 81.0483C26.9506 81.1341 27.1046 81.2177 27.248 81.3168C27.3959 81.4095 27.5371 81.5108 27.6757 81.6152C27.8184 81.7145 27.9493 81.8283 28.0805 81.9412L28.2775 82.1098L28.464 82.2894C28.7163 82.5253 28.9381 82.7897 29.1648 83.0465C29.3731 83.3196 29.5869 83.5867 29.7667 83.8774C29.8573 84.0221 29.9599 84.1579 30.039 84.3092L30.279 84.7591C30.4385 85.0583 30.549 85.3832 30.6701 85.697C30.7736 86.02 30.8542 86.3511 30.917 86.6832C30.696 86.4224 30.5097 86.1516 30.3156 85.8891L30.0189 85.5021C29.9263 85.3703 29.8321 85.2406 29.7263 85.1194L29.432 84.7431C29.3332 84.6189 29.2267 84.5018 29.1253 84.381C28.9282 84.1343 28.697 83.9208 28.4839 83.6935C28.0344 83.262 27.5581 82.8681 27.0526 82.5299C26.9273 82.4436 26.8004 82.3606 26.669 82.2867C26.54 82.2076 26.4092 82.135 26.277 82.0651C26.2118 82.0275 26.1441 81.9985 26.0778 81.9655C26.0115 81.9323 25.9453 81.8986 25.8785 81.8711C25.8118 81.8419 25.7449 81.8117 25.6801 81.7862C25.6481 81.7735 25.6134 81.7576 25.5836 81.7476L25.5038 81.7186L25.4616 81.7033C25.1734 81.5984 25.0231 81.2751 25.1257 80.981C25.2228 80.703 25.5132 80.5513 25.7877 80.6237Z" fill="#000072"/>
<path d="M71.252 74.2015C71.2864 74.3569 71.3068 74.4764 71.3221 74.6099C71.34 74.7405 71.3459 74.8697 71.3564 74.9993C71.3663 75.2579 71.3662 75.5157 71.3477 75.772C71.3349 76.0285 71.2948 76.2826 71.2583 76.5353C71.2089 76.7868 71.1563 77.0363 71.0866 77.2814C71.0538 77.4043 71.0147 77.5254 70.9716 77.6451C70.9282 77.7647 70.8935 77.8859 70.8429 78.0025C70.7399 78.2346 70.6486 78.4683 70.5208 78.6864C70.2916 79.132 69.9931 79.5373 69.6637 79.8998C69.7902 79.4168 69.9256 78.9601 70.0101 78.4933C70.1046 78.0313 70.1677 77.5696 70.2035 77.1107C70.2473 76.6532 70.2542 76.1953 70.2466 75.7429C70.2412 75.5164 70.2323 75.2911 70.2179 75.0675L70.1928 74.7352C70.1892 74.6796 70.1837 74.6258 70.178 74.5725L70.1646 74.4264L70.1602 74.3784C70.1317 74.0675 70.3555 73.7919 70.6601 73.7628C70.9408 73.736 71.192 73.928 71.252 74.2015Z" fill="#000072"/>
<path d="M78.2036 81.3503L78.137 81.3746C78.112 81.3835 78.085 81.3948 78.0579 81.4063C78.0041 81.4285 77.9498 81.4508 77.8946 81.476C77.7842 81.5221 77.6763 81.5802 77.5658 81.6317C77.3489 81.7456 77.1335 81.867 76.925 82.0018C76.5083 82.2714 76.1098 82.5802 75.7515 82.9377C75.3959 83.2961 75.0535 83.682 74.7729 84.1195C74.616 84.3287 74.4907 84.5576 74.3367 84.7783C74.1884 85.002 74.0629 85.2398 73.8903 85.4692C73.8932 85.3283 73.9065 85.1884 73.9221 85.0478C73.942 84.909 73.9504 84.7637 73.9921 84.6304C74.0617 84.3585 74.135 84.0817 74.2565 83.8265C74.4744 83.3033 74.7768 82.8143 75.1241 82.3598C75.4699 81.9022 75.883 81.4959 76.3365 81.1416C76.4476 81.0496 76.569 80.9717 76.6854 80.8862C76.8045 80.8048 76.9292 80.7311 77.0524 80.655C77.1792 80.5835 77.3056 80.5128 77.4392 80.4501C77.5042 80.4169 77.5725 80.3867 77.6421 80.358C77.6763 80.3433 77.7108 80.3287 77.7484 80.3147C77.7855 80.3006 77.8188 80.2872 77.8696 80.2702C78.1606 80.173 78.4737 80.335 78.5689 80.6321C78.6624 80.9236 78.5112 81.237 78.2304 81.3404L78.2036 81.3503Z" fill="#000072"/>
<path d="M80.9135 62.2155L80.787 62.2148C80.7472 62.2149 80.7097 62.2129 80.6725 62.2108C80.5973 62.2073 80.5225 62.2029 80.4496 62.1958C80.3014 62.1861 80.1572 62.1634 80.0115 62.1434C79.7228 62.0959 79.4355 62.0369 79.1542 61.9533C78.5897 61.7931 78.0401 61.5646 77.5232 61.2648C77.0076 60.9624 76.5316 60.5867 76.1012 60.1612C75.9957 60.0528 75.9002 59.9343 75.8002 59.8207L75.6523 59.6484L75.5204 59.4633L75.2588 59.0923L75.0335 58.7076C74.7431 58.1894 74.4967 57.6332 74.3549 57.0362C74.2063 56.4447 74.1418 55.8173 74.2245 55.1999C74.3054 54.5844 74.5319 53.9853 74.8918 53.4985C75.2491 53.0123 75.7356 52.6358 76.2693 52.4627C75.5065 53.3007 75.1924 54.2991 75.2145 55.2686C75.2351 56.2401 75.5678 57.1976 76.1123 58.0461L76.3148 58.3655L76.5394 58.6578L76.6507 58.8043L76.7762 58.9381L77.0257 59.2061C77.3739 59.5489 77.7655 59.8427 78.1826 60.1009C78.6011 60.3583 79.0566 60.5577 79.5242 60.7267C79.7591 60.8086 79.9985 60.8789 80.2397 60.9422C80.3607 60.9691 80.4821 60.9993 80.6026 61.0228C80.7198 61.0486 80.8528 61.0672 80.9462 61.0835L81.009 61.0943C81.3102 61.1466 81.5128 61.4382 81.4615 61.7456C81.4154 62.022 81.1795 62.2171 80.9135 62.2155Z" fill="#000072"/>
<path d="M72.964 61.0955C71.4638 61.0955 69.8764 60.114 68.2389 58.172C68.0391 57.935 68.0653 57.5774 68.2975 57.3734C68.5296 57.1694 68.8799 57.196 69.0799 57.4332C70.5785 59.2105 72.0096 60.0824 73.2144 59.9493C74.5681 59.8023 75.2925 58.4721 75.2997 58.4586C75.4462 58.184 75.7833 58.0826 76.0522 58.232C76.3213 58.3817 76.4206 58.7254 76.2741 59.0002C76.2336 59.0763 75.2579 60.8663 73.3318 61.0756C73.2099 61.0887 73.0871 61.0955 72.964 61.0955Z" fill="#000072"/>
<path d="M74.4384 54.6794C73.6551 53.6348 71.9412 53.2673 71.924 53.2639L72.1433 52.1535C72.2301 52.1714 74.2803 52.6051 75.3194 53.9908L74.4384 54.6794Z" fill="#000072"/>
<path d="M69.9078 71.8738C69.8898 71.5494 69.866 71.2017 69.8416 70.8634C69.8114 70.5239 69.7895 70.181 69.7492 69.8409C69.707 69.5016 69.6669 69.1598 69.6115 68.8195C69.5586 68.4781 69.4916 68.1391 69.4069 67.7931C69.6301 68.0675 69.812 68.3768 69.9803 68.6925C70.1431 69.0107 70.2842 69.3395 70.4091 69.6738C70.5335 70.0081 70.6522 70.3455 70.7493 70.6888C70.8503 71.0336 70.9391 71.3716 71.0091 71.7364C71.0681 72.0441 70.8715 72.3424 70.5701 72.4026C70.2686 72.4628 69.9764 72.2622 69.9174 71.9545C69.9127 71.9298 69.9096 71.9052 69.9081 71.8807L69.9078 71.8738Z" fill="#000072"/>
</svg>
