<svg width="42" height="50" viewBox="0 0 42 50" fill="none" xmlns="http://www.w3.org/2000/svg">
<g opacity="0.3">
<path d="M21 50.0001C31.4949 50.0001 40.0027 48.7298 40.0027 47.1629C40.0027 45.596 31.4949 44.3258 21 44.3258C10.5052 44.3258 1.99739 45.596 1.99739 47.1629C1.99739 48.7298 10.5052 50.0001 21 50.0001Z" fill="#000072"/>
</g>
<path d="M36.8409 46.6387C36.8409 46.6387 35.8068 46.5487 34.3781 46.4262C32.6301 46.2738 30.2896 46.0713 28.5282 45.9188C28.1428 45.8855 27.7565 45.9638 27.4163 46.1471C27.3677 46.1729 27.3157 46.2004 27.2587 46.2288C27.2093 46.2538 27.1556 46.2788 27.0995 46.3054C26.1425 46.7504 24.2286 47.3711 21 47.3711C18.3939 47.3711 16.6442 46.967 15.5633 46.5771C15.3052 46.4837 15.0848 46.3913 14.9004 46.3054C14.7798 46.2488 14.6742 46.1954 14.5837 46.1471C14.2435 45.9638 13.8572 45.8855 13.4717 45.9188C11.7069 46.0721 9.36065 46.2746 7.61098 46.4271C6.18728 46.5496 5.15911 46.6387 5.15911 46.6387C3.9206 48.0336 0.977672 47.5119 0.432994 44.4265C0.350036 43.9566 0.322383 43.4275 0.365119 42.8359C0.686894 38.3915 4.38567 39.8447 4.43177 39.8622C4.4326 39.863 4.4326 39.863 4.4326 39.863L5.67781 39.4405L6.72192 39.0864C6.75879 38.3265 6.84929 37.6149 6.98253 36.95C7.59174 33.9155 9.09 31.8482 10.3654 30.5742C10.4567 30.4834 10.5497 30.3951 10.6461 30.3101C10.7073 30.2551 10.7701 30.2009 10.8338 30.1484C11.0282 29.9876 11.2319 29.8385 11.4422 29.701C12.3807 29.0869 13.465 28.7095 14.5971 28.6011C15.9002 28.4762 17.9255 28.3645 21 28.3645C24.0745 28.3645 26.0999 28.4762 27.4029 28.6011C28.53 28.7086 29.6101 29.0844 30.5461 29.6927C30.8235 29.8735 31.0883 30.0743 31.3371 30.2951C31.4385 30.3851 31.5382 30.4776 31.6346 30.5742C31.8726 30.8117 32.1181 31.0775 32.3645 31.3716C33.5058 32.7331 34.6571 34.712 35.1029 37.4191C35.1901 37.9466 35.2504 38.5023 35.2781 39.0864L37.5674 39.863C37.5674 39.863 41.3114 38.3632 41.6349 42.8359C41.9583 47.3087 38.2679 48.246 36.8409 46.6387Z" fill="white"/>
<path d="M27.0996 46.3055C26.1426 46.7504 24.2287 47.3712 21 47.3712C18.394 47.3712 16.6443 46.967 15.5633 46.5771C15.3052 46.4838 15.0848 46.3913 14.9005 46.3055C15.5399 43.5425 18.0278 41.4819 21 41.4819C23.9723 41.4819 26.4602 43.5425 27.0996 46.3055Z" fill="#FFAEBF"/>
<path d="M10.8355 34.6692C10.652 36.1053 9.9181 38.7523 6.98251 36.95C7.59171 33.9155 9.08998 31.8482 10.3654 30.5742C10.5154 30.4242 10.6712 30.2826 10.8338 30.1484C11.4317 30.9926 11.9229 32.1742 11.2607 33.3408C11.029 33.749 10.8949 34.2041 10.8355 34.6692Z" fill="#5D5C70"/>
<path d="M5.15918 46.6388C3.73214 48.2461 0.0417384 47.3087 0.365196 42.836C0.688653 38.3632 4.43267 39.863 4.43267 39.863C4.43267 39.863 6.98259 42.7555 5.15918 46.6388Z" fill="#5D5C70"/>
<path d="M36.8409 46.6388C38.268 48.2461 41.9583 47.3087 41.6349 42.836C41.3114 38.3632 37.5674 39.863 37.5674 39.863C37.5674 39.863 35.0175 42.7555 36.8409 46.6388Z" fill="#5D5C70"/>
<path d="M15.5633 46.5771C15.1368 46.4229 14.8142 46.2704 14.5838 46.1471C14.2436 45.9638 13.8573 45.8855 13.4718 45.9188C11.707 46.0721 9.36074 46.2746 7.61107 46.4271C7.90771 44.514 9.57022 43.05 11.5772 43.05C13.636 43.05 15.3329 44.5915 15.5633 46.5771Z" fill="#5D5C70"/>
<path d="M35.103 37.4191C33.1422 37.2666 31.5986 35.6368 31.5986 33.6479C31.5986 32.7939 31.8835 32.0048 32.3645 31.3716C33.5058 32.7331 34.6572 34.712 35.103 37.4191Z" fill="#5D5C70"/>
<g opacity="0.3">
<path d="M36.2652 44.5766C36.2652 44.5766 35.9584 44.5998 35.3294 44.5553C34.0623 44.4656 33.0471 43.4779 32.9225 42.2209C32.8324 41.3118 32.6267 40.194 32.1809 39.0865C32.1809 39.0865 31.6647 43.8167 28.7981 43.845C25.9305 43.8733 26.3269 38.4432 26.3269 38.4432C26.3269 38.4432 25.3691 45.6498 21 45.6498C16.6308 45.6498 15.673 38.4432 15.673 38.4432C15.673 38.4432 16.0694 43.8733 13.2019 43.845C10.3352 43.8167 9.81902 39.0865 9.81902 39.0865C9.37322 40.194 9.16754 41.3118 9.07743 42.2209C8.95283 43.4779 7.93766 44.4655 6.67056 44.5553C6.04154 44.5998 5.7348 44.5766 5.7348 44.5766C2.36869 47.0763 0.432991 44.4266 0.432991 44.4266C0.977669 47.512 3.9206 48.0336 5.1591 46.6388C5.1591 46.6388 6.18728 46.5497 7.61098 46.4272C9.36065 46.2747 11.7069 46.0722 13.4717 45.9189C13.8572 45.8856 14.2435 45.9639 14.5837 46.1472C14.6742 46.1955 14.7798 46.2489 14.9004 46.3055C15.0848 46.3913 15.3052 46.4838 15.5633 46.5771C16.6442 46.9671 18.3939 47.3712 21 47.3712C23.606 47.3712 25.3557 46.9671 26.4367 46.5771C26.6948 46.4838 26.9151 46.3913 27.0995 46.3055C27.2202 46.2488 27.3257 46.1955 27.4162 46.1472C27.7565 45.9639 28.1427 45.8856 28.5282 45.9189C30.293 46.0722 32.6393 46.2747 34.3889 46.4272C35.8126 46.5497 36.8408 46.6388 36.8408 46.6388C38.0793 48.0336 41.0223 47.512 41.5669 44.4266C41.5669 44.4266 39.6312 47.0763 36.2652 44.5766Z" fill="#000072"/>
</g>
<g opacity="0.3">
<path d="M5.73488 43.345H5.65359C5.97621 40.6487 4.43268 39.863 4.43268 39.863L5.67789 39.4406C7.04209 41.5919 5.73488 43.345 5.73488 43.345Z" fill="#000072"/>
</g>
<g opacity="0.3">
<path d="M36.2652 43.345H36.3465C36.0238 40.6487 37.5674 39.863 37.5674 39.863L36.3222 39.4406C34.9579 41.5919 36.2652 43.345 36.2652 43.345Z" fill="#000072"/>
</g>
<g opacity="0.3">
<path d="M31.3372 30.295C30.6006 32.0298 28.2652 34.4112 20.9883 34.4112C13.7324 34.4112 11.3886 32.044 10.6462 30.31C10.7074 30.255 10.7702 30.2009 10.8339 30.1484C11.0283 29.9876 11.2319 29.8384 11.4423 29.701C12.7294 30.5842 15.4309 31.639 20.9883 31.639C26.5625 31.639 29.2632 30.5775 30.5462 29.6926C30.8235 29.8734 31.0883 30.0742 31.3372 30.295Z" fill="#000072"/>
</g>
<path d="M4.62271 39.5759L4.69155 39.6203C4.71278 39.6341 4.73213 39.6477 4.75086 39.6614C4.78873 39.6892 4.8263 39.7174 4.86103 39.7468C4.93331 39.8043 4.99789 39.8677 5.06423 39.9301C5.12613 39.996 5.18898 40.0613 5.24694 40.1306C5.30181 40.2022 5.36163 40.2703 5.41068 40.3461C5.61585 40.6422 5.77719 40.9704 5.86948 41.3166C5.8988 41.4011 5.90986 41.4906 5.92942 41.5771C5.94746 41.6642 5.96633 41.7508 5.97012 41.8397L5.99188 42.1029C5.99294 42.1906 5.98751 42.2784 5.98514 42.3653L5.9803 42.4954C5.97793 42.5386 5.96901 42.5814 5.96313 42.6242L5.92296 42.8792C5.91719 42.9216 5.90593 42.963 5.89402 43.0042L5.85909 43.1274C5.8356 43.2092 5.81041 43.2901 5.78456 43.3701C5.76188 43.4402 5.68636 43.4788 5.61586 43.4563C5.56123 43.4389 5.52565 43.3898 5.52292 43.336L5.52212 43.3191C5.51435 43.1578 5.52329 43.0012 5.5149 42.8458L5.49699 42.6145C5.49343 42.5763 5.49275 42.5381 5.4878 42.5003L5.4693 42.3874L5.43357 42.164L5.37887 41.9465C5.36357 41.8738 5.33831 41.804 5.31436 41.7343C5.2887 41.6651 5.27219 41.5933 5.23841 41.5276C5.2073 41.4611 5.18064 41.3934 5.15126 41.3269L5.04808 41.1346C4.97628 41.0084 4.89746 40.8869 4.8119 40.7701C4.7265 40.6532 4.63328 40.5424 4.5361 40.4358C4.48637 40.3842 4.43739 40.3309 4.38557 40.2829C4.36047 40.2571 4.33475 40.2341 4.309 40.2111C4.29631 40.1989 4.28383 40.1872 4.27199 40.1771L4.24185 40.15L4.20455 40.1164C4.06372 39.9896 4.05291 39.7733 4.18041 39.6333C4.29539 39.507 4.48358 39.486 4.62271 39.5759Z" fill="#000072"/>
<path d="M37.7582 40.15L37.7281 40.1771C37.7162 40.1872 37.7037 40.1988 37.6911 40.2111C37.6653 40.234 37.6396 40.2571 37.6145 40.2829C37.5627 40.3309 37.5137 40.3842 37.464 40.4358C37.3668 40.5424 37.2736 40.6532 37.1882 40.77C37.1026 40.8869 37.0238 41.0084 36.952 41.1346L36.8488 41.3268C36.8194 41.3934 36.7928 41.4611 36.7617 41.5276C36.7279 41.5933 36.7114 41.6651 36.6857 41.7342C36.6618 41.804 36.6365 41.8738 36.6212 41.9465L36.5665 42.164L36.5308 42.3874L36.5123 42.5003C36.5073 42.5381 36.5067 42.5763 36.5031 42.6145L36.4852 42.8458C36.4768 43.0012 36.4857 43.1578 36.4779 43.3191L36.4771 43.3357C36.4736 43.4093 36.4107 43.4661 36.3367 43.4625C36.2794 43.4598 36.2322 43.4214 36.2155 43.3701C36.1897 43.2901 36.1645 43.2092 36.141 43.1274L36.1061 43.0041C36.0941 42.963 36.0829 42.9216 36.0771 42.8792L36.0369 42.6242C36.0311 42.5814 36.0221 42.5386 36.0198 42.4954L36.0149 42.3653C36.0126 42.2784 36.0071 42.1906 36.0082 42.1029L36.03 41.8396C36.0337 41.7508 36.0526 41.6642 36.0706 41.5771C36.0902 41.4905 36.1013 41.4011 36.1306 41.3166C36.2229 40.9704 36.3842 40.6421 36.5894 40.346C36.6384 40.2703 36.6983 40.2022 36.7531 40.1306C36.8111 40.0613 36.8739 39.996 36.9358 39.93C37.0022 39.8677 37.0668 39.8043 37.139 39.7468C37.1738 39.7174 37.2113 39.6892 37.2492 39.6613C37.2679 39.6477 37.2873 39.634 37.3085 39.6203L37.3774 39.5759C37.5367 39.4731 37.7498 39.5182 37.8532 39.6767C37.9464 39.8195 37.9187 40.0058 37.7956 40.1164L37.7582 40.15Z" fill="#000072"/>
<path d="M7.06576 39.1214L7.01593 39.3108C6.9993 39.3776 6.97914 39.4453 6.95984 39.514C6.94097 39.5826 6.91982 39.652 6.89813 39.7222C6.87462 39.7926 6.85292 39.8636 6.82355 39.9362L6.8227 39.9383C6.79952 39.9955 6.73406 40.0233 6.67647 40.0002C6.65147 39.9902 6.63201 39.9722 6.61994 39.9504C6.58117 39.8803 6.55102 39.8086 6.52252 39.7361C6.49488 39.6635 6.4718 39.5899 6.45183 39.5156C6.43223 39.4412 6.41407 39.366 6.40228 39.2899C6.38934 39.2118 6.37833 39.141 6.37773 39.0512L6.37762 39.0357C6.37634 38.8436 6.53187 38.6868 6.72504 38.6856C6.91821 38.6843 7.07585 38.8389 7.07715 39.031C7.07734 39.0616 7.07306 39.093 7.06576 39.1214Z" fill="#000072"/>
<path d="M35.6223 39.0513C35.6217 39.1411 35.6107 39.2118 35.5978 39.29C35.586 39.3661 35.5678 39.4413 35.5482 39.5156C35.5283 39.59 35.5052 39.6636 35.4775 39.7362C35.449 39.8087 35.4189 39.8804 35.3801 39.9505C35.3502 40.0046 35.2818 40.0243 35.2274 39.9945C35.2038 39.9816 35.1867 39.9615 35.1774 39.9384L35.1765 39.9363C35.1471 39.8637 35.1254 39.7927 35.1019 39.7223C35.0802 39.652 35.0591 39.5826 35.0402 39.514C35.0209 39.4454 35.0007 39.3776 34.9841 39.3108L34.9343 39.1214C34.8854 38.9356 34.9973 38.7456 35.1842 38.697C35.371 38.6483 35.5622 38.7596 35.6111 38.9454C35.6189 38.975 35.6225 39.0048 35.6225 39.034L35.6223 39.0513Z" fill="#000072"/>
<path d="M38.5538 47.7166C37.8424 47.7166 37.1666 47.4579 36.6789 46.9701C35.8593 46.899 31.3959 46.5122 28.4985 46.2616C28.1785 46.2337 27.8612 46.2988 27.5812 46.4494C26.7022 46.9222 24.6783 47.7154 21 47.7154C17.3217 47.7154 15.2979 46.9222 14.4188 46.4494C14.1389 46.2988 13.8218 46.2337 13.5015 46.2616C10.6042 46.5122 6.14074 46.899 5.32113 46.9701C4.56469 47.7267 3.3553 47.932 2.26308 47.4759C0.694937 46.8209 -0.143509 45.0771 0.0202108 42.8111C0.130113 41.2905 0.634038 40.2412 1.51795 39.6926C2.64813 38.9911 4.01578 39.3586 4.43531 39.4986L6.38924 38.8357C6.65444 34.6289 8.55577 31.8938 10.1201 30.3317C11.2973 29.1563 12.8755 28.4199 14.564 28.2585C16.2147 28.1007 18.38 28.0206 21 28.0206C23.62 28.0206 25.7853 28.1007 27.436 28.2585C29.1245 28.4199 30.7027 29.1563 31.8799 30.3317C33.4442 31.8938 35.3456 34.6289 35.6108 38.8357L37.5647 39.4986C37.9841 39.3587 39.3517 38.9909 40.4821 39.6926C41.366 40.2412 41.8699 41.2905 41.9798 42.8111C42.1435 45.0771 41.3051 46.8209 39.7369 47.4759C39.3489 47.6379 38.9459 47.7165 38.5538 47.7166ZM28.354 45.5677C28.422 45.5677 28.4902 45.5706 28.5585 45.5764C31.7591 45.8533 36.8705 46.2963 36.8705 46.2963C36.9589 46.304 37.041 46.3451 37.0997 46.4112C37.65 47.0307 38.6023 47.2037 39.4691 46.8418C40.7507 46.3065 41.4314 44.8182 41.2899 42.8605C41.1969 41.5733 40.803 40.7045 40.1191 40.278C39.0963 39.6403 37.7102 40.1767 37.6963 40.1822C37.6197 40.2126 37.5341 40.2149 37.4561 40.1884L35.1667 39.4117C35.0324 39.3662 34.9397 39.2436 34.9329 39.1026C34.7355 34.9815 32.8972 32.3222 31.3899 30.8171C30.326 29.7548 28.8983 29.0892 27.3698 28.943C25.7411 28.7874 23.598 28.7085 21 28.7085C18.4021 28.7085 16.259 28.7874 14.6303 28.943C13.1018 29.0892 11.6741 29.7548 10.6102 30.8171C9.10281 32.3222 7.26453 34.9815 7.06714 39.1026C7.06039 39.2436 6.96768 39.3662 6.8334 39.4117L4.54399 40.1884C4.46542 40.2151 4.37997 40.2127 4.30309 40.182C4.2899 40.1768 2.90367 39.6403 1.88094 40.2781C1.19706 40.7046 0.80314 41.5734 0.710127 42.8605C0.568624 44.8183 1.2493 46.3065 2.53095 46.8418C3.39779 47.204 4.35007 47.0309 4.90036 46.4112C4.9591 46.3451 5.04114 46.304 5.12951 46.2963C5.12951 46.2963 10.241 45.8533 13.4416 45.5764C13.8966 45.5372 14.3486 45.6297 14.748 45.8445C15.5695 46.2864 17.4741 47.0276 21 47.0276C24.526 47.0276 26.4306 46.2864 27.2521 45.8445C27.5915 45.6619 27.9688 45.5677 28.354 45.5677Z" fill="#000072"/>
<path d="M14.2369 48.4869C12.6146 48.706 11.5881 47.4512 10.9386 45.7914C9.84594 42.9985 9.81912 39.0598 9.81912 39.0598L15.6731 38.4432C15.9027 40.9746 16.2555 42.9135 16.4474 44.3824C16.4667 44.5308 16.4851 44.6741 16.501 44.8132C16.5169 44.959 16.532 45.099 16.5438 45.2348C16.7273 47.2887 16.3477 48.2011 14.2369 48.4869Z" fill="white"/>
<path d="M14.2368 48.4869C12.6145 48.706 11.588 47.4512 10.9386 45.7914C12.1134 44.8049 13.967 43.8467 16.4474 44.3824C16.7968 47.0429 16.62 48.1644 14.2368 48.4869Z" fill="#5D5C70"/>
<g opacity="0.3">
<path d="M14.2369 48.4869C12.6146 48.706 11.5881 47.4512 10.9386 45.7914C9.84594 42.9985 9.81912 39.0598 9.81912 39.0598C9.81912 39.0598 11.2019 47.7906 14.3441 47.3712C16.2846 47.1122 16.5471 45.8872 16.5438 45.2348C16.7273 47.2887 16.3477 48.2011 14.2369 48.4869Z" fill="#000072"/>
</g>
<path d="M9.9229 39.0588C10.0903 39.5287 10.1583 39.998 10.2104 40.4684C10.2685 40.9382 10.3034 41.4093 10.3518 41.8795C10.3989 42.3498 10.475 42.8161 10.5636 43.2787C10.6531 43.741 10.7581 44.1995 10.8859 44.6496C11.014 45.0993 11.1627 45.5421 11.3469 45.965C11.5297 46.388 11.747 46.7935 12.0155 47.1496C12.2826 47.5051 12.6052 47.81 12.9805 47.9946C13.3547 48.1818 13.7773 48.2378 14.204 48.1788C14.6595 48.1155 15.1079 48.0125 15.4747 47.8179C15.8397 47.6208 16.075 47.3135 16.1797 46.9076C16.2821 46.5013 16.2871 46.0408 16.2577 45.5791C16.2288 45.1161 16.1703 44.6466 16.1063 44.1762C15.9757 43.2347 15.823 42.2872 15.6943 41.336L15.5995 40.6218C15.5683 40.3836 15.5266 40.1465 15.4917 39.9085C15.433 39.4316 15.3915 38.9503 15.5697 38.4528C15.5909 38.3937 15.6562 38.3629 15.7156 38.3839C15.7413 38.393 15.7616 38.4102 15.7747 38.4317L15.7763 38.4342C15.9156 38.6613 15.9886 38.8932 16.0435 39.1267C16.0957 39.3605 16.1294 39.5959 16.1514 39.8328C16.1729 40.0698 16.186 40.3079 16.2174 40.5439C16.2462 40.7802 16.2785 41.0162 16.3107 41.2523C16.4386 42.1971 16.5904 43.1388 16.7227 44.0925C16.7876 44.5699 16.8479 45.0504 16.8788 45.5422C16.9079 46.0325 16.9121 46.5417 16.7811 47.066C16.7137 47.3269 16.5941 47.5907 16.4188 47.8178C16.2436 48.0449 16.016 48.2297 15.7752 48.3595C15.7155 48.3935 15.6536 48.419 15.5927 48.4488C15.562 48.4629 15.5315 48.478 15.5008 48.4911L15.4079 48.5254C15.3458 48.5476 15.2838 48.5719 15.2216 48.5919L15.0347 48.6447L14.9412 48.6707L14.8479 48.6907L14.6611 48.7306C14.5367 48.7543 14.4129 48.7713 14.2887 48.7917C14.026 48.8269 13.752 48.8311 13.4822 48.7913C13.2122 48.7523 12.947 48.6691 12.7037 48.5485C12.2137 48.3066 11.8247 47.9284 11.5178 47.5207C11.2091 47.1105 10.9726 46.6647 10.7755 46.2098C10.5775 45.7546 10.4213 45.2879 10.2871 44.8176C10.1536 44.347 10.045 43.872 9.95265 43.3951C9.86064 42.9181 9.78843 42.4389 9.71418 41.9603C9.64025 41.4816 9.58066 41.0005 9.56615 40.5165C9.54704 40.0331 9.56324 39.5468 9.71556 39.0602C9.73344 39.0031 9.79441 38.9713 9.85179 38.989C9.8856 38.9995 9.91064 39.0249 9.92181 39.0556L9.9229 39.0588Z" fill="#000072"/>
<path d="M27.7633 48.4869C29.3855 48.706 30.4121 47.4512 31.0615 45.7914C32.1542 42.9985 32.181 39.0598 32.181 39.0598L26.327 38.4432C26.0974 40.9746 25.7446 42.9135 25.5527 44.3824C25.5334 44.5308 25.515 44.6741 25.4991 44.8132C25.4832 44.959 25.4681 45.099 25.4563 45.2348C25.2728 47.2887 25.6524 48.2011 27.7633 48.4869Z" fill="white"/>
<path d="M27.7632 48.4869C29.3855 48.706 30.412 47.4512 31.0614 45.7914C29.8866 44.8049 28.033 43.8467 25.5526 44.3824C25.2032 47.0429 25.38 48.1644 27.7632 48.4869Z" fill="#5D5C70"/>
<g opacity="0.3">
<path d="M27.7632 48.4869C29.3855 48.706 30.412 47.4512 31.0615 45.7914C32.1542 42.9985 32.181 39.0598 32.181 39.0598C32.181 39.0598 30.7982 47.7906 27.656 47.3712C25.7155 47.1122 25.453 45.8872 25.4563 45.2348C25.2728 47.2887 25.6524 48.2011 27.7632 48.4869Z" fill="#000072"/>
</g>
<path d="M32.2845 39.0603C32.4369 39.5469 32.4531 40.0332 32.434 40.5166C32.4194 41.0006 32.3598 41.4817 32.2859 41.9604C32.2117 42.439 32.1394 42.9182 32.0475 43.3952C31.9551 43.8721 31.8465 44.3471 31.713 44.8177C31.5788 45.288 31.4226 45.7548 31.2246 46.2099C31.0276 46.6648 30.791 47.1106 30.4823 47.5208C30.1754 47.9285 29.7864 48.3067 29.2964 48.5486C29.0531 48.6692 28.788 48.7524 28.5179 48.7914C28.2481 48.8312 27.9741 48.827 27.7114 48.7918C27.5872 48.7713 27.4634 48.7544 27.339 48.7307L27.1522 48.6908L27.0589 48.6708L26.9654 48.6448L26.7785 48.592C26.7163 48.5721 26.6543 48.5477 26.5922 48.5255L26.4993 48.4912C26.4686 48.4781 26.438 48.463 26.4074 48.4489C26.3465 48.4191 26.2846 48.3937 26.2249 48.3596C25.9841 48.2298 25.7565 48.045 25.5813 47.8179C25.406 47.5908 25.2864 47.327 25.219 47.0661C25.088 46.5418 25.0922 46.0325 25.1213 45.5423C25.1522 45.0505 25.2125 44.57 25.2774 44.0927C25.4097 43.1389 25.5615 42.1972 25.6894 41.2524C25.7216 41.0163 25.7539 40.7803 25.7827 40.5441C25.8141 40.308 25.8272 40.0699 25.8487 39.8329C25.8707 39.596 25.9044 39.3606 25.9566 39.1268C26.0115 38.8932 26.0845 38.6614 26.2238 38.4343L26.2253 38.4319C26.2581 38.3783 26.3284 38.3614 26.3822 38.3941C26.4055 38.4082 26.4219 38.4293 26.4303 38.4529C26.6086 38.9504 26.5671 39.4317 26.5084 39.9086C26.4735 40.1466 26.4317 40.3837 26.4006 40.6219L26.3058 41.3361C26.177 42.2873 26.0243 43.2349 25.8938 44.1763C25.8298 44.6467 25.7713 45.1162 25.7424 45.5792C25.713 46.0409 25.7179 46.5014 25.8204 46.9077C25.9251 47.3136 26.1604 47.6209 26.5254 47.818C26.8921 48.0126 27.3405 48.1156 27.7961 48.1789C28.2228 48.238 28.6454 48.1819 29.0196 47.9947C29.3949 47.8101 29.7175 47.5052 29.9846 47.1497C30.253 46.7936 30.4704 46.3881 30.6532 45.9651C30.8373 45.5422 30.9861 45.0994 31.1142 44.6498C31.242 44.1996 31.347 43.7411 31.4365 43.2788C31.5251 42.8162 31.6012 42.3499 31.6483 41.8796C31.6967 41.4094 31.7315 40.9383 31.7897 40.4685C31.8418 39.9981 31.9098 39.5288 32.0772 39.0589L32.0781 39.0563C32.0982 39 32.1603 38.9705 32.217 38.9905C32.2504 39.0022 32.2746 39.0291 32.2845 39.0603Z" fill="#000072"/>
<path d="M20.9881 30.7224C30.5447 30.7224 31.6553 27.6018 31.6553 27.6018C31.6553 27.6018 32.4352 33.4949 20.9881 33.4949C9.54105 33.4949 10.321 27.6018 10.321 27.6018C10.321 27.6018 11.4316 30.7224 20.9881 30.7224Z" fill="#FF1552"/>
<g opacity="0.3">
<path d="M31.5729 27.763C31.1954 29.4554 29.3686 32.6137 20.9882 32.6137C12.6077 32.6137 10.7809 29.4554 10.4034 27.763C10.3423 27.6611 10.321 27.6018 10.321 27.6018C10.321 27.6018 9.54105 33.4949 20.9881 33.4949C32.4353 33.4949 31.6553 27.6018 31.6553 27.6018C31.6553 27.6018 31.6341 27.6611 31.5729 27.763Z" fill="#000072"/>
</g>
<path d="M20.9882 33.7753C16.239 33.7753 12.9568 32.7841 11.2325 30.8293C9.83729 29.2473 10.0325 27.6331 10.0415 27.5651L10.1948 26.4065L10.5869 27.5082C10.597 27.5341 11.8272 30.442 20.9882 30.442C30.1492 30.442 31.3794 27.5341 31.3908 27.5047L31.7888 26.4752L31.9349 27.5651C31.9439 27.6331 32.1391 29.2473 30.7438 30.8293C29.0196 32.7841 25.7373 33.7753 20.9882 33.7753ZM10.6676 28.5203C10.7782 29.0563 11.0445 29.7707 11.6685 30.4729C12.7798 31.7236 15.2988 33.2146 20.9882 33.2146C26.6776 33.2146 29.1966 31.7236 30.3079 30.4729C30.9318 29.7708 31.1981 29.0565 31.3087 28.5204C30.2806 29.5014 27.6232 31.0027 20.9882 31.0027C14.3531 31.0027 11.6956 29.5014 10.6676 28.5203Z" fill="#000072"/>
<path d="M22.0926 35.5579C22.7029 34.951 22.7029 33.9672 22.0926 33.3603C21.4823 32.7535 20.4928 32.7535 19.8825 33.3603C19.2723 33.9672 19.2723 34.951 19.8825 35.5579C20.4928 36.1647 21.4823 36.1647 22.0926 35.5579Z" fill="#FFD400"/>
<g opacity="0.3">
<path d="M20.9881 35.3721C20.2356 35.3721 19.6076 34.843 19.459 34.1387C19.4372 34.2421 19.4254 34.3492 19.4254 34.4591C19.4254 35.3173 20.125 36.013 20.9881 36.013C21.8512 36.013 22.5508 35.3173 22.5508 34.4591C22.5508 34.3492 22.539 34.2421 22.5172 34.1387C22.3686 34.843 21.7407 35.3721 20.9881 35.3721Z" fill="#000072"/>
</g>
<path d="M20.9881 36.2935C19.9709 36.2935 19.1434 35.4707 19.1434 34.4592C19.1434 33.4478 19.9709 32.625 20.9881 32.625C22.0053 32.625 22.8329 33.4478 22.8329 34.4592C22.8329 35.4707 22.0053 36.2935 20.9881 36.2935ZM20.9881 33.1857C20.2819 33.1857 19.7074 33.7571 19.7074 34.4592C19.7074 35.1615 20.2819 35.7328 20.9881 35.7328C21.6943 35.7328 22.2689 35.1615 22.2689 34.4592C22.2688 33.7571 21.6943 33.1857 20.9881 33.1857Z" fill="#000072"/>
<path d="M22.3521 34.4092C22.0266 34.438 21.5859 34.4588 20.988 34.4588C20.3902 34.4588 19.9495 34.438 19.6248 34.4092C18.8553 34.3395 18.3251 33.5912 18.5475 32.8557C18.6837 32.4055 18.9544 31.9713 19.1994 31.6412C19.4652 31.2799 19.7021 31.0427 19.7021 31.0427H22.2739C22.2739 31.0427 22.5141 31.2831 22.7823 31.6484C23.0257 31.9777 23.2932 32.4087 23.4285 32.8557C23.6517 33.5912 23.1207 34.3395 22.3521 34.4092Z" fill="#FFD400"/>
<g opacity="0.3">
<path d="M23.4285 32.8559C23.3582 32.6242 23.2525 32.3968 23.1333 32.1855C23.2225 32.7722 22.7845 33.3299 22.1691 33.3856C21.8878 33.4111 21.5058 33.4292 20.9882 33.4292C20.4705 33.4292 20.0886 33.4111 19.8072 33.3856C19.1918 33.3299 18.7538 32.7722 18.8431 32.1855C18.7239 32.3968 18.6182 32.6242 18.5479 32.8559C18.3249 33.591 18.8556 34.3392 19.6246 34.4089C19.9494 34.4383 20.3905 34.4592 20.9882 34.4592C21.5859 34.4592 22.0269 34.4383 22.3518 34.4089C23.1208 34.3392 23.6515 33.591 23.4285 32.8559Z" fill="#000072"/>
</g>
<path d="M20.9881 34.7396C20.4423 34.7396 19.9749 34.7223 19.5989 34.6882C19.1397 34.6466 18.7286 34.4049 18.4708 34.025C18.2195 33.6546 18.1491 33.199 18.2778 32.775C18.5803 31.7777 19.4643 30.883 19.5017 30.8454L19.5845 30.7625H22.3916L22.4744 30.8454C22.5118 30.883 23.3958 31.7777 23.6983 32.775C23.827 33.199 23.7566 33.6546 23.5053 34.025C23.2475 34.4049 22.8364 34.6466 22.3772 34.6882C22.0012 34.7223 21.5338 34.7396 20.9881 34.7396ZM19.8241 31.3232C19.6126 31.5543 19.031 32.234 18.8178 32.937C18.7382 33.199 18.7822 33.4812 18.9384 33.7113C19.1009 33.951 19.3603 34.1034 19.6501 34.1297C20.0092 34.1622 20.4594 34.1788 20.9881 34.1788C21.5168 34.1788 21.9669 34.1622 22.3261 34.1297C22.6158 34.1035 22.8753 33.951 23.0378 33.7113C23.194 33.4812 23.2379 33.199 23.1584 32.937C22.9452 32.2341 22.3636 31.5544 22.152 31.3232H19.8241Z" fill="#000072"/>
<path d="M20.9917 33.8484C18.9973 33.8484 18.425 33.4126 18.3663 33.3629L18.6276 33.0579C18.6292 33.059 19.1518 33.4478 20.9917 33.4478C22.8316 33.4478 23.3542 33.059 23.3592 33.0552L23.6171 33.3629C23.5584 33.4126 22.9862 33.8484 20.9917 33.8484Z" fill="#000072"/>
<path d="M17.3985 5.09155C17.3985 5.09155 15.3759 6.63992 12.8623 5.85492C12.8623 5.85492 12.8633 5.82741 12.8653 5.77534C12.8831 5.31653 12.9977 2.94879 13.552 0.805043C13.6241 0.525048 13.8701 0.352133 14.129 0.344264C14.2633 0.339353 14.4007 0.37866 14.5203 0.471006C15.289 1.06541 16.5013 2.37308 17.3985 5.09155Z" fill="#FFD578"/>
<path d="M14.304 6.11879C13.8466 6.11879 13.3573 6.05552 12.8492 5.89678L12.8171 5.88681L12.8213 5.77369C12.8389 5.31832 12.9549 2.9382 13.5093 0.794105C13.5831 0.507631 13.8316 0.309156 14.1278 0.300214C14.2796 0.29583 14.4252 0.341721 14.5476 0.436197C15.3814 1.08093 16.5602 2.40958 17.4407 5.07774L17.4505 5.10738L17.4257 5.12637C17.4094 5.13884 16.1032 6.11879 14.304 6.11879ZM12.908 5.82277C15.2061 6.52338 17.1079 5.24509 17.3466 5.0749C16.4741 2.44818 15.3141 1.14041 14.4933 0.50566C14.3876 0.423999 14.2618 0.383441 14.1308 0.388246C13.8741 0.395992 13.659 0.567886 13.595 0.815949C13.0429 2.95146 12.9273 5.32323 12.9097 5.77706L12.908 5.82277Z" fill="white"/>
<g opacity="0.3">
<path d="M17.3987 5.09156C17.3987 5.09156 15.3761 6.63993 12.8625 5.85494C12.8625 5.85494 12.8635 5.82742 12.8655 5.77535C13.0752 5.24682 13.6828 4.35381 14.911 3.66717C15.4722 3.35345 15.6654 2.64246 15.3453 2.08697C15.0441 1.56405 14.6325 0.929513 14.1292 0.34428C14.2636 0.339368 14.4009 0.378675 14.5205 0.471021C15.2892 1.06543 16.5015 2.37309 17.3987 5.09156Z" fill="#000072"/>
</g>
<g opacity="0.7">
<path d="M13.6559 5.97184C13.6737 5.51303 13.7883 3.14529 14.3426 1.00155C14.3915 0.811731 14.521 0.672824 14.6796 0.59949C14.6248 0.553457 14.5716 0.510541 14.5205 0.471022C14.4009 0.378676 14.2636 0.339368 14.1292 0.34428C13.8703 0.352131 13.6243 0.525047 13.5522 0.80506C12.9979 2.9488 12.8832 5.31653 12.8655 5.77535C12.8635 5.82742 12.8625 5.85494 12.8625 5.85494C13.1327 5.93933 13.3967 5.99536 13.6537 6.03064C13.6542 6.01724 13.6549 5.99759 13.6559 5.97184Z" fill="white"/>
</g>
<path d="M14.3228 6.42278C13.8335 6.42278 13.3078 6.35444 12.7586 6.18297C12.6111 6.13691 12.5123 5.99913 12.5165 5.84552C12.5195 5.73515 12.598 3.1154 13.2169 0.719647C13.2979 0.405837 13.5301 0.156048 13.8379 0.0513626C14.1435 -0.0523902 14.4782 0.00297195 14.7332 0.199969C15.5994 0.869275 16.8221 2.24255 17.7276 4.984C17.7734 5.12256 17.7262 5.27479 17.6099 5.36374C17.5398 5.41746 16.1991 6.42278 14.3228 6.42278ZM13.2193 5.59797C14.9784 6.03625 16.4632 5.27479 16.9869 4.9522C16.1472 2.54062 15.0733 1.33375 14.3088 0.743007C14.2076 0.664709 14.1023 0.688262 14.0617 0.702098C14.0201 0.716286 13.9198 0.762951 13.8868 0.890679C13.3993 2.77795 13.2561 4.8702 13.2193 5.59797Z" fill="#000072"/>
<path d="M11.4229 8.14403C11.4229 8.14403 11.3626 7.87287 11.2046 7.4514C10.7975 6.36381 9.74123 4.27608 7.40547 3.28575C7.40547 3.28575 9.06937 2.81613 10.915 3.96169C10.915 3.96169 10.915 3.96169 10.915 3.96267C11.5632 4.36351 12.2331 4.96478 12.8625 5.8549C12.8625 5.8549 13.7962 7.70193 11.4229 8.14403Z" fill="#5D5C70"/>
<g opacity="0.3">
<path d="M11.4229 8.144C11.4229 8.144 11.3627 7.87285 11.2046 7.45137C11.6176 6.06217 11.3291 4.84981 10.9151 3.96265C11.5633 4.36349 12.2331 4.96476 12.8625 5.85488C12.8625 5.85488 13.7963 7.7019 11.4229 8.144Z" fill="#000072"/>
</g>
<path d="M11.4228 8.48773C11.2637 8.48773 11.1212 8.37822 11.0855 8.21835C11.0782 8.18561 10.3007 4.88708 7.26991 3.602C7.13507 3.54484 7.05114 3.40939 7.06043 3.26395C7.06967 3.11851 7.17018 2.99466 7.31116 2.95485C7.44484 2.9172 10.6137 2.0728 13.1453 5.65722C13.1549 5.67088 13.1636 5.68533 13.1712 5.70027C13.1896 5.73671 13.6182 6.60192 13.22 7.40154C12.9441 7.95551 12.3611 8.319 11.4868 8.4818C11.4653 8.48585 11.4439 8.48773 11.4228 8.48773ZM8.62399 3.54982C10.6186 4.86722 11.4204 6.92784 11.6689 7.73444C12.1408 7.60155 12.4528 7.38882 12.5983 7.10002C12.8196 6.66081 12.6092 6.13495 12.5616 6.02759C11.2025 4.11807 9.64763 3.63286 8.62399 3.54982Z" fill="#000072"/>
<path d="M9.98226 9.56176C9.73031 9.33186 9.50206 9.10098 9.29457 8.87009C6.74243 6.03274 7.40542 3.28577 7.40542 3.28577C10.497 4.38515 11.3507 7.40032 11.3507 7.40032C11.8032 9.31024 9.98226 9.56176 9.98226 9.56176Z" fill="#FFAEBF"/>
<g opacity="0.3">
<path d="M9.98221 9.56176C9.73026 9.33186 9.50201 9.10098 9.29453 8.87009C9.45605 8.58918 9.66991 8.23756 9.89428 7.92264C10.1188 7.60754 10.1781 7.20662 10.0571 6.83968C9.78431 6.01237 9.09271 4.55101 7.40537 3.28577C10.497 4.38515 11.3507 7.40032 11.3507 7.40032C11.8032 9.31024 9.98221 9.56176 9.98221 9.56176Z" fill="#000072"/>
</g>
<path d="M9.9825 9.90613C9.89635 9.90613 9.81263 9.87407 9.74841 9.81536C6.28666 6.65008 7.0356 3.34475 7.06918 3.2056C7.09209 3.11061 7.1545 3.02983 7.24091 2.98333C7.3273 2.937 7.42948 2.92927 7.52197 2.96201C10.7441 4.10845 11.6469 7.17731 11.6837 7.30736C11.6851 7.31216 11.6864 7.31699 11.6875 7.32179C11.8495 8.00632 11.7705 8.58737 11.4527 9.04875C10.9581 9.76671 10.0679 9.89762 10.0302 9.90278C10.0143 9.90502 9.99836 9.90613 9.9825 9.90613ZM7.68469 3.76688C7.60875 4.66707 7.70466 6.93303 10.0849 9.18663C10.2915 9.12759 10.6632 8.98138 10.8849 8.65604C11.0846 8.36311 11.1288 7.97031 11.0164 7.48837C10.9735 7.34749 10.1851 4.86947 7.68469 3.76688Z" fill="#000072"/>
<path d="M24.5838 5.09156C24.5838 5.09156 26.6064 6.63993 29.12 5.85494C29.12 5.85494 29.119 5.82742 29.117 5.77535C29.0993 5.31655 28.9846 2.9488 28.4303 0.805058C28.3582 0.525063 28.1122 0.352148 27.8533 0.34428C27.7189 0.339368 27.5816 0.378675 27.462 0.471021C26.6933 1.06543 25.481 2.37309 24.5838 5.09156Z" fill="#FFD578"/>
<path d="M27.6785 6.11887C25.879 6.11887 24.5731 5.13892 24.5568 5.12646L24.532 5.10747L24.5418 5.07782C25.4223 2.40977 26.6011 1.0811 27.4348 0.436284C27.5572 0.341826 27.7022 0.295231 27.8549 0.3003C28.1509 0.309243 28.3994 0.5077 28.4732 0.794191C29.0276 2.93829 29.1436 5.31841 29.1612 5.77369L29.1654 5.8869L29.1332 5.89686C28.6253 6.05552 28.1358 6.11887 27.6785 6.11887ZM24.6359 5.07497C24.8746 5.24516 26.7761 6.52327 29.0744 5.82284L29.0728 5.77702C29.0552 5.32328 28.9396 2.95149 28.3874 0.816002C28.3235 0.567939 28.1084 0.396044 27.8519 0.388299C27.7199 0.384092 27.5949 0.424138 27.4891 0.505711C26.6683 1.14057 25.5084 2.44834 24.6359 5.07497Z" fill="white"/>
<g opacity="0.3">
<path d="M24.5838 5.09156C24.5838 5.09156 26.6063 6.63993 29.12 5.85494C29.12 5.85494 29.119 5.82742 29.117 5.77535C28.9072 5.24682 28.2997 4.35381 27.0714 3.66717C26.5102 3.35345 26.3171 2.64246 26.6371 2.08697C26.9384 1.56405 27.3499 0.929513 27.8533 0.34428C27.7189 0.339368 27.5816 0.378675 27.462 0.471021C26.6933 1.06543 25.4809 2.37309 24.5838 5.09156Z" fill="#000072"/>
</g>
<g opacity="0.7">
<path d="M28.3266 5.97184C28.3088 5.51303 28.1942 3.14529 27.6399 1.00155C27.591 0.811731 27.4615 0.672824 27.3029 0.59949C27.3577 0.553457 27.4109 0.510541 27.462 0.471022C27.5816 0.378676 27.7189 0.339368 27.8533 0.34428C28.1122 0.352148 28.3582 0.525047 28.4303 0.80506C28.9846 2.9488 29.0993 5.31653 29.117 5.77535C29.119 5.82742 29.12 5.85494 29.12 5.85494C28.8498 5.93933 28.5858 5.99536 28.3288 6.03064C28.3283 6.01724 28.3276 5.99759 28.3266 5.97184Z" fill="white"/>
</g>
<path d="M27.6597 6.42278C25.7832 6.42278 24.4428 5.41748 24.3727 5.36376C24.2564 5.27479 24.2093 5.12258 24.255 4.98402C25.1605 2.24257 26.3832 0.869293 27.2494 0.199987C27.5044 0.00290258 27.8392 -0.0523704 28.1446 0.0513824C28.4525 0.156068 28.6846 0.405856 28.7657 0.719667C29.3846 3.11543 29.463 5.73518 29.4661 5.84554C29.4703 5.99914 29.3714 6.13692 29.224 6.18299C28.6749 6.35436 28.1489 6.42278 27.6597 6.42278ZM24.9957 4.95222C25.5189 5.27446 27.0034 6.03676 28.7633 5.59799C28.7265 4.87022 28.5833 2.77797 28.0958 0.890699C28.0628 0.762971 27.9625 0.716305 27.9209 0.702117C27.8804 0.688457 27.7752 0.664727 27.6738 0.743026C26.9093 1.33368 25.8354 2.54064 24.9957 4.95222Z" fill="#000072"/>
<path d="M30.5595 8.14403C30.5595 8.14403 30.6198 7.87287 30.7779 7.4514C31.185 6.36381 32.2412 4.27608 34.577 3.28575C34.577 3.28575 32.9131 2.81613 31.0674 3.96169C31.0674 3.96169 31.0674 3.96169 31.0674 3.96267C30.4192 4.36351 29.7493 4.96478 29.1199 5.8549C29.1199 5.8549 28.1862 7.70193 30.5595 8.14403Z" fill="white"/>
<g opacity="0.3">
<path d="M30.5595 8.144C30.5595 8.144 30.6198 7.87285 30.7779 7.45137C30.3649 6.06217 30.6534 4.84981 31.0674 3.96265C30.4192 4.36349 29.7493 4.96476 29.1199 5.85488C29.1199 5.85488 28.1862 7.7019 30.5595 8.144Z" fill="#000072"/>
</g>
<path d="M30.5596 8.48782C30.5385 8.48782 30.5172 8.48594 30.4957 8.48189C29.6215 8.31909 29.0384 7.95561 28.7625 7.40163C28.3644 6.60201 28.7929 5.73682 28.8113 5.70036C28.8189 5.6854 28.8276 5.67097 28.8373 5.65731C31.3689 2.07282 34.5376 2.9174 34.6713 2.95495C34.8123 2.99475 34.9128 3.1186 34.9221 3.26404C34.9314 3.40948 34.8474 3.54493 34.7126 3.60209C31.6818 4.88717 30.9044 8.1857 30.8969 8.21886C30.8609 8.37831 30.7184 8.48782 30.5596 8.48782ZM29.4207 6.02794C29.3744 6.13247 29.1623 6.65979 29.3842 7.10011C29.5297 7.38891 29.8417 7.60164 30.3136 7.73453C30.5627 6.92614 31.3677 4.85777 33.3724 3.54072C32.352 3.61577 30.7963 4.09494 29.4207 6.02794Z" fill="#000072"/>
<path d="M32.0001 9.56176C32.2521 9.33186 32.4803 9.10098 32.6878 8.87009C35.2399 6.03274 34.5769 3.28577 34.5769 3.28577C31.4853 4.38515 30.6316 7.40032 30.6316 7.40032C30.1791 9.31024 32.0001 9.56176 32.0001 9.56176Z" fill="#FFAEBF"/>
<g opacity="0.3">
<path d="M32.0001 9.56176C32.2521 9.33186 32.4803 9.10098 32.6878 8.87009C32.5263 8.58918 32.3124 8.23756 32.088 7.92264C31.8636 7.60754 31.8042 7.20662 31.9252 6.83968C32.198 6.01237 32.8896 4.55101 34.5769 3.28577C31.4853 4.38515 30.6316 7.40032 30.6316 7.40032C30.1791 9.31024 32.0001 9.56176 32.0001 9.56176Z" fill="#000072"/>
</g>
<path d="M31.9999 9.9061C31.9841 9.9061 31.9681 9.905 31.9522 9.90276C31.9145 9.8976 31.0243 9.76671 30.5297 9.04882C30.2118 8.58733 30.1329 8.00629 30.2949 7.32177C30.296 7.31697 30.2972 7.31214 30.2986 7.30734C30.3354 7.17729 31.2383 4.10843 34.4604 2.96199C34.5529 2.92907 34.655 2.93689 34.7415 2.98331C34.8279 3.02981 34.8903 3.11059 34.9132 3.20558C34.9468 3.34473 35.6957 6.65005 32.234 9.81534C32.1698 9.87405 32.0861 9.9061 31.9999 9.9061ZM30.966 7.48835C30.8531 7.97252 30.8983 8.36678 31.1004 8.66014C31.3224 8.98247 31.6918 9.12773 31.8975 9.18659C34.2774 6.93334 34.3736 4.66789 34.2976 3.76693C31.7972 4.86945 31.0089 7.34747 30.966 7.48835Z" fill="#000072"/>
<path d="M33.7313 20.0594H8.25225C8.25225 20.0594 7.56258 13.9534 10.2234 9.10299C10.2244 9.10101 10.2244 9.10003 10.2244 9.10003C11.9753 5.90702 15.1805 3.25928 20.9913 3.25928C21.3242 3.25928 21.6483 3.26813 21.9645 3.2858C28.0549 3.61199 31.0487 7.02015 32.4982 10.6798C34.2826 15.1795 33.7313 20.0594 33.7313 20.0594Z" fill="white"/>
<path d="M32.4982 10.6798C31.5319 11.1416 30.449 11.3999 29.3048 11.3999C25.2281 11.3999 21.923 8.1136 21.923 4.05995C21.923 3.79862 21.9368 3.54024 21.9645 3.28577C28.0549 3.61193 31.0487 7.02011 32.4982 10.6798Z" fill="#5D5C70"/>
<g opacity="0.3">
<path d="M31.7512 9.10291C31.7751 9.21092 32.8134 11.7964 32.9217 16.2179C32.9392 16.9314 32.2341 17.4429 31.5591 17.2001C30.0083 16.6423 26.8837 15.9389 20.9873 15.9389C15.0909 15.9389 11.9664 16.6423 10.4156 17.2001C9.74055 17.4428 9.03544 16.9314 9.05291 16.2179C9.16122 11.7964 10.1996 9.21092 10.2234 9.10291C7.56258 13.9533 8.25225 20.0594 8.25225 20.0594H20.9873H33.7224C33.7224 20.0594 34.412 13.9533 31.7512 9.10291Z" fill="#000072"/>
</g>
<path d="M34.0403 20.4036H7.94327L7.90878 20.0981C7.89915 20.0127 7.67616 17.975 8.00075 15.2957C8.30183 12.8104 9.15506 9.29794 11.5099 6.67879C13.7548 4.18186 16.9449 2.91577 20.9918 2.91577C25.0386 2.91577 28.2288 4.18186 30.4737 6.67879C32.8285 9.29794 33.6817 12.8104 33.9828 15.2957C34.3074 17.975 34.0844 20.0127 34.0748 20.0981L34.0403 20.4036ZM8.57027 19.7159H33.4133C33.5213 18.1968 33.7679 11.3721 29.9559 7.13469C27.8479 4.79163 24.832 3.60358 20.9917 3.60358C17.1516 3.60358 14.1356 4.79161 12.0277 7.13469C8.21565 11.372 8.46226 18.1968 8.57027 19.7159Z" fill="#000072"/>
<path d="M15.0168 17.3703C16.2266 17.3703 17.2073 16.1671 17.2073 14.6828C17.2073 13.1986 16.2266 11.9954 15.0168 11.9954C13.8071 11.9954 12.8264 13.1986 12.8264 14.6828C12.8264 16.1671 13.8071 17.3703 15.0168 17.3703Z" fill="#000072"/>
<path d="M15.5604 15.0636C15.9707 15.0636 16.3032 14.7329 16.3032 14.3249C16.3032 13.917 15.9707 13.5863 15.5604 13.5863C15.1502 13.5863 14.8176 13.917 14.8176 14.3249C14.8176 14.7329 15.1502 15.0636 15.5604 15.0636Z" fill="white"/>
<path d="M26.9666 17.3703C28.1764 17.3703 29.1571 16.1671 29.1571 14.6828C29.1571 13.1986 28.1764 11.9954 26.9666 11.9954C25.7569 11.9954 24.7762 13.1986 24.7762 14.6828C24.7762 16.1671 25.7569 17.3703 26.9666 17.3703Z" fill="#000072"/>
<path d="M26.423 15.0636C26.8332 15.0636 27.1658 14.7329 27.1658 14.3249C27.1658 13.917 26.8332 13.5863 26.423 13.5863C26.0127 13.5863 25.6802 13.917 25.6802 14.3249C25.6802 14.7329 26.0127 15.0636 26.423 15.0636Z" fill="white"/>
<path d="M21 31.0785C33.3173 31.0785 35.641 26.8803 35.3848 23.3023C35.1719 20.3295 33.0557 17.8357 30.1695 17.0319C30.1236 17.0191 30.0777 17.0064 30.0319 16.9939C24.2423 15.4055 18.1309 15.3742 12.324 16.8985C12.1594 16.9417 11.9949 16.9861 11.8306 17.0319C8.94442 17.8357 6.82821 20.3295 6.6153 23.3023C6.35904 26.8803 8.68281 31.0785 21 31.0785Z" fill="#FFAEBF"/>
<g opacity="0.3">
<path d="M35.365 23.0879C35.0054 26.3402 31.9563 29.6619 21 29.6619C10.0437 29.6619 6.99468 26.3402 6.635 23.0879C6.62765 23.1591 6.62043 23.2304 6.6153 23.3022C6.35904 26.8802 8.6828 31.0784 21 31.0784C33.3173 31.0784 35.641 26.8802 35.3848 23.3022C35.3796 23.2304 35.3724 23.1591 35.365 23.0879Z" fill="#000072"/>
</g>
<g opacity="0.3">
<path d="M15.2113 19.4669C15.5745 19.4669 15.869 19.1741 15.869 18.813C15.869 18.4518 15.5745 18.1591 15.2113 18.1591C14.8481 18.1591 14.5537 18.4518 14.5537 18.813C14.5537 19.1741 14.8481 19.4669 15.2113 19.4669Z" fill="#000072"/>
</g>
<g opacity="0.3">
<path d="M26.7887 19.4669C27.1519 19.4669 27.4463 19.1741 27.4463 18.813C27.4463 18.4518 27.1519 18.1591 26.7887 18.1591C26.4255 18.1591 26.131 18.4518 26.131 18.813C26.131 19.1741 26.4255 19.4669 26.7887 19.4669Z" fill="#000072"/>
</g>
<g opacity="0.3">
<path d="M15.9243 27.9003C15.9243 27.9003 17.4772 28.4551 18.4964 26.3119C18.4964 26.3119 17.6116 26.0147 16.8465 25.6809C16.8465 25.6809 16.9523 26.9719 15.9243 27.9003Z" fill="#000072"/>
</g>
<g opacity="0.3">
<path d="M26.0757 27.9003C26.0757 27.9003 24.5228 28.4551 23.5036 26.3119C23.5036 26.3119 24.3884 26.0147 25.1535 25.6809C25.1535 25.6809 25.0477 26.9719 26.0757 27.9003Z" fill="#000072"/>
</g>
<g opacity="0.7">
<path d="M35.3847 23.3022C35.1718 20.3295 33.0556 17.8357 30.1694 17.0319C30.1235 17.0191 30.0777 17.0064 30.0318 16.9939C24.2422 15.4055 18.1309 15.3742 12.3239 16.8985C12.1594 16.9417 11.9948 16.9861 11.8305 17.0319C8.94434 17.8357 6.82814 20.3295 6.61522 23.3023C6.59364 23.6036 6.59092 23.9093 6.61035 24.2165C6.61198 24.1895 6.61329 24.1624 6.61522 24.1355C6.82812 21.1627 8.94432 18.6689 11.8305 17.8651C11.9948 17.8194 12.1594 17.7749 12.3239 17.7317C13.2343 17.4927 14.1521 17.2921 15.0751 17.1296C15.2126 17.5175 16.495 17.716 18.027 17.5749C19.5399 17.4355 20.7523 17.015 20.8436 16.6131C23.9347 16.5988 27.0266 17.0026 30.0318 17.8271C30.0777 17.8397 30.1235 17.8524 30.1694 17.8651C33.0556 18.6689 35.1718 21.1627 35.3847 24.1355C35.3866 24.1624 35.3879 24.1895 35.3896 24.2165C35.409 23.9093 35.4063 23.6035 35.3847 23.3022Z" fill="white"/>
</g>
<path d="M15.2061 19.2273C15.5259 19.2273 15.7852 18.9695 15.7852 18.6515C15.7852 18.3335 15.5259 18.0757 15.2061 18.0757C14.8862 18.0757 14.627 18.3335 14.627 18.6515C14.627 18.9695 14.8862 19.2273 15.2061 19.2273Z" fill="#000072"/>
<path d="M26.794 19.2273C27.1138 19.2273 27.3731 18.9695 27.3731 18.6515C27.3731 18.3335 27.1138 18.0757 26.794 18.0757C26.4742 18.0757 26.2149 18.3335 26.2149 18.6515C26.2149 18.9695 26.4742 19.2273 26.794 19.2273Z" fill="#000072"/>
<path d="M16.4604 23.6603C16.6576 23.7831 16.7908 23.9462 16.8994 24.1208C17.0055 24.2965 17.0789 24.4876 17.1277 24.6851C17.1767 24.8828 17.1913 25.088 17.1957 25.2924C17.2006 25.4971 17.1938 25.7021 17.1828 25.9081C17.1567 26.3171 17.0963 26.7446 16.9065 27.1258C16.8112 27.3141 16.6969 27.4948 16.5453 27.6424C16.3943 27.79 16.2025 27.9015 15.9657 27.9401C15.9266 27.9465 15.8898 27.9202 15.8833 27.8814C15.8824 27.8756 15.8821 27.8699 15.8826 27.8642L15.8829 27.8603C15.9029 27.6226 15.9628 27.4509 16.0212 27.2841C16.0543 27.2036 16.087 27.1255 16.122 27.0493C16.1399 27.0114 16.1531 26.9714 16.17 26.9334C16.1869 26.8954 16.2029 26.8572 16.2172 26.8181C16.3386 26.5125 16.4591 26.1967 16.4889 25.855C16.5077 25.6856 16.5021 25.5128 16.479 25.3419C16.4566 25.1706 16.4197 25.002 16.3947 24.8304C16.3462 24.4842 16.3003 24.1409 16.3579 23.7127L16.3586 23.7079C16.3635 23.6714 16.3971 23.6459 16.4338 23.6507C16.4434 23.6521 16.4526 23.6555 16.4604 23.6603Z" fill="#000072"/>
<path d="M25.6422 23.7128C25.6998 24.141 25.6538 24.4843 25.6053 24.8305C25.5804 25.0021 25.5435 25.1707 25.5211 25.3419C25.4979 25.5129 25.4924 25.6857 25.5112 25.855C25.541 26.1968 25.6614 26.5126 25.7829 26.8182C25.7971 26.8573 25.8132 26.8955 25.8301 26.9335C25.847 26.9714 25.8602 27.0115 25.8781 27.0494C25.9131 27.1256 25.9457 27.2037 25.9789 27.2842C26.0373 27.451 26.0971 27.6227 26.1171 27.8604L26.1174 27.864C26.1207 27.9032 26.0914 27.9377 26.052 27.9409C26.0461 27.9414 26.04 27.9411 26.0344 27.9402C25.7976 27.9016 25.6057 27.7901 25.4547 27.6425C25.3031 27.4949 25.1889 27.3142 25.0936 27.1259C24.9038 26.7446 24.8433 26.3172 24.8172 25.9081C24.8063 25.7022 24.7994 25.4972 24.8043 25.2925C24.8087 25.0881 24.8233 24.8828 24.8723 24.6852C24.9211 24.4877 24.9946 24.2966 25.1007 24.1208C25.2093 23.9463 25.3424 23.7831 25.5397 23.6604C25.571 23.6409 25.6123 23.6504 25.6319 23.6815C25.6371 23.6897 25.6402 23.6987 25.6415 23.7077L25.6422 23.7128Z" fill="#000072"/>
<path d="M21.0001 26.9587C18.3419 26.9587 16.7338 26.003 16.6667 25.9622C16.5036 25.8635 16.4519 25.6518 16.5513 25.4896C16.6506 25.3275 16.8634 25.2759 17.0265 25.375C17.0408 25.3835 18.5484 26.2709 21.0001 26.2709C23.4517 26.2709 24.9593 25.3835 24.9742 25.3746C25.1376 25.2766 25.3501 25.3285 25.4489 25.4905C25.5478 25.6527 25.4963 25.8636 25.3334 25.9622C25.2663 26.003 23.6582 26.9587 21.0001 26.9587Z" fill="#000072"/>
<path d="M20.9999 31.4224C14.458 31.4224 10.0284 30.2346 7.83431 27.8921C6.66653 26.6453 6.14031 25.0928 6.27027 23.2778C6.49121 20.193 8.68819 17.5499 11.7372 16.7008C11.9032 16.6545 12.0694 16.6097 12.2355 16.566C18.0987 15.0269 24.2843 15.0604 30.1238 16.6625L30.2622 16.7006C33.3117 17.5499 35.5087 20.193 35.7296 23.2778C35.8596 25.0928 35.3333 26.6453 34.1656 27.8921C31.9715 30.2347 27.5419 31.4224 20.9999 31.4224ZM21.0021 16.1235C18.1142 16.1235 15.2254 16.4925 12.4122 17.2309C12.2493 17.2738 12.0864 17.3178 11.9237 17.3631C9.15515 18.1341 7.16041 20.5307 6.96017 23.3266C6.84437 24.9435 7.30875 26.3218 8.34048 27.4234C10.3985 29.6206 14.6577 30.7346 20.9999 30.7346C27.3422 30.7346 31.6015 29.6206 33.6594 27.4234C34.6911 26.3218 35.1555 24.9435 35.0397 23.3266C34.8395 20.5307 32.8447 18.1341 30.0761 17.363L29.94 17.3254C27.0201 16.5243 24.0116 16.1235 21.0021 16.1235Z" fill="#000072"/>
<path d="M21 26.6148C22.8824 26.6148 24.0486 26.1417 24.0486 26.1417C24.0486 26.1417 25.3334 32.4979 21 32.4979C16.6665 32.4979 17.9513 26.1417 17.9513 26.1417C17.9513 26.1417 19.1175 26.6148 21 26.6148Z" fill="#FF5C9E"/>
<g opacity="0.3">
<path d="M21.0001 31.4147C18.5301 31.4147 17.8857 29.3498 17.7879 27.5739C17.6925 29.4483 17.9983 32.4978 21.0001 32.4978C24.0019 32.4978 24.3077 29.4484 24.2122 27.5739C24.1145 29.3498 23.4701 31.4147 21.0001 31.4147Z" fill="#000072"/>
</g>
<g opacity="0.3">
<path d="M17.9514 26.8916C17.9514 26.8916 19.1176 27.3647 21.0001 27.3647C22.8825 27.3647 24.0487 26.8916 24.0487 26.8916C24.0487 26.8916 24.1869 27.5753 24.2197 28.4942C24.267 27.2234 24.0487 26.1417 24.0487 26.1417C24.0487 26.1417 22.8825 26.6148 21.0001 26.6148C19.1176 26.6148 17.9514 26.1417 17.9514 26.1417C17.9514 26.1417 17.7331 27.2234 17.7804 28.4942C17.8133 27.5753 17.9514 26.8916 17.9514 26.8916Z" fill="#000072"/>
</g>
<path d="M21 32.8419C19.9049 32.8419 19.0407 32.4667 18.4313 31.7268C16.8741 29.8363 17.5814 26.2268 17.6123 26.074L17.6947 25.6663L18.082 25.8234C18.0926 25.8276 19.2178 26.2709 21 26.2709C22.7822 26.2709 23.9074 25.8276 23.9186 25.8231L24.305 25.6681L24.3876 26.074C24.4186 26.2268 25.1259 29.8363 23.5687 31.7268C22.9593 32.4667 22.095 32.8419 21 32.8419ZM18.2283 26.5954C18.0974 27.5396 17.8876 29.9825 18.9671 31.292C19.4454 31.872 20.1104 32.1541 21 32.1541C21.89 32.1541 22.5552 31.8718 23.0336 31.291C24.1144 29.9788 23.9035 27.5386 23.772 26.5953C23.2612 26.7432 22.2945 26.9588 21 26.9588C19.7058 26.9587 18.7392 26.7433 18.2283 26.5954Z" fill="#000072"/>
<path d="M21.3458 26.6148C21.3788 26.9153 21.3863 27.2159 21.3873 27.5164C21.3892 27.817 21.3778 28.1175 21.36 28.4181C21.3426 28.7187 21.3151 29.0192 21.273 29.3198C21.2286 29.6203 21.176 29.9209 21.0867 30.2214C21.0726 30.2691 21.0222 30.2963 20.9743 30.2823C20.944 30.2733 20.9217 30.2494 20.9132 30.2214C20.8239 29.9209 20.7712 29.6203 20.7269 29.3198C20.6848 29.0192 20.6573 28.7187 20.6399 28.4181C20.6221 28.1175 20.6107 27.817 20.6126 27.5164C20.6136 27.2159 20.6211 26.9153 20.6541 26.6148C20.675 26.4248 20.8467 26.2877 21.0377 26.3085C21.203 26.3264 21.3285 26.4569 21.3458 26.6148Z" fill="#000072"/>
</svg>
