<svg width="42" height="50" viewBox="0 0 42 50" fill="none" xmlns="http://www.w3.org/2000/svg">
<path d="M34.1734 49.9997C34.5642 45.068 35.3576 32.1104 36.1037 26.8571C37.5552 16.6372 40.5486 4.75357 40.5486 4.75357C40.5486 4.75357 35.1966 18.4195 33.0195 26.1438C30.8424 33.8682 29.1189 40.1666 28.121 44.8013C27.9833 45.4411 27.8651 49.5244 27.7629 49.9997H34.1734Z" fill="#5C975A"/>
<path d="M14.5144 49.9997H17.6292C17.3873 44.9148 16.4095 22.7987 14.6954 14.7357C12.6997 5.34757 10.5226 0 10.5226 0C10.5226 0 12.7903 17.9442 13.6976 27.57C14.3841 34.8549 14.4991 46.4901 14.5144 49.9997Z" fill="#5C975A"/>
<path d="M12.8914 49.9997C11.6172 46.6587 9.30933 37.1773 7.16641 32.2046C3.99143 24.8366 0 19.0138 0 19.0138C0 19.0138 1.7235 23.886 4.35425 30.4221C6.25523 35.145 8.20318 46.1937 9.13775 49.9997H12.8914Z" fill="#79A85A"/>
<path d="M9.8575 42.0282L10.0521 49.9997H14.3595C14.1831 48.0375 13.7666 40.3968 13.1836 37.9878C12.3974 34.7398 11.4299 31.1745 11.4299 31.1745C11.4299 31.1745 7.25702 20.2414 6.10802 18.9738C4.95902 17.7063 3.81002 19.7661 2.60048 24.4404C1.39095 29.1146 0.907252 36.641 0.725841 39.0175C0.544431 41.3943 0.665305 43.6125 0.665305 43.6125C0.665305 43.6125 1.87484 32.6004 3.26579 28.4014C4.65673 24.2025 5.32184 23.6481 5.32184 23.6481C5.32184 23.6481 7.01507 27.7678 8.10373 31.9667C9.1922 36.1657 9.8575 42.0282 9.8575 42.0282Z" fill="#5C975A"/>
<path d="M11.6113 49.8808V49.9998H16.2039C15.6733 47.3338 14.6054 38.5461 12.972 31.0164C10.5226 19.727 8.07349 12.1213 8.07349 12.1213C8.07349 12.1213 9.25275 20.321 10.0692 26.0252C10.8856 31.7291 11.6113 49.8808 11.6113 49.8808Z" fill="#79C732"/>
<path d="M17.661 49.9998L17.1447 9.03159C17.1447 9.03159 16.6911 15.0921 16.5097 19.8457C16.3585 23.8054 15.0745 44.4091 14.6498 49.9998H17.661Z" fill="#79A85A"/>
<path d="M20.3361 49.9997C20.7284 46.4586 21.6264 34.7815 22.3153 28.283C23.2223 19.7267 24.0388 6.77374 24.0388 6.77374C24.0388 6.77374 21.5894 17.4689 19.8659 25.6688C18.4319 32.4912 16.0935 48.157 15.7389 50H20.3361V49.9997Z" fill="#5C975A"/>
<path d="M29.3536 49.9997C29.8216 43.0517 30.6498 26.7664 30.8424 20.7963C31.1146 12.359 31.0238 2.37679 30.7516 2.61444C30.7516 2.61444 28.4839 23.7673 27.3952 34.3438C26.8646 39.4987 26.3129 47.1402 25.8864 49.9997H29.3536Z" fill="#79A85A"/>
<path d="M37.7222 49.9997C37.9223 48.416 38.154 43.1354 38.3714 41.7115C38.9156 38.1465 42 22.8165 42 22.8165C42 22.8165 40.4579 27.6887 38.4622 34.7001C37.3332 38.6661 35.8855 46.7741 34.8405 49.9997H37.7222Z" fill="#79A85A"/>
<path d="M35.8063 49.9997C35.9873 48.0772 36.2678 41.8426 36.6479 38.9784C37.3735 33.5119 40.2765 18.4198 40.2765 18.4198C40.2765 18.4198 38.4622 22.9357 36.9201 28.9962C35.8318 33.2732 33.8405 45.3448 32.7622 50H35.8063V49.9997Z" fill="#79C732"/>
<path d="M26.2693 49.9997C26.4264 48.6843 26.6876 43.233 27.1231 40.5232C29.3002 26.976 32.1124 21.1529 32.1124 21.1529C32.1124 21.1529 32.6566 22.1035 33.2917 25.4309C33.9267 28.7583 35.4688 37.9088 35.4688 37.9088C35.4688 37.9088 35.741 32.4423 35.1966 27.0947C34.6524 21.7471 33.5637 16.8749 33.5637 16.8749C33.5637 16.8749 32.8381 16.1619 31.568 16.3996C30.2979 16.6372 29.8445 16.6372 27.4859 23.0544C25.525 28.3898 23.6897 45.5557 23.1266 50H26.2693V49.9997Z" fill="#79A85A"/>
<path d="M19.6294 49.9997H22.5247C22.509 48.7064 22.4966 43.5911 22.4966 41.8305C22.4966 37.0769 22.4966 28.7585 20.8637 18.1821C19.2308 7.60565 17.3259 1.90147 17.3259 1.90147C17.3259 1.90147 18.7774 9.98243 19.3216 19.727C19.7257 26.9585 19.6799 43.6792 19.6294 49.9997Z" fill="#79A85A"/>
<path d="M23.4698 49.9997C24.2792 42.5795 25.8093 24.9553 26.3976 19.1327C27.214 11.0517 28.3933 1.06956 28.3933 1.06956C28.3933 1.06956 24.4926 18.4197 22.5877 29.2338C21.4629 35.6196 20.591 45.705 20.0657 50H23.4698V49.9997Z" fill="#79C732"/>
<path d="M27.3726 49.9997C28.2724 42.495 28.0776 33.3023 27.2195 25.789C29.3982 33.7783 30.4493 41.5866 31.2848 49.9997H27.3726Z" fill="#79C732"/>
</svg>
